MontaguSlab-BlackText.ufo
<glyph name="exclam" format="2">
  <advance width="680"/>
  <unicode hex="0021"/>
  <outline>
    <contour>
      <point x="453" y="572" type="line"/>
      <point x="545" y="918"/>
      <point x="598" y="1129"/>
      <point x="598" y="1247" type="curve" smooth="yes"/>
      <point x="598" y="1420"/>
      <point x="495" y="1522"/>
      <point x="340" y="1522" type="curve" smooth="yes"/>
      <point x="185" y="1522"/>
      <point x="82" y="1420"/>
      <point x="82" y="1247" type="curve" smooth="yes"/>
      <point x="82" y="1129"/>
      <point x="135" y="918"/>
      <point x="227" y="572" type="curve"/>
    </contour>
    <contour>
      <point x="340" y="-22" type="curve" smooth="yes"/>
      <point x="496" y="-22"/>
      <point x="597" y="79"/>
      <point x="597" y="224" type="curve" smooth="yes"/>
      <point x="597" y="369"/>
      <point x="496" y="470"/>
      <point x="340" y="470" type="curve" smooth="yes"/>
      <point x="185" y="470"/>
      <point x="83" y="369"/>
      <point x="83" y="224" type="curve" smooth="yes"/>
      <point x="83" y="79"/>
      <point x="185" y="-22"/>
    </contour>
  </outline>
</glyph>
<glyph name="numbersign" format="2">
  <advance width="1396"/>
  <unicode hex="0023"/>
  <outline>
    <contour>
      <point x="416" y="1500" type="line"/>
      <point x="224" y="0" type="line"/>
      <point x="470" y="0" type="line"/>
      <point x="662" y="1500" type="line"/>
    </contour>
    <contour>
      <point x="926" y="1500" type="line"/>
      <point x="734" y="0" type="line"/>
      <point x="980" y="0" type="line"/>
      <point x="1172" y="1500" type="line"/>
    </contour>
    <contour>
      <point x="68" y="1160" type="line"/>
      <point x="68" y="930" type="line"/>
      <point x="1328" y="930" type="line"/>
      <point x="1328" y="1160" type="line"/>
    </contour>
    <contour>
      <point x="68" y="570" type="line"/>
      <point x="68" y="340" type="line"/>
      <point x="1328" y="340" type="line"/>
      <point x="1328" y="570" type="line"/>
    </contour>
  </outline>
</glyph>
<glyph name="dollar" format="2">
  <advance width="1566"/>
  <unicode hex="0024"/>
  <outline>
    <contour>
      <point x="690" y="1720" type="line"/>
      <point x="690" y="-220" type="line"/>
      <point x="902" y="-220" type="line"/>
      <point x="902" y="1720" type="line"/>
    </contour>
    <component base="S"/>
  </outline>
</glyph>
<glyph name="percent" format="2">
  <advance width="2184"/>
  <unicode hex="0025"/>
  <outline>
    <contour>
      <point x="1492" y="1500" type="line"/>
      <point x="367" y="0" type="line"/>
      <point x="692" y="0" type="line"/>
      <point x="1817" y="1500" type="line"/>
    </contour>
    <contour>
      <point x="517" y="780" type="curve" smooth="yes"/>
      <point x="777" y="780"/>
      <point x="962" y="917"/>
      <point x="962" y="1150" type="curve" smooth="yes"/>
      <point x="962" y="1383"/>
      <point x="777" y="1522"/>
      <point x="517" y="1522" type="curve" smooth="yes"/>
      <point x="257" y="1522"/>
      <point x="72" y="1384"/>
      <point x="72" y="1151" type="curve" smooth="yes"/>
      <point x="72" y="917"/>
      <point x="257" y="780"/>
    </contour>
    <contour>
      <point x="517" y="970" type="curve" smooth="yes"/>
      <point x="431" y="970"/>
      <point x="379" y="1032"/>
      <point x="379" y="1151" type="curve" smooth="yes"/>
      <point x="379" y="1267"/>
      <point x="431" y="1332"/>
      <point x="517" y="1332" type="curve" smooth="yes"/>
      <point x="603" y="1332"/>
      <point x="655" y="1270"/>
      <point x="655" y="1160" type="curve" smooth="yes"/>
      <point x="655" y="1036"/>
      <point x="603" y="970"/>
    </contour>
    <contour>
      <point x="1667" y="-22" type="curve" smooth="yes"/>
      <point x="1927" y="-22"/>
      <point x="2112" y="115"/>
      <point x="2112" y="348" type="curve" smooth="yes"/>
      <point x="2112" y="581"/>
      <point x="1927" y="720"/>
      <point x="1667" y="720" type="curve" smooth="yes"/>
      <point x="1407" y="720"/>
      <point x="1222" y="582"/>
      <point x="1222" y="349" type="curve" smooth="yes"/>
      <point x="1222" y="115"/>
      <point x="1407" y="-22"/>
    </contour>
    <contour>
      <point x="1667" y="168" type="curve" smooth="yes"/>
      <point x="1581" y="168"/>
      <point x="1529" y="230"/>
      <point x="1529" y="349" type="curve" smooth="yes"/>
      <point x="1529" y="465"/>
      <point x="1581" y="530"/>
      <point x="1667" y="530" type="curve" smooth="yes"/>
      <point x="1753" y="530"/>
      <point x="1805" y="468"/>
      <point x="1805" y="358" type="curve" smooth="yes"/>
      <point x="1805" y="234"/>
      <point x="1753" y="168"/>
    </contour>
  </outline>
</glyph>
<glyph name="parenleft" format="2">
  <advance width="764"/>
  <unicode hex="0028"/>
  <outline>
    <contour>
      <point x="502" y="1680" type="line"/>
      <point x="345" y="1511"/>
      <point x="122" y="1177"/>
      <point x="122" y="630" type="curve"/>
      <point x="528" y="630" type="line"/>
      <point x="528" y="1098"/>
      <point x="628" y="1404"/>
      <point x="736" y="1680" type="curve"/>
    </contour>
    <contour>
      <point x="502" y="-420" type="curve"/>
      <point x="736" y="-420" type="line"/>
      <point x="628" y="-144"/>
      <point x="528" y="162"/>
      <point x="528" y="630" type="curve"/>
      <point x="122" y="630" type="line"/>
      <point x="122" y="83"/>
      <point x="345" y="-251"/>
    </contour>
  </outline>
</glyph>
<glyph name="asterisk" format="2">
  <advance width="988"/>
  <unicode hex="002A"/>
  <outline>
    <contour>
      <point x="494" y="1532" type="curve" smooth="yes"/>
      <point x="443" y="1532"/>
      <point x="411" y="1498"/>
      <point x="411" y="1438" type="curve" smooth="yes"/>
      <point x="411" y="1379"/>
      <point x="439" y="1265"/>
      <point x="477" y="1102" type="curve"/>
      <point x="511" y="1102" type="line"/>
      <point x="549" y="1265"/>
      <point x="577" y="1379"/>
      <point x="577" y="1438" type="curve" smooth="yes"/>
      <point x="577" y="1498"/>
      <point x="545" y="1532"/>
    </contour>
    <contour>
      <point x="494" y="672" type="curve" smooth="yes"/>
      <point x="545" y="672"/>
      <point x="577" y="706"/>
      <point x="577" y="766" type="curve" smooth="yes"/>
      <point x="577" y="825"/>
      <point x="549" y="939"/>
      <point x="511" y="1102" type="curve"/>
      <point x="477" y="1102" type="line"/>
      <point x="439" y="939"/>
      <point x="411" y="825"/>
      <point x="411" y="766" type="curve" smooth="yes"/>
      <point x="411" y="706"/>
      <point x="443" y="672"/>
    </contour>
    <contour>
      <point x="924" y="1102" type="curve" smooth="yes"/>
      <point x="924" y="1153"/>
      <point x="890" y="1185"/>
      <point x="830" y="1185" type="curve" smooth="yes"/>
      <point x="771" y="1185"/>
      <point x="657" y="1157"/>
      <point x="494" y="1119" type="curve"/>
      <point x="494" y="1085" type="line"/>
      <point x="657" y="1047"/>
      <point x="771" y="1019"/>
      <point x="830" y="1019" type="curve" smooth="yes"/>
      <point x="890" y="1019"/>
      <point x="924" y="1051"/>
    </contour>
    <contour>
      <point x="64" y="1102" type="curve" smooth="yes"/>
      <point x="64" y="1051"/>
      <point x="98" y="1019"/>
      <point x="158" y="1019" type="curve" smooth="yes"/>
      <point x="217" y="1019"/>
      <point x="331" y="1047"/>
      <point x="494" y="1085" type="curve"/>
      <point x="494" y="1119" type="line"/>
      <point x="331" y="1157"/>
      <point x="217" y="1185"/>
      <point x="158" y="1185" type="curve" smooth="yes"/>
      <point x="98" y="1185"/>
      <point x="64" y="1153"/>
    </contour>
    <contour>
      <point x="798" y="1406" type="curve" smooth="yes"/>
      <point x="762" y="1442"/>
      <point x="715" y="1441"/>
      <point x="673" y="1398" type="curve" smooth="yes"/>
      <point x="631" y="1357"/>
      <point x="570" y="1256"/>
      <point x="482" y="1114" type="curve"/>
      <point x="506" y="1090" type="line"/>
      <point x="648" y="1178"/>
      <point x="749" y="1239"/>
      <point x="790" y="1281" type="curve" smooth="yes"/>
      <point x="833" y="1323"/>
      <point x="834" y="1370"/>
    </contour>
    <contour>
      <point x="190" y="798" type="curve" smooth="yes"/>
      <point x="226" y="762"/>
      <point x="273" y="763"/>
      <point x="315" y="806" type="curve" smooth="yes"/>
      <point x="357" y="847"/>
      <point x="418" y="948"/>
      <point x="506" y="1090" type="curve"/>
      <point x="482" y="1114" type="line"/>
      <point x="340" y="1026"/>
      <point x="239" y="965"/>
      <point x="198" y="923" type="curve" smooth="yes"/>
      <point x="155" y="881"/>
      <point x="154" y="834"/>
    </contour>
    <contour>
      <point x="798" y="798" type="curve" smooth="yes"/>
      <point x="834" y="834"/>
      <point x="833" y="881"/>
      <point x="790" y="923" type="curve" smooth="yes"/>
      <point x="749" y="965"/>
      <point x="648" y="1026"/>
      <point x="506" y="1114" type="curve"/>
      <point x="482" y="1090" type="line"/>
      <point x="570" y="948"/>
      <point x="631" y="847"/>
      <point x="673" y="806" type="curve" smooth="yes"/>
      <point x="715" y="763"/>
      <point x="762" y="762"/>
    </contour>
    <contour>
      <point x="190" y="1406" type="curve" smooth="yes"/>
      <point x="154" y="1370"/>
      <point x="155" y="1323"/>
      <point x="198" y="1281" type="curve" smooth="yes"/>
      <point x="239" y="1239"/>
      <point x="340" y="1178"/>
      <point x="482" y="1090" type="curve"/>
      <point x="506" y="1114" type="line"/>
      <point x="418" y="1256"/>
      <point x="357" y="1357"/>
      <point x="315" y="1398" type="curve" smooth="yes"/>
      <point x="273" y="1441"/>
      <point x="226" y="1442"/>
    </contour>
  </outline>
</glyph>
<glyph name="comma" format="2">
  <advance width="699"/>
  <unicode hex="002C"/>
  <outline>
    <contour>
      <point x="172" y="-326" type="curve"/>
      <point x="372" y="-326" type="line"/>
      <point x="475" y="-246"/>
      <point x="617" y="-39"/>
      <point x="617" y="165" type="curve" smooth="yes"/>
      <point x="617" y="367"/>
      <point x="495" y="470"/>
      <point x="340" y="470" type="curve" smooth="yes"/>
      <point x="184" y="470"/>
      <point x="82" y="372"/>
      <point x="82" y="231" type="curve" smooth="yes"/>
      <point x="82" y="82"/>
      <point x="185" y="-7"/>
      <point x="357" y="-7" type="curve"/>
      <point x="336" y="-107"/>
      <point x="276" y="-220"/>
    </contour>
  </outline>
</glyph>
<glyph name="hyphen" format="2">
  <advance width="990"/>
  <unicode hex="002D"/>
  <outline>
    <contour>
      <point x="139" y="777" type="line"/>
      <point x="139" y="453" type="line"/>
      <point x="851" y="453" type="line"/>
      <point x="851" y="777" type="line"/>
    </contour>
  </outline>
</glyph>
<glyph name="period" format="2">
  <advance width="678"/>
  <unicode hex="002E"/>
  <outline>
    <contour>
      <point x="339" y="-22" type="curve" smooth="yes"/>
      <point x="495" y="-22"/>
      <point x="596" y="79"/>
      <point x="596" y="224" type="curve" smooth="yes"/>
      <point x="596" y="369"/>
      <point x="495" y="470"/>
      <point x="339" y="470" type="curve" smooth="yes"/>
      <point x="184" y="470"/>
      <point x="82" y="369"/>
      <point x="82" y="224" type="curve" smooth="yes"/>
      <point x="82" y="79"/>
      <point x="184" y="-22"/>
    </contour>
  </outline>
</glyph>
<glyph name="slash" format="2">
  <advance width="714"/>
  <unicode hex="002F"/>
  <outline>
    <contour>
      <point x="442" y="1580" type="line"/>
      <point x="2" y="-440" type="line"/>
      <point x="268" y="-440" type="line"/>
      <point x="708" y="1580" type="line"/>
    </contour>
  </outline>
</glyph>
<glyph name="zero" format="2">
  <advance width="1600"/>
  <unicode hex="0030"/>
  <anchor x="800" y="750" name="center"/>
  <outline>
    <contour>
      <point x="800" y="-22" type="curve" smooth="yes"/>
      <point x="1234" y="-22"/>
      <point x="1532" y="262"/>
      <point x="1532" y="750" type="curve" smooth="yes"/>
      <point x="1532" y="1238"/>
      <point x="1234" y="1522"/>
      <point x="800" y="1522" type="curve" smooth="yes"/>
      <point x="366" y="1522"/>
      <point x="68" y="1238"/>
      <point x="68" y="750" type="curve" smooth="yes"/>
      <point x="68" y="262"/>
      <point x="366" y="-22"/>
    </contour>
    <contour>
      <point x="800" y="202" type="curve" smooth="yes"/>
      <point x="620" y="202"/>
      <point x="514" y="399"/>
      <point x="514" y="750" type="curve" smooth="yes"/>
      <point x="514" y="1102"/>
      <point x="620" y="1298"/>
      <point x="800" y="1298" type="curve" smooth="yes"/>
      <point x="981" y="1298"/>
      <point x="1086" y="1102"/>
      <point x="1086" y="750" type="curve" smooth="yes"/>
      <point x="1086" y="399"/>
      <point x="981" y="202"/>
    </contour>
  </outline>
</glyph>
<glyph name="one" format="2">
  <advance width="1009"/>
  <unicode hex="0031"/>
  <outline>
    <contour>
      <point x="496" y="1500" type="line"/>
      <point x="494" y="1489" type="line" smooth="yes"/>
      <point x="460" y="1304"/>
      <point x="376" y="1198"/>
      <point x="72" y="1198" type="curve" smooth="yes"/>
      <point x="42" y="1198" type="line"/>
      <point x="42" y="968" type="line"/>
      <point x="396" y="968" type="line"/>
      <point x="396" y="0" type="line"/>
      <point x="800" y="0" type="line"/>
      <point x="800" y="1500" type="line"/>
    </contour>
  </outline>
</glyph>
<glyph name="two" format="2">
  <advance width="1448"/>
  <unicode hex="0032"/>
  <outline>
    <contour>
      <point x="122" y="1132" type="curve" smooth="yes"/>
      <point x="122" y="963"/>
      <point x="237" y="892"/>
      <point x="353" y="892" type="curve" smooth="yes"/>
      <point x="480" y="892"/>
      <point x="549" y="967"/>
      <point x="549" y="1062" type="curve" smooth="yes"/>
      <point x="549" y="1167"/>
      <point x="449" y="1222"/>
      <point x="313" y="1198" type="curve"/>
      <point x="343" y="1115" type="line"/>
      <point x="350" y="1241"/>
      <point x="497" y="1296"/>
      <point x="665" y="1296" type="curve" smooth="yes"/>
      <point x="830" y="1296"/>
      <point x="934" y="1224"/>
      <point x="934" y="1107" type="curve"/>
      <point x="1338" y="1059" type="line"/>
      <point x="1338" y="1379"/>
      <point x="1069" y="1522"/>
      <point x="735" y="1522" type="curve" smooth="yes"/>
      <point x="386" y="1522"/>
      <point x="122" y="1380"/>
    </contour>
    <contour>
      <point x="1338" y="1059" type="curve"/>
      <point x="934" y="1107" type="line"/>
      <point x="934" y="978"/>
      <point x="827" y="915"/>
      <point x="688" y="852" type="curve" smooth="yes"/>
      <point x="572" y="799" type="line" smooth="yes"/>
      <point x="273" y="662"/>
      <point x="96" y="440"/>
      <point x="96" y="70" type="curve" smooth="yes"/>
      <point x="96" y="0" type="line"/>
      <point x="380" y="340" type="line"/>
      <point x="432" y="406"/>
      <point x="507" y="452"/>
      <point x="673" y="499" type="curve" smooth="yes"/>
      <point x="783" y="530" type="line" smooth="yes"/>
      <point x="1091" y="617"/>
      <point x="1338" y="739"/>
    </contour>
    <contour>
      <point x="1330" y="0" type="line"/>
      <point x="1330" y="340" type="line"/>
      <point x="380" y="340" type="line"/>
      <point x="96" y="70" type="line"/>
      <point x="96" y="0" type="line"/>
    </contour>
    <contour>
      <point x="922" y="340" type="curve"/>
      <point x="1330" y="340" type="line"/>
      <point x="1330" y="540" type="line"/>
      <point x="1102" y="540" type="line"/>
      <point x="1102" y="530" type="line" smooth="yes"/>
      <point x="1102" y="388"/>
      <point x="1062" y="340"/>
    </contour>
  </outline>
</glyph>
<glyph name="three" format="2">
  <advance width="1395"/>
  <unicode hex="0033"/>
  <outline>
    <contour>
      <point x="91" y="579" type="line"/>
      <point x="59" y="194"/>
      <point x="317" y="-22"/>
      <point x="714" y="-22" type="curve" smooth="yes"/>
      <point x="1124" y="-22"/>
      <point x="1319" y="200"/>
      <point x="1319" y="461" type="curve" smooth="yes"/>
      <point x="1319" y="741"/>
      <point x="1066" y="920"/>
      <point x="519" y="884" type="curve"/>
      <point x="519" y="722" type="line"/>
      <point x="762" y="722"/>
      <point x="916" y="648"/>
      <point x="916" y="497" type="curve" smooth="yes"/>
      <point x="916" y="377"/>
      <point x="831" y="290"/>
      <point x="643" y="290" type="curve" smooth="yes"/>
      <point x="455" y="290"/>
      <point x="318" y="391"/>
      <point x="307" y="579" type="curve"/>
    </contour>
    <contour>
      <point x="123" y="1182" type="curve" smooth="yes"/>
      <point x="123" y="1027"/>
      <point x="233" y="967"/>
      <point x="344" y="962" type="curve" smooth="yes"/>
      <point x="477" y="957"/>
      <point x="550" y="1024"/>
      <point x="550" y="1102" type="curve" smooth="yes"/>
      <point x="550" y="1215"/>
      <point x="458" y="1274"/>
      <point x="324" y="1248" type="curve"/>
      <point x="334" y="1155" type="line"/>
      <point x="371" y="1250"/>
      <point x="468" y="1298"/>
      <point x="624" y="1298" type="curve" smooth="yes"/>
      <point x="784" y="1298"/>
      <point x="889" y="1234"/>
      <point x="889" y="1116" type="curve" smooth="yes"/>
      <point x="889" y="977"/>
      <point x="758" y="918"/>
      <point x="519" y="918" type="curve"/>
      <point x="519" y="808" type="line"/>
      <point x="1035" y="794"/>
      <point x="1273" y="918"/>
      <point x="1273" y="1155" type="curve" smooth="yes"/>
      <point x="1273" y="1379"/>
      <point x="1025" y="1522"/>
      <point x="696" y="1522" type="curve" smooth="yes"/>
      <point x="383" y="1522"/>
      <point x="123" y="1388"/>
    </contour>
  </outline>
</glyph>
<glyph name="four" format="2">
  <advance width="1424"/>
  <unicode hex="0034"/>
  <outline>
    <contour>
      <point x="1384" y="450" type="line"/>
      <point x="1384" y="680" type="line"/>
      <point x="68" y="680" type="line"/>
      <point x="-14" y="660" type="line"/>
      <point x="-14" y="450" type="line"/>
    </contour>
    <contour>
      <point x="700" y="1500" type="line"/>
      <point x="680" y="1425" type="line"/>
      <point x="680" y="0" type="line"/>
      <point x="1084" y="0" type="line"/>
      <point x="1084" y="1500" type="line"/>
    </contour>
    <contour>
      <point x="696" y="1168" type="line"/>
      <point x="700" y="1500" type="line"/>
      <point x="-14" y="660" type="line"/>
      <point x="264" y="660" type="line"/>
    </contour>
  </outline>
</glyph>
<glyph name="five" format="2">
  <advance width="1400"/>
  <unicode hex="0035"/>
  <outline>
    <contour>
      <point x="88" y="458" type="line"/>
      <point x="92" y="172"/>
      <point x="317" y="-22"/>
      <point x="694" y="-22" type="curve" smooth="yes"/>
      <point x="1072" y="-22"/>
      <point x="1294" y="186"/>
      <point x="1294" y="506" type="curve" smooth="yes"/>
      <point x="1294" y="844"/>
      <point x="1031" y="998"/>
      <point x="767" y="998" type="curve" smooth="yes"/>
      <point x="507" y="998"/>
      <point x="353" y="883"/>
      <point x="258" y="709" type="curve"/>
      <point x="357" y="632" type="line"/>
      <point x="401" y="695"/>
      <point x="479" y="751"/>
      <point x="605" y="751" type="curve" smooth="yes"/>
      <point x="773" y="751"/>
      <point x="880" y="646"/>
      <point x="880" y="502" type="curve" smooth="yes"/>
      <point x="880" y="357"/>
      <point x="779" y="254"/>
      <point x="590" y="254" type="curve" smooth="yes"/>
      <point x="408" y="254"/>
      <point x="317" y="359"/>
      <point x="300" y="458" type="curve"/>
    </contour>
    <contour>
      <point x="206" y="1500" type="line"/>
      <point x="132" y="632" type="line"/>
      <point x="357" y="632" type="line"/>
      <point x="378" y="696" type="line"/>
      <point x="441" y="1500" type="line"/>
    </contour>
    <contour>
      <point x="1208" y="1500" type="line"/>
      <point x="206" y="1500" type="line"/>
      <point x="370" y="1180" type="line"/>
      <point x="1208" y="1180" type="line"/>
    </contour>
    <contour>
      <point x="830" y="1180" type="line"/>
      <point x="946" y="1180"/>
      <point x="980" y="1149"/>
      <point x="980" y="1064" type="curve" smooth="yes"/>
      <point x="980" y="1054" type="line"/>
      <point x="1208" y="1054" type="line"/>
      <point x="1208" y="1180" type="line"/>
    </contour>
  </outline>
</glyph>
<glyph name="six" format="2">
  <advance width="1493"/>
  <unicode hex="0036"/>
  <outline>
    <contour>
      <point x="770" y="-22" type="curve" smooth="yes"/>
      <point x="1177" y="-22"/>
      <point x="1423" y="177"/>
      <point x="1423" y="482" type="curve" smooth="yes"/>
      <point x="1423" y="784"/>
      <point x="1184" y="954"/>
      <point x="890" y="954" type="curve" smooth="yes"/>
      <point x="690" y="954"/>
      <point x="573" y="865"/>
      <point x="510" y="745" type="curve"/>
      <point x="68" y="700" type="line"/>
      <point x="65" y="198"/>
      <point x="365" y="-22"/>
    </contour>
    <contour>
      <point x="769" y="212" type="curve" smooth="yes"/>
      <point x="620" y="212"/>
      <point x="533" y="308"/>
      <point x="533" y="462" type="curve" smooth="yes"/>
      <point x="533" y="612"/>
      <point x="620" y="712"/>
      <point x="769" y="712" type="curve" smooth="yes"/>
      <point x="918" y="712"/>
      <point x="1005" y="616"/>
      <point x="1005" y="462" type="curve" smooth="yes"/>
      <point x="1005" y="308"/>
      <point x="918" y="212"/>
    </contour>
    <contour>
      <point x="1364" y="1212" type="curve" smooth="yes"/>
      <point x="1364" y="1394"/>
      <point x="1131" y="1522"/>
      <point x="829" y="1522" type="curve" smooth="yes"/>
      <point x="342" y="1522"/>
      <point x="63" y="1200"/>
      <point x="68" y="700" type="curve"/>
      <point x="510" y="745" type="line"/>
      <point x="492" y="1107"/>
      <point x="656" y="1322"/>
      <point x="866" y="1322" type="curve" smooth="yes"/>
      <point x="1003" y="1322"/>
      <point x="1104" y="1260"/>
      <point x="1135" y="1175" type="curve"/>
      <point x="1133" y="1298" type="line"/>
      <point x="1007" y="1298"/>
      <point x="927" y="1262"/>
      <point x="927" y="1158" type="curve" smooth="yes"/>
      <point x="927" y="1080"/>
      <point x="1012" y="1022"/>
      <point x="1141" y="1022" type="curve" smooth="yes"/>
      <point x="1265" y="1022"/>
      <point x="1364" y="1086"/>
    </contour>
  </outline>
</glyph>
<glyph name="seven" format="2">
  <advance width="1406"/>
  <unicode hex="0037"/>
  <outline>
    <contour>
      <point x="88" y="1500" type="line"/>
      <point x="88" y="1170" type="line"/>
      <point x="1028" y="1170" type="line"/>
      <point x="1334" y="1190" type="line"/>
      <point x="1334" y="1500" type="line"/>
    </contour>
    <contour>
      <point x="384" y="0" type="curve"/>
      <point x="842" y="0" type="line"/>
      <point x="820" y="506"/>
      <point x="926" y="873"/>
      <point x="1334" y="1190" type="curve"/>
      <point x="1028" y="1170" type="line"/>
      <point x="624" y="954"/>
      <point x="384" y="577"/>
    </contour>
    <contour>
      <point x="496" y="1170" type="curve"/>
      <point x="88" y="1170" type="line"/>
      <point x="88" y="940" type="line"/>
      <point x="316" y="940" type="line"/>
      <point x="316" y="970" type="line" smooth="yes"/>
      <point x="316" y="1120"/>
      <point x="356" y="1170"/>
    </contour>
  </outline>
</glyph>
<glyph name="eight" format="2">
  <advance width="1492"/>
  <unicode hex="0038"/>
  <outline>
    <contour>
      <point x="118" y="1088" type="curve" smooth="yes"/>
      <point x="118" y="788"/>
      <point x="421" y="680"/>
      <point x="683" y="610" type="curve" smooth="yes"/>
      <point x="713" y="602" type="line" smooth="yes"/>
      <point x="843" y="567"/>
      <point x="968" y="506"/>
      <point x="968" y="375" type="curve" smooth="yes"/>
      <point x="968" y="260"/>
      <point x="888" y="192"/>
      <point x="759" y="192" type="curve" smooth="yes"/>
      <point x="600" y="192"/>
      <point x="486" y="275"/>
      <point x="486" y="415" type="curve" smooth="yes"/>
      <point x="486" y="565"/>
      <point x="586" y="646"/>
      <point x="684" y="668" type="curve"/>
      <point x="660" y="744" type="line"/>
      <point x="360" y="744"/>
      <point x="98" y="615"/>
      <point x="98" y="371" type="curve" smooth="yes"/>
      <point x="98" y="116"/>
      <point x="388" y="-22"/>
      <point x="729" y="-22" type="curve" smooth="yes"/>
      <point x="1133" y="-22"/>
      <point x="1402" y="145"/>
      <point x="1406" y="465" type="curve" smooth="yes"/>
      <point x="1410" y="785"/>
      <point x="1083" y="893"/>
      <point x="803" y="968" type="curve" smooth="yes"/>
      <point x="773" y="976" type="line" smooth="yes"/>
      <point x="630" y="1014"/>
      <point x="536" y="1057"/>
      <point x="536" y="1161" type="curve" smooth="yes"/>
      <point x="536" y="1258"/>
      <point x="616" y="1312"/>
      <point x="731" y="1312" type="curve" smooth="yes"/>
      <point x="862" y="1312"/>
      <point x="972" y="1245"/>
      <point x="972" y="1115" type="curve" smooth="yes"/>
      <point x="972" y="999"/>
      <point x="887" y="934"/>
      <point x="767" y="912" type="curve"/>
      <point x="791" y="836" type="line"/>
      <point x="1074" y="836"/>
      <point x="1330" y="967"/>
      <point x="1330" y="1179" type="curve" smooth="yes"/>
      <point x="1330" y="1392"/>
      <point x="1091" y="1522"/>
      <point x="761" y="1522" type="curve" smooth="yes"/>
      <point x="424" y="1522"/>
      <point x="118" y="1388"/>
    </contour>
  </outline>
</glyph>
<glyph name="question" format="2">
  <advance width="1228"/>
  <unicode hex="003F"/>
  <outline>
    <contour>
      <point x="612" y="-22" type="curve" smooth="yes"/>
      <point x="768" y="-22"/>
      <point x="869" y="79"/>
      <point x="869" y="224" type="curve" smooth="yes"/>
      <point x="869" y="369"/>
      <point x="768" y="470"/>
      <point x="612" y="470" type="curve" smooth="yes"/>
      <point x="456" y="470"/>
      <point x="355" y="369"/>
      <point x="355" y="224" type="curve" smooth="yes"/>
      <point x="355" y="79"/>
      <point x="456" y="-22"/>
    </contour>
    <contour>
      <point x="54" y="1176" type="curve" smooth="yes"/>
      <point x="54" y="1014"/>
      <point x="169" y="947"/>
      <point x="285" y="942" type="curve" smooth="yes"/>
      <point x="412" y="937"/>
      <point x="481" y="1017"/>
      <point x="481" y="1112" type="curve" smooth="yes"/>
      <point x="481" y="1217"/>
      <point x="381" y="1272"/>
      <point x="245" y="1248" type="curve"/>
      <point x="265" y="1165" type="line"/>
      <point x="292" y="1257"/>
      <point x="409" y="1304"/>
      <point x="566" y="1304" type="curve" smooth="yes"/>
      <point x="709" y="1304"/>
      <point x="792" y="1253"/>
      <point x="792" y="1162" type="curve"/>
      <point x="1196" y="1123" type="line"/>
      <point x="1196" y="1378"/>
      <point x="950" y="1522"/>
      <point x="622" y="1522" type="curve" smooth="yes"/>
      <point x="290" y="1522"/>
      <point x="54" y="1386"/>
    </contour>
    <contour>
      <point x="1196" y="1123" type="curve"/>
      <point x="792" y="1162" type="line"/>
      <point x="792" y="1066"/>
      <point x="708" y="1030"/>
      <point x="599" y="963" type="curve" smooth="yes"/>
      <point x="445" y="868"/>
      <point x="410" y="718"/>
      <point x="499" y="572" type="curve"/>
      <point x="725" y="572" type="line"/>
      <point x="732" y="647"/>
      <point x="771" y="678"/>
      <point x="832" y="705" type="curve" smooth="yes"/>
      <point x="1010" y="785"/>
      <point x="1196" y="861"/>
    </contour>
  </outline>
</glyph>
<glyph name="A" format="2">
  <advance width="1824"/>
  <unicode hex="0041"/>
  <anchor x="912" y="0" name="bottom"/>
  <anchor x="1642" y="0" name="ogonek"/>
  <anchor x="912" y="1500" name="top"/>
  <outline>
    <contour>
      <point x="82" y="0" type="line"/>
      <point x="364" y="0" type="line"/>
      <point x="895" y="1269" type="line"/>
      <point x="764" y="1270" type="line"/>
      <point x="1281" y="0" type="line"/>
      <point x="1742" y="0" type="line"/>
      <point x="1106" y="1500" type="line"/>
      <point x="718" y="1500" type="line"/>
    </contour>
    <contour>
      <point x="1184" y="425" type="line"/>
      <point x="1184" y="649" type="line"/>
      <point x="486" y="649" type="line"/>
      <point x="486" y="425" type="line"/>
    </contour>
  </outline>
</glyph>
<glyph name="B" format="2">
  <advance width="1658"/>
  <unicode hex="0042"/>
  <anchor x="829" y="0" name="bottom"/>
  <anchor x="829" y="1500" name="top"/>
  <outline>
    <contour>
      <point x="647" y="1500" type="line"/>
      <point x="647" y="1276" type="line"/>
      <point x="871" y="1276" type="line" smooth="yes"/>
      <point x="1010" y="1276"/>
      <point x="1094" y="1209"/>
      <point x="1094" y="1076" type="curve" smooth="yes"/>
      <point x="1094" y="943"/>
      <point x="1010" y="877"/>
      <point x="871" y="877" type="curve" smooth="yes"/>
      <point x="647" y="877" type="line"/>
      <point x="647" y="754" type="line"/>
      <point x="1000" y="754" type="line" smooth="yes"/>
      <point x="1312" y="754"/>
      <point x="1524" y="865"/>
      <point x="1524" y="1118" type="curve" smooth="yes"/>
      <point x="1524" y="1380"/>
      <point x="1312" y="1500"/>
      <point x="1000" y="1500" type="curve" smooth="yes"/>
    </contour>
    <contour>
      <point x="647" y="792" type="line"/>
      <point x="647" y="653" type="line"/>
      <point x="938" y="653" type="line" smooth="yes"/>
      <point x="1085" y="653"/>
      <point x="1178" y="579"/>
      <point x="1178" y="439" type="curve" smooth="yes"/>
      <point x="1178" y="299"/>
      <point x="1085" y="224"/>
      <point x="938" y="224" type="curve" smooth="yes"/>
      <point x="647" y="224" type="line"/>
      <point x="647" y="0" type="line"/>
      <point x="1076" y="0" type="line" smooth="yes"/>
      <point x="1398" y="0"/>
      <point x="1608" y="128"/>
      <point x="1608" y="408" type="curve" smooth="yes"/>
      <point x="1608" y="679"/>
      <point x="1398" y="790"/>
      <point x="1076" y="791" type="curve" smooth="yes"/>
    </contour>
    <contour>
      <point x="647" y="0" type="line"/>
      <point x="647" y="1500" type="line"/>
      <point x="227" y="1500" type="line"/>
      <point x="227" y="0" type="line"/>
    </contour>
  </outline>
</glyph>
<glyph name="C" format="2">
  <advance width="1689"/>
  <unicode hex="0043"/>
  <anchor x="837" y="0" name="bottom"/>
  <anchor x="869" y="1500" name="top"/>
  <outline>
    <contour>
      <point x="1337" y="983" type="curve"/>
      <point x="1474" y="983" type="line"/>
      <point x="1458" y="1323"/>
      <point x="1212" y="1532"/>
      <point x="837" y="1532" type="curve" smooth="yes"/>
      <point x="398" y="1532"/>
      <point x="64" y="1236"/>
      <point x="64" y="750" type="curve" smooth="yes"/>
      <point x="64" y="264"/>
      <point x="398" y="-32"/>
      <point x="877" y="-32" type="curve" smooth="yes"/>
      <point x="1378" y="-32"/>
      <point x="1588" y="269"/>
      <point x="1605" y="603" type="curve"/>
      <point x="1363" y="603" type="line"/>
      <point x="1337" y="412"/>
      <point x="1216" y="262"/>
      <point x="969" y="262" type="curve" smooth="yes"/>
      <point x="698" y="262"/>
      <point x="522" y="462"/>
      <point x="522" y="772" type="curve" smooth="yes"/>
      <point x="522" y="1076"/>
      <point x="680" y="1278"/>
      <point x="957" y="1278" type="curve" smooth="yes"/>
      <point x="1210" y="1278"/>
      <point x="1316" y="1120"/>
    </contour>
    <contour>
      <point x="1587" y="1500" type="line"/>
      <point x="1343" y="1500" type="line"/>
      <point x="1343" y="1164" type="line"/>
      <point x="1474" y="983" type="line"/>
      <point x="1587" y="983" type="line"/>
    </contour>
  </outline>
</glyph>
<glyph name="D" format="2">
  <advance width="1783"/>
  <unicode hex="0044"/>
  <anchor x="834" y="0" name="bottom"/>
  <anchor x="227" y="750" name="stroke"/>
  <anchor x="834" y="1500" name="top"/>
  <outline>
    <contour>
      <point x="647" y="1500" type="line"/>
      <point x="647" y="1276" type="line"/>
      <point x="821" y="1276" type="line" smooth="yes"/>
      <point x="1084" y="1276"/>
      <point x="1257" y="1074"/>
      <point x="1257" y="750" type="curve" smooth="yes"/>
      <point x="1257" y="426"/>
      <point x="1084" y="224"/>
      <point x="821" y="224" type="curve" smooth="yes"/>
      <point x="647" y="224" type="line"/>
      <point x="647" y="0" type="line"/>
      <point x="883" y="0" type="line" smooth="yes"/>
      <point x="1385" y="0"/>
      <point x="1719" y="270"/>
      <point x="1719" y="750" type="curve" smooth="yes"/>
      <point x="1719" y="1230"/>
      <point x="1385" y="1500"/>
      <point x="883" y="1500" type="curve" smooth="yes"/>
    </contour>
    <contour>
      <point x="647" y="0" type="line"/>
      <point x="647" y="1500" type="line"/>
      <point x="227" y="1500" type="line"/>
      <point x="227" y="0" type="line"/>
    </contour>
  </outline>
</glyph>
<glyph name="E" format="2">
  <advance width="1606"/>
  <unicode hex="0045"/>
  <anchor x="803" y="0" name="bottom"/>
  <anchor x="1511" y="0" name="ogonek"/>
  <anchor x="827" y="1500" name="top"/>
  <outline>
    <contour>
      <point x="1511" y="0" type="line"/>
      <point x="1511" y="224" type="line"/>
      <point x="647" y="224" type="line"/>
      <point x="647" y="0" type="line"/>
    </contour>
    <contour>
      <point x="1493" y="1276" type="line"/>
      <point x="1493" y="1500" type="line"/>
      <point x="647" y="1500" type="line"/>
      <point x="647" y="1276" type="line"/>
    </contour>
    <contour>
      <point x="647" y="0" type="line"/>
      <point x="647" y="1500" type="line"/>
      <point x="227" y="1500" type="line"/>
      <point x="227" y="0" type="line"/>
    </contour>
    <contour>
      <point x="1092" y="662" type="line"/>
      <point x="1092" y="882" type="line"/>
      <point x="647" y="882" type="line"/>
      <point x="647" y="662" type="line"/>
    </contour>
    <contour>
      <point x="1041" y="1276" type="line"/>
      <point x="1201" y="1276"/>
      <point x="1261" y="1206"/>
      <point x="1261" y="1036" type="curve" smooth="yes"/>
      <point x="1261" y="960" type="line"/>
      <point x="1493" y="960" type="line"/>
      <point x="1493" y="1276" type="line"/>
    </contour>
    <contour>
      <point x="1059" y="224" type="curve"/>
      <point x="1511" y="224" type="line"/>
      <point x="1511" y="560" type="line"/>
      <point x="1279" y="560" type="line"/>
      <point x="1279" y="464" type="line" smooth="yes"/>
      <point x="1279" y="294"/>
      <point x="1219" y="224"/>
    </contour>
    <contour>
      <point x="676" y="882" type="curve"/>
      <point x="1092" y="882" type="line"/>
      <point x="1092" y="1136" type="line"/>
      <point x="868" y="1136" type="line"/>
      <point x="868" y="1112" type="line" smooth="yes"/>
      <point x="868" y="952"/>
      <point x="808" y="882"/>
    </contour>
    <contour>
      <point x="676" y="662" type="line"/>
      <point x="808" y="662"/>
      <point x="868" y="592"/>
      <point x="868" y="432" type="curve" smooth="yes"/>
      <point x="868" y="364" type="line"/>
      <point x="1092" y="364" type="line"/>
      <point x="1092" y="662" type="line"/>
    </contour>
  </outline>
</glyph>
<glyph name="F" format="2">
  <advance width="1560"/>
  <unicode hex="0046"/>
  <outline>
    <contour>
      <point x="1494" y="1276" type="line"/>
      <point x="1494" y="1500" type="line"/>
      <point x="632" y="1500" type="line"/>
      <point x="632" y="1276" type="line"/>
    </contour>
    <contour>
      <point x="1095" y="652" type="line"/>
      <point x="1095" y="872" type="line"/>
      <point x="632" y="872" type="line"/>
      <point x="632" y="652" type="line"/>
    </contour>
    <contour>
      <point x="1042" y="1276" type="line"/>
      <point x="1202" y="1276"/>
      <point x="1262" y="1206"/>
      <point x="1262" y="1036" type="curve" smooth="yes"/>
      <point x="1262" y="940" type="line"/>
      <point x="1494" y="940" type="line"/>
      <point x="1494" y="1276" type="line"/>
    </contour>
    <contour>
      <point x="661" y="872" type="curve"/>
      <point x="1095" y="872" type="line"/>
      <point x="1095" y="1136" type="line"/>
      <point x="871" y="1136" type="line"/>
      <point x="871" y="1102" type="line" smooth="yes"/>
      <point x="871" y="942"/>
      <point x="811" y="872"/>
    </contour>
    <contour>
      <point x="661" y="652" type="line"/>
      <point x="811" y="652"/>
      <point x="871" y="582"/>
      <point x="871" y="422" type="curve" smooth="yes"/>
      <point x="871" y="344" type="line"/>
      <point x="1095" y="344" type="line"/>
      <point x="1095" y="652" type="line"/>
    </contour>
    <contour>
      <point x="212" y="1500" type="line"/>
      <point x="212" y="0" type="line"/>
      <point x="632" y="0" type="line"/>
      <point x="632" y="1500" type="line"/>
    </contour>
  </outline>
</glyph>
<glyph name="G" format="2">
  <advance width="1826"/>
  <unicode hex="0047"/>
  <anchor x="911" y="0" name="bottom"/>
  <anchor x="849" y="1500" name="top"/>
  <outline>
    <contour>
      <point x="1325" y="995" type="curve"/>
      <point x="1448" y="995" type="line"/>
      <point x="1422" y="1328"/>
      <point x="1227" y="1532"/>
      <point x="855" y="1532" type="curve" smooth="yes"/>
      <point x="411" y="1532"/>
      <point x="64" y="1244"/>
      <point x="64" y="750" type="curve" smooth="yes"/>
      <point x="64" y="256"/>
      <point x="411" y="-32"/>
      <point x="845" y="-32" type="curve" smooth="yes"/>
      <point x="1284" y="-32"/>
      <point x="1464" y="207"/>
      <point x="1470" y="553" type="curve"/>
      <point x="1372" y="553" type="line"/>
      <point x="1346" y="366"/>
      <point x="1233" y="222"/>
      <point x="975" y="222" type="curve" smooth="yes"/>
      <point x="699" y="222"/>
      <point x="534" y="428"/>
      <point x="534" y="750" type="curve" smooth="yes"/>
      <point x="534" y="1072"/>
      <point x="695" y="1278"/>
      <point x="967" y="1278" type="curve" smooth="yes"/>
      <point x="1210" y="1278"/>
      <point x="1307" y="1130"/>
    </contour>
    <contour>
      <point x="1575" y="1500" type="line"/>
      <point x="1331" y="1500" type="line"/>
      <point x="1331" y="1164" type="line"/>
      <point x="1448" y="995" type="line"/>
      <point x="1575" y="995" type="line"/>
    </contour>
    <contour>
      <point x="997" y="785" type="line"/>
      <point x="997" y="553" type="line"/>
      <point x="1788" y="553" type="line"/>
      <point x="1788" y="785" type="line"/>
    </contour>
    <contour>
      <point x="1628" y="553" type="line"/>
      <point x="1470" y="553" type="line"/>
      <point x="1386" y="380" type="line"/>
      <point x="1386" y="0" type="line"/>
      <point x="1628" y="0" type="line"/>
    </contour>
  </outline>
</glyph>
<glyph name="J" format="2">
  <advance width="1344"/>
  <unicode hex="004A"/>
  <anchor x="673" y="0" name="bottom"/>
  <anchor x="887" y="1500" name="top"/>
  <outline>
    <contour>
      <point x="1130" y="1500" type="line"/>
      <point x="710" y="1500" type="line"/>
      <point x="710" y="494" type="line" smooth="yes"/>
      <point x="710" y="366"/>
      <point x="646" y="274"/>
      <point x="496" y="274" type="curve" smooth="yes"/>
      <point x="345" y="274"/>
      <point x="286" y="367"/>
      <point x="286" y="494" type="curve" smooth="yes"/>
      <point x="286" y="597" type="line"/>
      <point x="54" y="597" type="line"/>
      <point x="54" y="458" type="line" smooth="yes"/>
      <point x="54" y="139"/>
      <point x="272" y="-32"/>
      <point x="592" y="-32" type="curve" smooth="yes"/>
      <point x="932" y="-32"/>
      <point x="1130" y="140"/>
      <point x="1130" y="458" type="curve" smooth="yes"/>
    </contour>
  </outline>
</glyph>
<glyph name="K" format="2">
  <advance width="1730"/>
  <unicode hex="004B"/>
  <anchor x="857" y="0" name="bottom"/>
  <anchor x="857" y="1500" name="top"/>
  <outline>
    <contour>
      <point x="647" y="1500" type="line"/>
      <point x="227" y="1500" type="line"/>
      <point x="227" y="0" type="line"/>
      <point x="647" y="0" type="line"/>
    </contour>
    <contour>
      <point x="1750" y="1500" type="line"/>
      <point x="1388" y="1500" type="line"/>
      <point x="395" y="624" type="line"/>
      <point x="555" y="436" type="line"/>
    </contour>
    <contour>
      <point x="1724" y="0" type="line"/>
      <point x="999" y="942" type="line"/>
      <point x="708" y="676" type="line"/>
      <point x="1200" y="0" type="line"/>
    </contour>
  </outline>
</glyph>
<glyph name="L" format="2">
  <advance width="1535"/>
  <unicode hex="004C"/>
  <anchor x="768" y="0" name="bottom"/>
  <anchor x="437" y="1260" name="center"/>
  <anchor x="437" y="1500" name="top"/>
  <anchor x="835" y="1500" name="topright"/>
  <outline>
    <contour>
      <point x="1467" y="0" type="line"/>
      <point x="1467" y="224" type="line"/>
      <point x="647" y="224" type="line"/>
      <point x="647" y="0" type="line"/>
    </contour>
    <contour>
      <point x="1015" y="224" type="curve"/>
      <point x="1467" y="224" type="line"/>
      <point x="1467" y="540" type="line"/>
      <point x="1235" y="540" type="line"/>
      <point x="1235" y="464" type="line" smooth="yes"/>
      <point x="1235" y="294"/>
      <point x="1175" y="224"/>
    </contour>
    <contour>
      <point x="647" y="0" type="line"/>
      <point x="647" y="1500" type="line"/>
      <point x="227" y="1500" type="line"/>
      <point x="227" y="0" type="line"/>
    </contour>
  </outline>
</glyph>
<glyph name="N" format="2">
  <advance width="1792"/>
  <unicode hex="004E"/>
  <anchor x="896" y="0" name="bottom"/>
  <anchor x="928" y="1500" name="top"/>
  <outline>
    <contour>
      <point x="487" y="0" type="line"/>
      <point x="487" y="944" type="line"/>
      <point x="567" y="1500" type="line"/>
      <point x="227" y="1500" type="line"/>
      <point x="227" y="0" type="line"/>
    </contour>
    <contour>
      <point x="1318" y="647" type="line"/>
      <point x="567" y="1500" type="line"/>
      <point x="487" y="944" type="line"/>
      <point x="1316" y="0" type="line"/>
    </contour>
    <contour>
      <point x="1578" y="0" type="line"/>
      <point x="1578" y="1500" type="line"/>
      <point x="1318" y="1500" type="line"/>
      <point x="1318" y="647" type="line"/>
      <point x="1308" y="647" type="line"/>
      <point x="1316" y="0" type="line"/>
    </contour>
  </outline>
</glyph>
<glyph name="O" format="2">
  <advance width="1896"/>
  <unicode hex="004F"/>
  <anchor x="948" y="0" name="bottom"/>
  <anchor x="1311" y="0" name="ogonek"/>
  <anchor x="948" y="1500" name="top"/>
  <anchor x="16" y="1500" name="topleft"/>
  <anchor x="1680" y="1270" name="topright"/>
  <outline>
    <contour>
      <point x="948" y="-32" type="curve" smooth="yes"/>
      <point x="1472" y="-32"/>
      <point x="1832" y="256"/>
      <point x="1832" y="750" type="curve" smooth="yes"/>
      <point x="1832" y="1244"/>
      <point x="1472" y="1532"/>
      <point x="948" y="1532" type="curve" smooth="yes"/>
      <point x="424" y="1532"/>
      <point x="64" y="1244"/>
      <point x="64" y="750" type="curve" smooth="yes"/>
      <point x="64" y="256"/>
      <point x="424" y="-32"/>
    </contour>
    <contour>
      <point x="948" y="202" type="curve" smooth="yes"/>
      <point x="686" y="202"/>
      <point x="532" y="400"/>
      <point x="532" y="750" type="curve" smooth="yes"/>
      <point x="532" y="1101"/>
      <point x="686" y="1298"/>
      <point x="948" y="1298" type="curve" smooth="yes"/>
      <point x="1211" y="1298"/>
      <point x="1364" y="1101"/>
      <point x="1364" y="750" type="curve" smooth="yes"/>
      <point x="1364" y="400"/>
      <point x="1211" y="202"/>
    </contour>
  </outline>
</glyph>
<glyph name="P" format="2">
  <advance width="1614"/>
  <unicode hex="0050"/>
  <anchor x="807" y="0" name="bottom"/>
  <anchor x="807" y="1500" name="top"/>
  <outline>
    <contour>
      <point x="647" y="1500" type="line"/>
      <point x="647" y="1276" type="line"/>
      <point x="893" y="1276" type="line" smooth="yes"/>
      <point x="1054" y="1276"/>
      <point x="1152" y="1203"/>
      <point x="1152" y="1049" type="curve" smooth="yes"/>
      <point x="1152" y="895"/>
      <point x="1054" y="822"/>
      <point x="893" y="822" type="curve" smooth="yes"/>
      <point x="647" y="822" type="line"/>
      <point x="647" y="598" type="line"/>
      <point x="1029" y="598" type="line" smooth="yes"/>
      <point x="1362" y="598"/>
      <point x="1582" y="749"/>
      <point x="1582" y="1049" type="curve" smooth="yes"/>
      <point x="1582" y="1349"/>
      <point x="1362" y="1500"/>
      <point x="1029" y="1500" type="curve" smooth="yes"/>
    </contour>
    <contour>
      <point x="227" y="1500" type="line"/>
      <point x="227" y="0" type="line"/>
      <point x="647" y="0" type="line"/>
      <point x="647" y="1500" type="line"/>
    </contour>
  </outline>
</glyph>
<glyph name="Q" format="2">
  <advance width="1896"/>
  <unicode hex="0051"/>
  <anchor x="948" y="0" name="bottom"/>
  <anchor x="948" y="1500" name="top"/>
  <outline>
    <contour>
      <point x="952" y="677" type="curve" smooth="yes"/>
      <point x="784" y="677"/>
      <point x="680" y="578"/>
      <point x="680" y="385" type="curve" smooth="yes"/>
      <point x="680" y="67" type="line"/>
      <point x="862" y="67" type="line"/>
      <point x="862" y="419" type="line" smooth="yes"/>
      <point x="862" y="452"/>
      <point x="877" y="471"/>
      <point x="906" y="471" type="curve" smooth="yes"/>
      <point x="935" y="471"/>
      <point x="950" y="452"/>
      <point x="950" y="419" type="curve" smooth="yes"/>
      <point x="950" y="0" type="line"/>
      <point x="1224" y="0" type="line"/>
      <point x="1224" y="385" type="line" smooth="yes"/>
      <point x="1224" y="578"/>
      <point x="1120" y="677"/>
    </contour>
    <contour>
      <point x="1216" y="-380" type="curve" smooth="yes"/>
      <point x="1380" y="-380"/>
      <point x="1482" y="-285"/>
      <point x="1482" y="-98" type="curve" smooth="yes"/>
      <point x="1482" y="-40" type="line"/>
      <point x="1312" y="-40" type="line"/>
      <point x="1312" y="-132" type="line" smooth="yes"/>
      <point x="1312" y="-165"/>
      <point x="1297" y="-184"/>
      <point x="1268" y="-184" type="curve" smooth="yes"/>
      <point x="1239" y="-184"/>
      <point x="1224" y="-165"/>
      <point x="1224" y="-132" type="curve" smooth="yes"/>
      <point x="1224" y="0" type="line"/>
      <point x="950" y="0" type="line"/>
      <point x="950" y="-98" type="line" smooth="yes"/>
      <point x="950" y="-285"/>
      <point x="1052" y="-380"/>
    </contour>
    <contour>
      <point x="948" y="-32" type="curve" smooth="yes"/>
      <point x="1472" y="-32"/>
      <point x="1832" y="256"/>
      <point x="1832" y="750" type="curve" smooth="yes"/>
      <point x="1832" y="1244"/>
      <point x="1472" y="1532"/>
      <point x="948" y="1532" type="curve" smooth="yes"/>
      <point x="424" y="1532"/>
      <point x="64" y="1244"/>
      <point x="64" y="750" type="curve" smooth="yes"/>
      <point x="64" y="256"/>
      <point x="424" y="-32"/>
    </contour>
    <contour>
      <point x="948" y="162" type="curve" smooth="yes"/>
      <point x="680" y="162"/>
      <point x="522" y="374"/>
      <point x="522" y="750" type="curve" smooth="yes"/>
      <point x="522" y="1127"/>
      <point x="680" y="1338"/>
      <point x="948" y="1338" type="curve" smooth="yes"/>
      <point x="1217" y="1338"/>
      <point x="1374" y="1127"/>
      <point x="1374" y="750" type="curve" smooth="yes"/>
      <point x="1374" y="353"/>
      <point x="1217" y="162"/>
    </contour>
  </outline>
</glyph>
<glyph name="R" format="2">
  <advance width="1737"/>
  <unicode hex="0052"/>
  <anchor x="868" y="0" name="bottom"/>
  <anchor x="856" y="1500" name="top"/>
  <outline>
    <contour>
      <point x="1630" y="1096" type="curve" smooth="yes"/>
      <point x="1630" y="1369"/>
      <point x="1414" y="1508"/>
      <point x="1089" y="1508" type="curve" smooth="yes"/>
      <point x="647" y="1508" type="line"/>
      <point x="647" y="1284" type="line"/>
      <point x="949" y="1284" type="line" smooth="yes"/>
      <point x="1104" y="1284"/>
      <point x="1200" y="1217"/>
      <point x="1200" y="1079" type="curve" smooth="yes"/>
      <point x="1200" y="941"/>
      <point x="1104" y="874"/>
      <point x="949" y="874" type="curve" smooth="yes"/>
      <point x="647" y="874" type="line"/>
      <point x="647" y="650" type="line"/>
      <point x="906" y="650" type="line"/>
      <point x="960" y="690" type="line"/>
      <point x="1099" y="690" type="line" smooth="yes"/>
      <point x="1418" y="690"/>
      <point x="1630" y="827"/>
    </contour>
    <contour>
      <point x="647" y="706" type="line"/>
      <point x="647" y="650" type="line"/>
      <point x="704" y="650" type="line" smooth="yes"/>
      <point x="830" y="650"/>
      <point x="895" y="611"/>
      <point x="895" y="463" type="curve" smooth="yes"/>
      <point x="895" y="370" type="line" smooth="yes"/>
      <point x="895" y="133"/>
      <point x="1029" y="-22"/>
      <point x="1303" y="-22" type="curve" smooth="yes"/>
      <point x="1572" y="-22"/>
      <point x="1685" y="133"/>
      <point x="1685" y="362" type="curve" smooth="yes"/>
      <point x="1685" y="607" type="line"/>
      <point x="1453" y="607" type="line"/>
      <point x="1453" y="318" type="line" smooth="yes"/>
      <point x="1453" y="263"/>
      <point x="1433" y="230"/>
      <point x="1379" y="230" type="curve" smooth="yes"/>
      <point x="1325" y="230"/>
      <point x="1305" y="263"/>
      <point x="1305" y="318" type="curve" smooth="yes"/>
      <point x="1305" y="371" type="line" smooth="yes"/>
      <point x="1305" y="582"/>
      <point x="1221" y="706"/>
      <point x="987" y="706" type="curve" smooth="yes"/>
    </contour>
    <contour>
      <point x="227" y="1508" type="line"/>
      <point x="227" y="0" type="line"/>
      <point x="647" y="0" type="line"/>
      <point x="647" y="1508" type="line"/>
    </contour>
  </outline>
</glyph>
<glyph name="S" format="2">
  <advance width="1566"/>
  <unicode hex="0053"/>
  <anchor x="835" y="0" name="bottom"/>
  <anchor x="757" y="1500" name="top"/>
  <outline>
    <contour>
      <point x="86" y="1071" type="curve" smooth="yes"/>
      <point x="86" y="755"/>
      <point x="363" y="609"/>
      <point x="726" y="552" type="curve" smooth="yes"/>
      <point x="866" y="530" type="line" smooth="yes"/>
      <point x="994" y="510"/>
      <point x="1100" y="478"/>
      <point x="1100" y="367" type="curve" smooth="yes"/>
      <point x="1100" y="256"/>
      <point x="1019" y="208"/>
      <point x="875" y="208" type="curve" smooth="yes"/>
      <point x="644" y="208"/>
      <point x="447" y="302"/>
      <point x="364" y="480" type="curve"/>
      <point x="215" y="480" type="line"/>
      <point x="307" y="109"/>
      <point x="584" y="-32"/>
      <point x="931" y="-32" type="curve" smooth="yes"/>
      <point x="1271" y="-32"/>
      <point x="1504" y="131"/>
      <point x="1504" y="451" type="curve" smooth="yes"/>
      <point x="1504" y="774"/>
      <point x="1222" y="896"/>
      <point x="844" y="955" type="curve" smooth="yes"/>
      <point x="704" y="977" type="line" smooth="yes"/>
      <point x="580" y="996"/>
      <point x="484" y="1041"/>
      <point x="484" y="1141" type="curve" smooth="yes"/>
      <point x="484" y="1243"/>
      <point x="568" y="1292"/>
      <point x="711" y="1292" type="curve" smooth="yes"/>
      <point x="912" y="1292"/>
      <point x="1100" y="1205"/>
      <point x="1178" y="1041" type="curve"/>
      <point x="1309" y="1041" type="line"/>
      <point x="1214" y="1406"/>
      <point x="964" y="1532"/>
      <point x="652" y="1532" type="curve" smooth="yes"/>
      <point x="336" y="1532"/>
      <point x="86" y="1387"/>
    </contour>
    <contour>
      <point x="1426" y="1501" type="line"/>
      <point x="1182" y="1501" type="line"/>
      <point x="1182" y="1275" type="line"/>
      <point x="1309" y="1041" type="line"/>
      <point x="1426" y="1041" type="line"/>
    </contour>
    <contour>
      <point x="116" y="0" type="line"/>
      <point x="360" y="0" type="line"/>
      <point x="360" y="287" type="line"/>
      <point x="215" y="480" type="line"/>
      <point x="116" y="480" type="line"/>
    </contour>
  </outline>
</glyph>
<glyph name="T" format="2">
  <advance width="1744"/>
  <unicode hex="0054"/>
  <anchor x="872" y="0" name="bottom"/>
  <anchor x="872" y="710" name="center"/>
  <anchor x="872" y="1500" name="top"/>
  <outline>
    <contour>
      <point x="1082" y="0" type="line"/>
      <point x="1082" y="1500" type="line"/>
      <point x="662" y="1500" type="line"/>
      <point x="662" y="0" type="line"/>
    </contour>
    <contour>
      <point x="1676" y="1284" type="line"/>
      <point x="1676" y="1500" type="line"/>
      <point x="68" y="1500" type="line"/>
      <point x="68" y="1284" type="line"/>
    </contour>
    <contour>
      <point x="1224" y="1284" type="line"/>
      <point x="1384" y="1284"/>
      <point x="1444" y="1214"/>
      <point x="1444" y="1044" type="curve" smooth="yes"/>
      <point x="1444" y="940" type="line"/>
      <point x="1676" y="940" type="line"/>
      <point x="1676" y="1284" type="line"/>
    </contour>
    <contour>
      <point x="520" y="1284" type="curve"/>
      <point x="68" y="1284" type="line"/>
      <point x="68" y="940" type="line"/>
      <point x="300" y="940" type="line"/>
      <point x="300" y="1044" type="line" smooth="yes"/>
      <point x="300" y="1214"/>
      <point x="360" y="1284"/>
    </contour>
  </outline>
</glyph>
<glyph name="U" format="2">
  <advance width="1836"/>
  <unicode hex="0055"/>
  <anchor x="918" y="0" name="bottom"/>
  <anchor x="1264" y="0" name="ogonek"/>
  <anchor x="975" y="1500" name="top"/>
  <anchor x="1622" y="1500" name="topright"/>
  <outline>
    <contour>
      <point x="214" y="628" type="line" smooth="yes"/>
      <point x="214" y="214"/>
      <point x="455" y="-22"/>
      <point x="918" y="-22" type="curve" smooth="yes"/>
      <point x="1381" y="-22"/>
      <point x="1622" y="214"/>
      <point x="1622" y="628" type="curve" smooth="yes"/>
      <point x="1622" y="1500" type="line"/>
      <point x="1302" y="1500" type="line"/>
      <point x="1302" y="586" type="line" smooth="yes"/>
      <point x="1302" y="363"/>
      <point x="1202" y="229"/>
      <point x="972" y="229" type="curve" smooth="yes"/>
      <point x="742" y="229"/>
      <point x="642" y="363"/>
      <point x="642" y="586" type="curve" smooth="yes"/>
      <point x="642" y="1500" type="line"/>
      <point x="214" y="1500" type="line"/>
    </contour>
  </outline>
</glyph>
<glyph name="V" format="2">
  <advance width="1824"/>
  <unicode hex="0056"/>
  <anchor x="912" y="0" name="bottom"/>
  <anchor x="912" y="1500" name="top"/>
  <outline>
    <contour>
      <point x="1742" y="1500" type="line"/>
      <point x="1460" y="1500" type="line"/>
      <point x="929" y="231" type="line"/>
      <point x="1060" y="230" type="line"/>
      <point x="543" y="1500" type="line"/>
      <point x="82" y="1500" type="line"/>
      <point x="718" y="0" type="line"/>
      <point x="1106" y="0" type="line"/>
    </contour>
  </outline>
</glyph>
<glyph name="W" format="2">
  <advance width="2542"/>
  <unicode hex="0057"/>
  <anchor x="1271" y="0" name="bottom"/>
  <anchor x="1306" y="1500" name="top"/>
  <outline>
    <contour>
      <point x="2454" y="1500" type="line"/>
      <point x="2182" y="1500" type="line"/>
      <point x="1722" y="231" type="line"/>
      <point x="1862" y="230" type="line"/>
      <point x="1408" y="1500" type="line"/>
      <point x="990" y="1500" type="line"/>
      <point x="1536" y="0" type="line"/>
      <point x="1908" y="0" type="line"/>
    </contour>
    <contour>
      <point x="1330" y="895" type="line"/>
      <point x="1202" y="1257" type="line"/>
      <point x="830" y="231" type="line"/>
      <point x="970" y="230" type="line"/>
      <point x="516" y="1500" type="line"/>
      <point x="73" y="1500" type="line"/>
      <point x="619" y="0" type="line"/>
      <point x="1004" y="0" type="line"/>
    </contour>
  </outline>
</glyph>
<glyph name="X" format="2">
  <advance width="1787"/>
  <unicode hex="0058"/>
  <anchor x="894" y="0" name="bottom"/>
  <anchor x="894" y="1500" name="top"/>
  <outline>
    <contour>
      <point x="30" y="1500" type="line"/>
      <point x="690" y="677" type="line"/>
      <point x="1034" y="677" type="line"/>
      <point x="1720" y="1500" type="line"/>
      <point x="1388" y="1500" type="line"/>
      <point x="890" y="900" type="line"/>
      <point x="1030" y="900" type="line"/>
      <point x="562" y="1500" type="line"/>
    </contour>
    <contour>
      <point x="1770" y="0" type="line"/>
      <point x="1086" y="853" type="line"/>
      <point x="742" y="853" type="line"/>
      <point x="31" y="0" type="line"/>
      <point x="364" y="0" type="line"/>
      <point x="886" y="630" type="line"/>
      <point x="746" y="630" type="line"/>
      <point x="1237" y="0" type="line"/>
    </contour>
  </outline>
</glyph>
<glyph name="Z" format="2">
  <advance width="1575"/>
  <unicode hex="005A"/>
  <anchor x="788" y="0" name="bottom"/>
  <anchor x="788" y="750" name="center"/>
  <anchor x="802" y="1500" name="top"/>
  <outline>
    <contour>
      <point x="130" y="1500" type="line"/>
      <point x="130" y="1282" type="line"/>
      <point x="945" y="1282" type="line"/>
      <point x="1491" y="1296" type="line"/>
      <point x="1491" y="1500" type="line"/>
    </contour>
    <contour>
      <point x="80" y="204" type="line"/>
      <point x="80" y="0" type="line"/>
      <point x="1481" y="0" type="line"/>
      <point x="1481" y="218" type="line"/>
      <point x="626" y="218" type="line"/>
    </contour>
    <contour>
      <point x="80" y="204" type="line"/>
      <point x="626" y="218" type="line"/>
      <point x="1491" y="1296" type="line"/>
      <point x="945" y="1282" type="line"/>
    </contour>
    <contour>
      <point x="582" y="1282" type="curve"/>
      <point x="130" y="1282" type="line"/>
      <point x="130" y="920" type="line"/>
      <point x="362" y="920" type="line"/>
      <point x="362" y="1042" type="line" smooth="yes"/>
      <point x="362" y="1212"/>
      <point x="422" y="1282"/>
    </contour>
    <contour>
      <point x="1029" y="218" type="curve"/>
      <point x="1481" y="218" type="line"/>
      <point x="1481" y="600" type="line"/>
      <point x="1249" y="600" type="line"/>
      <point x="1249" y="458" type="line" smooth="yes"/>
      <point x="1249" y="288"/>
      <point x="1189" y="218"/>
    </contour>
  </outline>
</glyph>
<glyph name="bracketleft" format="2">
  <advance width="808"/>
  <unicode hex="005B"/>
  <outline>
    <contour>
      <point x="584" y="-420" type="line"/>
      <point x="584" y="1680" type="line"/>
      <point x="186" y="1680" type="line"/>
      <point x="186" y="-420" type="line"/>
    </contour>
    <contour>
      <point x="764" y="1680" type="line"/>
      <point x="186" y="1680" type="line"/>
      <point x="186" y="1464" type="line"/>
      <point x="764" y="1464" type="line"/>
    </contour>
    <contour>
      <point x="764" y="-204" type="line"/>
      <point x="186" y="-204" type="line"/>
      <point x="186" y="-420" type="line"/>
      <point x="764" y="-420" type="line"/>
    </contour>
  </outline>
</glyph>
<glyph name="underscore" format="2">
  <advance width="1454"/>
  <unicode hex="005F"/>
  <outline>
    <contour>
      <point x="139" y="-60" type="line"/>
      <point x="139" y="-384" type="line"/>
      <point x="1315" y="-384" type="line"/>
      <point x="1315" y="-60" type="line"/>
    </contour>
  </outline>
</glyph>
<glyph name="a" format="2">
  <advance width="1594"/>
  <unicode hex="0061"/>
  <anchor x="779" y="0" name="bottom"/>
  <anchor x="1434" y="0" name="ogonek"/>
  <anchor x="679" y="1160" name="top"/>
  <outline>
    <contour>
      <point x="624" y="531" type="curve" smooth="yes"/>
      <point x="660" y="546" type="line" smooth="yes"/>
      <point x="723" y="572"/>
      <point x="762" y="606"/>
      <point x="784" y="651" type="curve"/>
      <point x="794" y="651" type="line"/>
      <point x="788" y="853" type="line"/>
      <point x="788" y="759"/>
      <point x="728" y="724"/>
      <point x="615" y="693" type="curve" smooth="yes"/>
      <point x="421" y="640" type="line" smooth="yes"/>
      <point x="214" y="583"/>
      <point x="76" y="495"/>
      <point x="76" y="290" type="curve" smooth="yes"/>
      <point x="76" y="96"/>
      <point x="234" y="-26"/>
      <point x="460" y="-26" type="curve" smooth="yes"/>
      <point x="675" y="-26"/>
      <point x="858" y="107"/>
      <point x="858" y="456" type="curve"/>
      <point x="784" y="463" type="line"/>
      <point x="784" y="309"/>
      <point x="696" y="258"/>
      <point x="614" y="258" type="curve" smooth="yes"/>
      <point x="542" y="258"/>
      <point x="486" y="299"/>
      <point x="486" y="376" type="curve" smooth="yes"/>
      <point x="486" y="453"/>
      <point x="531" y="492"/>
    </contour>
    <contour>
      <point x="788" y="853" type="line"/>
      <point x="788" y="752" type="line"/>
      <point x="774" y="651" type="line"/>
      <point x="784" y="651" type="line"/>
      <point x="784" y="378" type="line"/>
      <point x="829" y="378" type="line"/>
      <point x="829" y="344" type="line" smooth="yes"/>
      <point x="829" y="108"/>
      <point x="956" y="-26"/>
      <point x="1204" y="-26" type="curve" smooth="yes"/>
      <point x="1450" y="-26"/>
      <point x="1570" y="117"/>
      <point x="1570" y="347" type="curve" smooth="yes"/>
      <point x="1570" y="618" type="line"/>
      <point x="1320" y="618" type="line"/>
      <point x="1320" y="328" type="line" smooth="yes"/>
      <point x="1320" y="275"/>
      <point x="1292" y="238"/>
      <point x="1239" y="238" type="curve" smooth="yes"/>
      <point x="1189" y="238"/>
      <point x="1160" y="275"/>
      <point x="1160" y="328" type="curve" smooth="yes"/>
      <point x="1160" y="759" type="line"/>
    </contour>
    <contour>
      <point x="148" y="914" type="curve" smooth="yes"/>
      <point x="148" y="786"/>
      <point x="258" y="726"/>
      <point x="379" y="726" type="curve" smooth="yes"/>
      <point x="502" y="726"/>
      <point x="573" y="792"/>
      <point x="575" y="884" type="curve" smooth="yes"/>
      <point x="577" y="981"/>
      <point x="498" y="1023"/>
      <point x="369" y="1030" type="curve"/>
      <point x="359" y="847" type="line"/>
      <point x="385" y="964"/>
      <point x="496" y="1006"/>
      <point x="610" y="1006" type="curve" smooth="yes"/>
      <point x="712" y="1006"/>
      <point x="788" y="957"/>
      <point x="788" y="853" type="curve"/>
      <point x="1160" y="759" type="line"/>
      <point x="1163" y="1043"/>
      <point x="992" y="1186"/>
      <point x="679" y="1186" type="curve" smooth="yes"/>
      <point x="407" y="1186"/>
      <point x="148" y="1091"/>
    </contour>
  </outline>
</glyph>
<glyph name="b" format="2">
  <advance width="1547"/>
  <unicode hex="0062"/>
  <anchor x="777" y="0" name="bottom"/>
  <anchor x="777" y="1580" name="top"/>
  <outline>
    <contour>
      <point x="169" y="0" type="line"/>
      <point x="539" y="0" type="line"/>
      <point x="539" y="262" type="line"/>
      <point x="508" y="581" type="line"/>
      <point x="569" y="838" type="line"/>
      <point x="569" y="1580" type="line"/>
      <point x="169" y="1580" type="line"/>
    </contour>
    <contour>
      <point x="940" y="1182" type="curve" smooth="yes"/>
      <point x="614" y="1182"/>
      <point x="500" y="956"/>
      <point x="500" y="580" type="curve"/>
      <point x="472" y="580" type="line"/>
      <point x="472" y="214"/>
      <point x="614" y="-22"/>
      <point x="936" y="-22" type="curve" smooth="yes"/>
      <point x="1250" y="-22"/>
      <point x="1475" y="194"/>
      <point x="1475" y="580" type="curve" smooth="yes"/>
      <point x="1475" y="966"/>
      <point x="1250" y="1182"/>
    </contour>
    <contour>
      <point x="793" y="930" type="curve" smooth="yes"/>
      <point x="945" y="930"/>
      <point x="1035" y="810"/>
      <point x="1035" y="580" type="curve" smooth="yes"/>
      <point x="1035" y="350"/>
      <point x="945" y="230"/>
      <point x="793" y="230" type="curve" smooth="yes"/>
      <point x="639" y="230"/>
      <point x="549" y="350"/>
      <point x="549" y="580" type="curve" smooth="yes"/>
      <point x="549" y="810"/>
      <point x="639" y="930"/>
    </contour>
  </outline>
</glyph>
<glyph name="c" format="2">
  <advance width="1316"/>
  <unicode hex="0063"/>
  <anchor x="658" y="0" name="bottom"/>
  <anchor x="700" y="1160" name="top"/>
  <outline>
    <contour>
      <point x="1248" y="465" type="curve"/>
      <point x="1020" y="465" type="line"/>
      <point x="998" y="358"/>
      <point x="914" y="274"/>
      <point x="780" y="274" type="curve" smooth="yes"/>
      <point x="582" y="274"/>
      <point x="471" y="426"/>
      <point x="471" y="639" type="curve" smooth="yes"/>
      <point x="471" y="846"/>
      <point x="583" y="988"/>
      <point x="766" y="988" type="curve"/>
      <point x="713" y="1186" type="line"/>
      <point x="340" y="1186"/>
      <point x="72" y="971"/>
      <point x="72" y="581" type="curve" smooth="yes"/>
      <point x="72" y="190"/>
      <point x="335" y="-26"/>
      <point x="703" y="-26" type="curve" smooth="yes"/>
      <point x="1039" y="-26"/>
      <point x="1241" y="193"/>
    </contour>
    <contour>
      <point x="713" y="1186" type="curve"/>
      <point x="766" y="988" type="line"/>
      <point x="881" y="988"/>
      <point x="939" y="949"/>
      <point x="1016" y="864" type="curve"/>
      <point x="1021" y="1000" type="line"/>
      <point x="884" y="1000"/>
      <point x="795" y="963"/>
      <point x="795" y="842" type="curve" smooth="yes"/>
      <point x="795" y="750"/>
      <point x="877" y="679"/>
      <point x="1003" y="679" type="curve" smooth="yes"/>
      <point x="1132" y="679"/>
      <point x="1230" y="752"/>
      <point x="1230" y="880" type="curve" smooth="yes"/>
      <point x="1230" y="1058"/>
      <point x="1022" y="1186"/>
    </contour>
  </outline>
</glyph>
<glyph name="d" format="2">
  <advance width="1563"/>
  <unicode hex="0064"/>
  <anchor x="783" y="0" name="bottom"/>
  <anchor x="783" y="580" name="center"/>
  <anchor x="783" y="1580" name="top"/>
  <anchor x="1378" y="1580" name="topright"/>
  <outline>
    <contour>
      <point x="1378" y="0" type="line"/>
      <point x="1378" y="1580" type="line"/>
      <point x="978" y="1580" type="line"/>
      <point x="978" y="838" type="line"/>
      <point x="1040" y="581" type="line"/>
      <point x="1008" y="280" type="line"/>
      <point x="1008" y="0" type="line"/>
    </contour>
    <contour>
      <point x="607" y="1182" type="curve" smooth="yes"/>
      <point x="297" y="1182"/>
      <point x="72" y="966"/>
      <point x="72" y="580" type="curve" smooth="yes"/>
      <point x="72" y="194"/>
      <point x="297" y="-22"/>
      <point x="611" y="-22" type="curve" smooth="yes"/>
      <point x="933" y="-22"/>
      <point x="1075" y="214"/>
      <point x="1075" y="580" type="curve"/>
      <point x="1047" y="580" type="line"/>
      <point x="1047" y="956"/>
      <point x="933" y="1182"/>
    </contour>
    <contour>
      <point x="754" y="930" type="curve" smooth="yes"/>
      <point x="908" y="930"/>
      <point x="998" y="810"/>
      <point x="998" y="580" type="curve" smooth="yes"/>
      <point x="998" y="350"/>
      <point x="908" y="230"/>
      <point x="754" y="230" type="curve" smooth="yes"/>
      <point x="602" y="230"/>
      <point x="512" y="350"/>
      <point x="512" y="580" type="curve" smooth="yes"/>
      <point x="512" y="810"/>
      <point x="602" y="930"/>
    </contour>
  </outline>
</glyph>
<glyph name="e" format="2">
  <advance width="1340"/>
  <unicode hex="0065"/>
  <anchor x="670" y="0" name="bottom"/>
  <anchor x="995" y="0" name="ogonek"/>
  <anchor x="670" y="1160" name="top"/>
  <outline>
    <contour>
      <point x="1264" y="440" type="curve"/>
      <point x="1012" y="440" type="line"/>
      <point x="978" y="341"/>
      <point x="903" y="267"/>
      <point x="755" y="267" type="curve" smooth="yes"/>
      <point x="576" y="267"/>
      <point x="464" y="399"/>
      <point x="464" y="610" type="curve" smooth="yes"/>
      <point x="464" y="873"/>
      <point x="544" y="970"/>
      <point x="685" y="970" type="curve"/>
      <point x="673" y="1186" type="line"/>
      <point x="324" y="1186"/>
      <point x="72" y="970"/>
      <point x="72" y="580" type="curve" smooth="yes"/>
      <point x="72" y="189"/>
      <point x="327" y="-26"/>
      <point x="689" y="-26" type="curve" smooth="yes"/>
      <point x="1059" y="-26"/>
      <point x="1241" y="207"/>
    </contour>
    <contour>
      <point x="874" y="758" type="curve"/>
      <point x="1268" y="657" type="line"/>
      <point x="1268" y="972"/>
      <point x="1059" y="1186"/>
      <point x="673" y="1186" type="curve"/>
      <point x="685" y="970" type="line"/>
      <point x="808" y="970"/>
      <point x="870" y="873"/>
    </contour>
    <contour>
      <point x="252" y="758" type="line"/>
      <point x="252" y="560" type="line"/>
      <point x="1268" y="560" type="line"/>
      <point x="1268" y="657" type="line"/>
      <point x="874" y="758" type="line"/>
    </contour>
  </outline>
</glyph>
<glyph name="f" format="2">
  <advance width="1044"/>
  <unicode hex="0066"/>
  <anchor x="494" y="0" name="bottom"/>
  <anchor x="494" y="1580" name="top"/>
  <outline>
    <contour>
      <point x="20" y="1160" type="line"/>
      <point x="20" y="930" type="line"/>
      <point x="994" y="930" type="line"/>
      <point x="994" y="1160" type="line"/>
    </contour>
    <contour>
      <point x="248" y="1236" type="line"/>
      <point x="248" y="0" type="line"/>
      <point x="648" y="0" type="line"/>
      <point x="648" y="1295" type="line"/>
    </contour>
    <contour>
      <point x="794" y="1642" type="line"/>
      <point x="503" y="1642"/>
      <point x="248" y="1516"/>
      <point x="248" y="1236" type="curve"/>
      <point x="648" y="1295" type="line"/>
      <point x="648" y="1407"/>
      <point x="708" y="1452"/>
      <point x="812" y="1452" type="curve"/>
    </contour>
    <contour>
      <point x="794" y="1642" type="curve"/>
      <point x="812" y="1452" type="line"/>
      <point x="878" y="1452"/>
      <point x="920" y="1419"/>
      <point x="943" y="1379" type="curve"/>
      <point x="972" y="1480" type="line"/>
      <point x="866" y="1480"/>
      <point x="799" y="1461"/>
      <point x="799" y="1367" type="curve" smooth="yes"/>
      <point x="799" y="1275"/>
      <point x="889" y="1230"/>
      <point x="994" y="1230" type="curve" smooth="yes"/>
      <point x="1125" y="1230"/>
      <point x="1196" y="1309"/>
      <point x="1196" y="1400" type="curve" smooth="yes"/>
      <point x="1196" y="1546"/>
      <point x="1034" y="1642"/>
    </contour>
  </outline>
</glyph>
<glyph name="g" format="2">
  <advance width="1412"/>
  <unicode hex="0067"/>
  <anchor x="708" y="-440" name="bottom"/>
  <anchor x="708" y="1160" name="top"/>
  <outline>
    <contour>
      <point x="696" y="402" type="curve" smooth="yes"/>
      <point x="1026" y="402"/>
      <point x="1214" y="542"/>
      <point x="1214" y="750" type="curve" smooth="yes"/>
      <point x="1214" y="862"/>
      <point x="1150" y="927"/>
      <point x="1092" y="956" type="curve"/>
      <point x="696" y="1170" type="line"/>
      <point x="360" y="1170"/>
      <point x="148" y="1030"/>
      <point x="148" y="786" type="curve" smooth="yes"/>
      <point x="148" y="542"/>
      <point x="360" y="402"/>
    </contour>
    <contour>
      <point x="696" y="598" type="curve" smooth="yes"/>
      <point x="602" y="598"/>
      <point x="548" y="674"/>
      <point x="548" y="786" type="curve" smooth="yes"/>
      <point x="548" y="894"/>
      <point x="602" y="974"/>
      <point x="696" y="974" type="curve" smooth="yes"/>
      <point x="790" y="974"/>
      <point x="844" y="894"/>
      <point x="844" y="786" type="curve" smooth="yes"/>
      <point x="844" y="674"/>
      <point x="790" y="598"/>
    </contour>
    <contour>
      <point x="696" y="1170" type="line"/>
      <point x="1092" y="956" type="line"/>
      <point x="1330" y="956" type="line"/>
      <point x="1330" y="1170" type="line"/>
    </contour>
    <contour>
      <point x="423" y="524" type="line"/>
      <point x="199" y="526"/>
      <point x="50" y="419"/>
      <point x="50" y="238" type="curve" smooth="yes"/>
      <point x="50" y="65"/>
      <point x="199" y="-40"/>
      <point x="423" y="-40" type="curve" smooth="yes"/>
      <point x="869" y="-40" type="line" smooth="yes"/>
      <point x="932" y="-40"/>
      <point x="973" y="-64"/>
      <point x="973" y="-119" type="curve" smooth="yes"/>
      <point x="973" y="-181"/>
      <point x="927" y="-222"/>
      <point x="837" y="-222" type="curve" smooth="yes"/>
      <point x="581" y="-222" type="line" smooth="yes"/>
      <point x="486" y="-222"/>
      <point x="433" y="-189"/>
      <point x="433" y="-116" type="curve" smooth="yes"/>
      <point x="433" y="-81"/>
      <point x="451" y="-52"/>
      <point x="480" y="-27" type="curve"/>
      <point x="444" y="3" type="line"/>
      <point x="272" y="3"/>
      <point x="136" y="-60"/>
      <point x="136" y="-204" type="curve" smooth="yes"/>
      <point x="136" y="-356"/>
      <point x="279" y="-420"/>
      <point x="506" y="-420" type="curve" smooth="yes"/>
      <point x="835" y="-420" type="line" smooth="yes"/>
      <point x="1178" y="-420"/>
      <point x="1354" y="-263"/>
      <point x="1354" y="0" type="curve" smooth="yes"/>
      <point x="1354" y="188"/>
      <point x="1216" y="310"/>
      <point x="965" y="310" type="curve" smooth="yes"/>
      <point x="435" y="310" type="line" smooth="yes"/>
      <point x="376" y="310"/>
      <point x="341" y="331"/>
      <point x="341" y="378" type="curve" smooth="yes"/>
      <point x="341" y="423"/>
      <point x="378" y="450"/>
      <point x="441" y="450" type="curve"/>
    </contour>
  </outline>
</glyph>
<glyph name="h" format="2">
  <advance width="1478"/>
  <unicode hex="0068"/>
  <anchor x="730" y="0" name="bottom"/>
  <anchor x="730" y="790" name="center"/>
  <anchor x="380" y="1580" name="top"/>
  <outline>
    <contour>
      <point x="194" y="1580" type="line"/>
      <point x="194" y="0" type="line"/>
      <point x="594" y="0" type="line"/>
      <point x="594" y="1580" type="line"/>
    </contour>
    <contour>
      <point x="561" y="720" type="curve"/>
      <point x="594" y="722" type="line"/>
      <point x="594" y="868"/>
      <point x="674" y="919"/>
      <point x="765" y="919" type="curve" smooth="yes"/>
      <point x="853" y="919"/>
      <point x="912" y="868"/>
      <point x="912" y="768" type="curve" smooth="yes"/>
      <point x="912" y="0" type="line"/>
      <point x="1312" y="0" type="line"/>
      <point x="1312" y="779" type="line" smooth="yes"/>
      <point x="1312" y="1060"/>
      <point x="1157" y="1183"/>
      <point x="939" y="1183" type="curve" smooth="yes"/>
      <point x="639" y="1183"/>
      <point x="561" y="1001"/>
    </contour>
  </outline>
</glyph>
<glyph name="k" format="2">
  <advance width="1504"/>
  <unicode hex="006B"/>
  <anchor x="750" y="0" name="bottom"/>
  <anchor x="750" y="1580" name="top"/>
  <outline>
    <contour>
      <point x="195" y="1580" type="line"/>
      <point x="194" y="0" type="line"/>
      <point x="594" y="0" type="line"/>
      <point x="595" y="1580" type="line"/>
    </contour>
    <contour>
      <point x="1515" y="1160" type="line"/>
      <point x="1161" y="1160" type="line"/>
      <point x="416" y="482" type="line"/>
      <point x="574" y="318" type="line"/>
    </contour>
    <contour>
      <point x="1493" y="0" type="line"/>
      <point x="933" y="799" type="line"/>
      <point x="660" y="553" type="line"/>
      <point x="1027" y="0" type="line"/>
    </contour>
  </outline>
</glyph>
<glyph name="l" format="2">
  <advance width="783"/>
  <unicode hex="006C"/>
  <anchor x="394" y="0" name="bottom"/>
  <anchor x="404" y="1160" name="center"/>
  <anchor x="384" y="1580" name="top"/>
  <anchor x="598" y="1580" name="topright"/>
  <outline>
    <contour>
      <point x="194" y="1580" type="line"/>
      <point x="194" y="0" type="line"/>
      <point x="598" y="0" type="line"/>
      <point x="598" y="1580" type="line"/>
    </contour>
  </outline>
</glyph>
<glyph name="m" format="2">
  <advance width="2144"/>
  <unicode hex="006D"/>
  <anchor x="1078" y="0" name="bottom"/>
  <anchor x="1078" y="1160" name="top"/>
  <outline>
    <contour>
      <point x="224" y="1160" type="line"/>
      <point x="224" y="0" type="line"/>
      <point x="618" y="0" type="line"/>
      <point x="618" y="790" type="line"/>
      <point x="568" y="782" type="line"/>
      <point x="568" y="1160" type="line"/>
    </contour>
    <contour>
      <point x="555" y="731" type="curve"/>
      <point x="618" y="733" type="line"/>
      <point x="618" y="873"/>
      <point x="690" y="922"/>
      <point x="773" y="922" type="curve" smooth="yes"/>
      <point x="852" y="922"/>
      <point x="904" y="874"/>
      <point x="904" y="779" type="curve" smooth="yes"/>
      <point x="904" y="0" type="line"/>
      <point x="1298" y="0" type="line"/>
      <point x="1298" y="790" type="line" smooth="yes"/>
      <point x="1298" y="1065"/>
      <point x="1147" y="1186"/>
      <point x="933" y="1186" type="curve" smooth="yes"/>
      <point x="631" y="1186"/>
      <point x="555" y="1007"/>
    </contour>
    <contour>
      <point x="1251" y="731" type="curve"/>
      <point x="1298" y="733" type="line"/>
      <point x="1298" y="873"/>
      <point x="1370" y="922"/>
      <point x="1453" y="922" type="curve" smooth="yes"/>
      <point x="1532" y="922"/>
      <point x="1584" y="874"/>
      <point x="1584" y="779" type="curve" smooth="yes"/>
      <point x="1584" y="0" type="line"/>
      <point x="1978" y="0" type="line"/>
      <point x="1978" y="790" type="line" smooth="yes"/>
      <point x="1978" y="1065"/>
      <point x="1829" y="1186"/>
      <point x="1621" y="1186" type="curve" smooth="yes"/>
      <point x="1325" y="1186"/>
      <point x="1251" y="1007"/>
    </contour>
  </outline>
</glyph>
<glyph name="n" format="2">
  <advance width="1508"/>
  <unicode hex="006E"/>
  <anchor x="760" y="0" name="bottom"/>
  <anchor x="754" y="1160" name="top"/>
  <outline>
    <contour>
      <point x="224" y="1160" type="line"/>
      <point x="224" y="0" type="line"/>
      <point x="624" y="0" type="line"/>
      <point x="624" y="783" type="line"/>
      <point x="574" y="775" type="line"/>
      <point x="574" y="1160" type="line"/>
    </contour>
    <contour>
      <point x="557" y="724" type="curve"/>
      <point x="624" y="726" type="line"/>
      <point x="624" y="872"/>
      <point x="704" y="923"/>
      <point x="795" y="923" type="curve" smooth="yes"/>
      <point x="883" y="923"/>
      <point x="942" y="872"/>
      <point x="942" y="772" type="curve" smooth="yes"/>
      <point x="942" y="0" type="line"/>
      <point x="1342" y="0" type="line"/>
      <point x="1342" y="783" type="line" smooth="yes"/>
      <point x="1342" y="1064"/>
      <point x="1181" y="1187"/>
      <point x="955" y="1187" type="curve" smooth="yes"/>
      <point x="639" y="1187"/>
      <point x="557" y="1005"/>
    </contour>
  </outline>
</glyph>
<glyph name="o" format="2">
  <advance width="1510"/>
  <unicode hex="006F"/>
  <anchor x="755" y="0" name="bottom"/>
  <anchor x="1079" y="0" name="ogonek"/>
  <anchor x="755" y="1160" name="top"/>
  <anchor x="1285" y="1030" name="topright"/>
  <outline>
    <contour>
      <point x="755" y="-26" type="curve" smooth="yes"/>
      <point x="1145" y="-26"/>
      <point x="1438" y="189"/>
      <point x="1438" y="580" type="curve" smooth="yes"/>
      <point x="1438" y="970"/>
      <point x="1145" y="1186"/>
      <point x="755" y="1186" type="curve" smooth="yes"/>
      <point x="365" y="1186"/>
      <point x="72" y="970"/>
      <point x="72" y="580" type="curve" smooth="yes"/>
      <point x="72" y="189"/>
      <point x="365" y="-26"/>
    </contour>
    <contour>
      <point x="755" y="194" type="curve" smooth="yes"/>
      <point x="607" y="194"/>
      <point x="518" y="332"/>
      <point x="518" y="580" type="curve" smooth="yes"/>
      <point x="518" y="824"/>
      <point x="607" y="966"/>
      <point x="755" y="966" type="curve" smooth="yes"/>
      <point x="902" y="966"/>
      <point x="992" y="830"/>
      <point x="992" y="596" type="curve" smooth="yes"/>
      <point x="992" y="339"/>
      <point x="902" y="194"/>
    </contour>
  </outline>
</glyph>
<glyph name="q" format="2">
  <advance width="1537"/>
  <unicode hex="0071"/>
  <anchor x="768" y="0" name="bottom"/>
  <anchor x="768" y="1160" name="top"/>
  <outline>
    <contour>
      <point x="978" y="-420" type="line"/>
      <point x="1378" y="-420" type="line"/>
      <point x="1378" y="1160" type="line"/>
      <point x="1008" y="1160" type="line"/>
      <point x="1008" y="744" type="line"/>
      <point x="1025" y="581" type="line"/>
      <point x="978" y="334" type="line"/>
    </contour>
    <contour>
      <point x="607" y="-22" type="curve" smooth="yes"/>
      <point x="933" y="-22"/>
      <point x="1047" y="204"/>
      <point x="1047" y="580" type="curve"/>
      <point x="1075" y="580" type="line"/>
      <point x="1075" y="946"/>
      <point x="933" y="1182"/>
      <point x="611" y="1182" type="curve" smooth="yes"/>
      <point x="297" y="1182"/>
      <point x="72" y="966"/>
      <point x="72" y="580" type="curve" smooth="yes"/>
      <point x="72" y="194"/>
      <point x="297" y="-22"/>
    </contour>
    <contour>
      <point x="754" y="230" type="curve" smooth="yes"/>
      <point x="602" y="230"/>
      <point x="512" y="350"/>
      <point x="512" y="580" type="curve" smooth="yes"/>
      <point x="512" y="810"/>
      <point x="602" y="930"/>
      <point x="754" y="930" type="curve" smooth="yes"/>
      <point x="908" y="930"/>
      <point x="998" y="810"/>
      <point x="998" y="580" type="curve" smooth="yes"/>
      <point x="998" y="350"/>
      <point x="908" y="230"/>
    </contour>
  </outline>
</glyph>
<glyph name="r" format="2">
  <advance width="1243"/>
  <unicode hex="0072"/>
  <anchor x="456" y="0" name="bottom"/>
  <anchor x="624" y="1160" name="top"/>
  <outline>
    <contour>
      <point x="224" y="1160" type="line"/>
      <point x="224" y="0" type="line"/>
      <point x="624" y="0" type="line"/>
      <point x="624" y="769" type="line"/>
      <point x="584" y="761" type="line"/>
      <point x="584" y="1160" type="line"/>
    </contour>
    <contour>
      <point x="943" y="1192" type="curve" smooth="yes"/>
      <point x="724" y="1192"/>
      <point x="520" y="1082"/>
      <point x="514" y="719" type="curve"/>
      <point x="624" y="719" type="line"/>
      <point x="624" y="936"/>
      <point x="755" y="1025"/>
      <point x="880" y="1025" type="curve" smooth="yes"/>
      <point x="952" y="1025"/>
      <point x="997" y="1002"/>
      <point x="1013" y="961" type="curve"/>
      <point x="1035" y="1091" type="line"/>
      <point x="875" y="1103"/>
      <point x="807" y="1040"/>
      <point x="807" y="927" type="curve" smooth="yes"/>
      <point x="807" y="830"/>
      <point x="884" y="761"/>
      <point x="1001" y="761" type="curve" smooth="yes"/>
      <point x="1136" y="761"/>
      <point x="1219" y="846"/>
      <point x="1219" y="966" type="curve" smooth="yes"/>
      <point x="1219" y="1095"/>
      <point x="1109" y="1192"/>
    </contour>
  </outline>
</glyph>
<glyph name="s" format="2">
  <advance width="1270"/>
  <unicode hex="0073"/>
  <anchor x="667" y="0" name="bottom"/>
  <anchor x="601" y="1160" name="top"/>
  <outline>
    <contour>
      <point x="90" y="831" type="curve" smooth="yes"/>
      <point x="90" y="588"/>
      <point x="250" y="479"/>
      <point x="530" y="426" type="curve" smooth="yes"/>
      <point x="662" y="401" type="line" smooth="yes"/>
      <point x="761" y="382"/>
      <point x="808" y="349"/>
      <point x="808" y="290" type="curve" smooth="yes"/>
      <point x="808" y="231"/>
      <point x="756" y="196"/>
      <point x="678" y="196" type="curve" smooth="yes"/>
      <point x="597" y="196"/>
      <point x="469" y="233"/>
      <point x="370" y="380" type="curve"/>
      <point x="304" y="380" type="line"/>
      <point x="324" y="99"/>
      <point x="511" y="-26"/>
      <point x="765" y="-26" type="curve" smooth="yes"/>
      <point x="1021" y="-26"/>
      <point x="1190" y="99"/>
      <point x="1190" y="348" type="curve" smooth="yes"/>
      <point x="1190" y="588"/>
      <point x="1014" y="693"/>
      <point x="742" y="745" type="curve" smooth="yes"/>
      <point x="610" y="770" type="line" smooth="yes"/>
      <point x="507" y="790"/>
      <point x="462" y="824"/>
      <point x="462" y="879" type="curve" smooth="yes"/>
      <point x="462" y="934"/>
      <point x="514" y="964"/>
      <point x="583" y="964" type="curve" smooth="yes"/>
      <point x="654" y="964"/>
      <point x="784" y="932"/>
      <point x="872" y="800" type="curve"/>
      <point x="934" y="800" type="line"/>
      <point x="914" y="1074"/>
      <point x="725" y="1186"/>
      <point x="496" y="1186" type="curve" smooth="yes"/>
      <point x="262" y="1186"/>
      <point x="90" y="1074"/>
    </contour>
    <contour>
      <point x="1120" y="1160" type="line"/>
      <point x="878" y="1160" type="line"/>
      <point x="878" y="912" type="line"/>
      <point x="934" y="800" type="line"/>
      <point x="1120" y="800" type="line"/>
    </contour>
    <contour>
      <point x="122" y="0" type="line"/>
      <point x="364" y="0" type="line"/>
      <point x="364" y="259" type="line"/>
      <point x="304" y="380" type="line"/>
      <point x="122" y="380" type="line"/>
    </contour>
  </outline>
</glyph>
<glyph name="t" format="2">
  <advance width="1180"/>
  <unicode hex="0074"/>
  <anchor x="588" y="0" name="bottom"/>
  <anchor x="558" y="580" name="center"/>
  <anchor x="558" y="1160" name="top"/>
  <anchor x="630" y="1726" name="topright"/>
  <outline>
    <contour>
      <point x="376" y="1460" type="line"/>
      <point x="376" y="1452" type="line" smooth="yes"/>
      <point x="376" y="1236"/>
      <point x="290" y="1142"/>
      <point x="2" y="1142" type="curve" smooth="yes"/>
      <point x="-18" y="1142" type="line"/>
      <point x="-18" y="930" type="line"/>
      <point x="260" y="930" type="line"/>
      <point x="230" y="425" type="line" smooth="yes"/>
      <point x="213" y="146"/>
      <point x="368" y="-24"/>
      <point x="667" y="-24" type="curve" smooth="yes"/>
      <point x="966" y="-24"/>
      <point x="1104" y="146"/>
      <point x="1104" y="405" type="curve" smooth="yes"/>
      <point x="1104" y="634" type="line"/>
      <point x="854" y="634" type="line"/>
      <point x="854" y="409" type="line" smooth="yes"/>
      <point x="854" y="333"/>
      <point x="818" y="286"/>
      <point x="742" y="286" type="curve" smooth="yes"/>
      <point x="668" y="286"/>
      <point x="630" y="335"/>
      <point x="630" y="409" type="curve" smooth="yes"/>
      <point x="630" y="1460" type="line"/>
    </contour>
    <contour>
      <point x="630" y="1160" type="line"/>
      <point x="630" y="930" type="line"/>
      <point x="1124" y="930" type="line"/>
      <point x="1124" y="1160" type="line"/>
    </contour>
  </outline>
</glyph>
<glyph name="u" format="2">
  <advance width="1485"/>
  <unicode hex="0075"/>
  <anchor x="754" y="0" name="bottom"/>
  <anchor x="1240" y="0" name="ogonek"/>
  <anchor x="728" y="1160" name="top"/>
  <anchor x="1292" y="1160" name="topright"/>
  <outline>
    <contour>
      <point x="1300" y="0" type="line"/>
      <point x="1300" y="1160" type="line"/>
      <point x="900" y="1160" type="line"/>
      <point x="900" y="368" type="line"/>
      <point x="950" y="376" type="line"/>
      <point x="950" y="0" type="line"/>
    </contour>
    <contour>
      <point x="967" y="437" type="curve"/>
      <point x="900" y="435" type="line"/>
      <point x="900" y="289"/>
      <point x="820" y="238"/>
      <point x="729" y="238" type="curve" smooth="yes"/>
      <point x="641" y="238"/>
      <point x="582" y="289"/>
      <point x="582" y="389" type="curve" smooth="yes"/>
      <point x="582" y="1160" type="line"/>
      <point x="182" y="1160" type="line"/>
      <point x="182" y="378" type="line" smooth="yes"/>
      <point x="182" y="97"/>
      <point x="343" y="-26"/>
      <point x="569" y="-26" type="curve" smooth="yes"/>
      <point x="885" y="-26"/>
      <point x="967" y="156"/>
    </contour>
  </outline>
</glyph>
<glyph name="v" format="2">
  <advance width="1398"/>
  <unicode hex="0076"/>
  <anchor x="699" y="0" name="bottom"/>
  <anchor x="699" y="1160" name="top"/>
  <outline>
    <contour>
      <point x="36" y="1160" type="line"/>
      <point x="532" y="0" type="line"/>
      <point x="866" y="0" type="line"/>
      <point x="1362" y="1160" type="line"/>
      <point x="1081" y="1160" type="line"/>
      <point x="706" y="272" type="line"/>
      <point x="821" y="270" type="line"/>
      <point x="471" y="1160" type="line"/>
    </contour>
  </outline>
</glyph>
<glyph name="w" format="2">
  <advance width="2065"/>
  <unicode hex="0077"/>
  <anchor x="1033" y="0" name="bottom"/>
  <anchor x="1033" y="1160" name="top"/>
  <outline>
    <contour>
      <point x="770" y="1160" type="line"/>
      <point x="1236" y="0" type="line"/>
      <point x="1561" y="0" type="line"/>
      <point x="2027" y="1160" type="line"/>
      <point x="1749" y="1160" type="line"/>
      <point x="1397" y="272" type="line"/>
      <point x="1506" y="270" type="line"/>
      <point x="1175" y="1160" type="line"/>
    </contour>
    <contour>
      <point x="38" y="1160" type="line"/>
      <point x="504" y="0" type="line"/>
      <point x="832" y="0" type="line"/>
      <point x="1098" y="663" type="line"/>
      <point x="979" y="1018" type="line"/>
      <point x="683" y="272" type="line"/>
      <point x="792" y="270" type="line"/>
      <point x="461" y="1160" type="line"/>
    </contour>
  </outline>
</glyph>
<glyph name="x" format="2">
  <advance width="1431"/>
  <unicode hex="0078"/>
  <anchor x="716" y="0" name="bottom"/>
  <anchor x="716" y="1160" name="top"/>
  <outline>
    <contour>
      <point x="-18" y="1160" type="line"/>
      <point x="515" y="510" type="line"/>
      <point x="872" y="510" type="line"/>
      <point x="1440" y="1160" type="line"/>
      <point x="1108" y="1160" type="line"/>
      <point x="705" y="688" type="line"/>
      <point x="832" y="688" type="line"/>
      <point x="454" y="1160" type="line"/>
    </contour>
    <contour>
      <point x="1454" y="0" type="line"/>
      <point x="903" y="664" type="line"/>
      <point x="552" y="664" type="line"/>
      <point x="-28" y="0" type="line"/>
      <point x="304" y="0" type="line"/>
      <point x="719" y="486" type="line"/>
      <point x="592" y="486" type="line"/>
      <point x="981" y="0" type="line"/>
    </contour>
  </outline>
</glyph>
<glyph name="y" format="2">
  <advance width="1410"/>
  <unicode hex="0079"/>
  <anchor x="1099" y="0" name="bottom"/>
  <anchor x="773" y="1160" name="top"/>
  <outline>
    <contour>
      <point x="42" y="1160" type="line"/>
      <point x="632" y="-221" type="line"/>
      <point x="830" y="270" type="line"/>
      <point x="477" y="1160" type="line"/>
    </contour>
    <contour>
      <point x="1368" y="1160" type="line"/>
      <point x="1079" y="1160" type="line"/>
      <point x="704" y="272" type="line"/>
      <point x="670" y="216" type="line"/>
      <point x="537" y="-98" type="line" smooth="yes"/>
      <point x="501" y="-183"/>
      <point x="456" y="-244"/>
      <point x="379" y="-244" type="curve"/>
      <point x="363" y="-440" type="line"/>
      <point x="609" y="-440"/>
      <point x="739" y="-310"/>
      <point x="857" y="-35" type="curve" smooth="yes"/>
    </contour>
    <contour>
      <point x="363" y="-440" type="curve"/>
      <point x="379" y="-244" type="line"/>
      <point x="313" y="-244"/>
      <point x="271" y="-217"/>
      <point x="248" y="-185" type="curve"/>
      <point x="239" y="-258" type="line"/>
      <point x="335" y="-269"/>
      <point x="432" y="-237"/>
      <point x="432" y="-135" type="curve" smooth="yes"/>
      <point x="432" y="-44"/>
      <point x="351" y="0"/>
      <point x="257" y="0" type="curve" smooth="yes"/>
      <point x="113" y="0"/>
      <point x="35" y="-92"/>
      <point x="35" y="-198" type="curve" smooth="yes"/>
      <point x="35" y="-344"/>
      <point x="167" y="-440"/>
    </contour>
  </outline>
</glyph>
<glyph name="z" format="2">
  <advance width="1284"/>
  <unicode hex="007A"/>
  <anchor x="640" y="0" name="bottom"/>
  <anchor x="640" y="580" name="center"/>
  <anchor x="657" y="1160" name="top"/>
  <outline>
    <contour>
      <point x="134" y="1160" type="line"/>
      <point x="134" y="950" type="line"/>
      <point x="685" y="950" type="line"/>
      <point x="1180" y="970" type="line"/>
      <point x="1180" y="1160" type="line"/>
    </contour>
    <contour>
      <point x="86" y="190" type="line"/>
      <point x="86" y="0" type="line"/>
      <point x="1166" y="0" type="line"/>
      <point x="1166" y="210" type="line"/>
      <point x="581" y="210" type="line"/>
    </contour>
    <contour>
      <point x="86" y="190" type="line"/>
      <point x="581" y="210" type="line"/>
      <point x="1180" y="970" type="line"/>
      <point x="685" y="950" type="line"/>
    </contour>
    <contour>
      <point x="542" y="950" type="curve"/>
      <point x="134" y="950" type="line"/>
      <point x="134" y="700" type="line"/>
      <point x="362" y="700" type="line"/>
      <point x="362" y="750" type="line" smooth="yes"/>
      <point x="362" y="900"/>
      <point x="402" y="950"/>
    </contour>
    <contour>
      <point x="758" y="210" type="curve"/>
      <point x="1166" y="210" type="line"/>
      <point x="1166" y="480" type="line"/>
      <point x="938" y="480" type="line"/>
      <point x="938" y="410" type="line" smooth="yes"/>
      <point x="938" y="260"/>
      <point x="898" y="210"/>
    </contour>
  </outline>
</glyph>
<glyph name="braceleft" format="2">
  <advance width="938"/>
  <unicode hex="007B"/>
  <outline>
    <contour>
      <point x="894" y="1680" type="line"/>
      <point x="734" y="1680" type="line" smooth="yes"/>
      <point x="414" y="1680"/>
      <point x="246" y="1539"/>
      <point x="254" y="1194" type="curve" smooth="yes"/>
      <point x="260" y="927" type="line" smooth="yes"/>
      <point x="263" y="810"/>
      <point x="214" y="738"/>
      <point x="36" y="738" type="curve"/>
      <point x="36" y="630" type="line"/>
      <point x="298" y="630" type="line"/>
      <point x="534" y="651"/>
      <point x="664" y="735"/>
      <point x="664" y="1017" type="curve" smooth="yes"/>
      <point x="664" y="1228" type="line" smooth="yes"/>
      <point x="664" y="1394"/>
      <point x="739" y="1468"/>
      <point x="894" y="1468" type="curve"/>
    </contour>
    <contour>
      <point x="894" y="-420" type="line"/>
      <point x="894" y="-208" type="line"/>
      <point x="739" y="-208"/>
      <point x="664" y="-134"/>
      <point x="664" y="32" type="curve" smooth="yes"/>
      <point x="664" y="243" type="line" smooth="yes"/>
      <point x="664" y="525"/>
      <point x="534" y="609"/>
      <point x="298" y="630" type="curve"/>
      <point x="36" y="630" type="line"/>
      <point x="36" y="522" type="line"/>
      <point x="214" y="522"/>
      <point x="263" y="450"/>
      <point x="260" y="333" type="curve" smooth="yes"/>
      <point x="254" y="66" type="line" smooth="yes"/>
      <point x="246" y="-279"/>
      <point x="414" y="-420"/>
      <point x="734" y="-420" type="curve" smooth="yes"/>
    </contour>
  </outline>
</glyph>
<glyph name="bar" format="2">
  <advance width="532"/>
  <unicode hex="007C"/>
  <outline>
    <contour>
      <point x="136" y="1580" type="line"/>
      <point x="136" y="-440" type="line"/>
      <point x="396" y="-440" type="line"/>
      <point x="396" y="1580" type="line"/>
    </contour>
  </outline>
</glyph>
<glyph name="cent" format="2">
  <advance width="1316"/>
  <unicode hex="00A2"/>
  <outline>
    <contour>
      <point x="1248" y="637" type="curve"/>
      <point x="1020" y="637" type="line"/>
      <point x="998" y="530"/>
      <point x="914" y="446"/>
      <point x="780" y="446" type="curve" smooth="yes"/>
      <point x="582" y="446"/>
      <point x="471" y="598"/>
      <point x="471" y="811" type="curve" smooth="yes"/>
      <point x="471" y="1018"/>
      <point x="583" y="1160"/>
      <point x="766" y="1160" type="curve"/>
      <point x="713" y="1358" type="line"/>
      <point x="340" y="1358"/>
      <point x="72" y="1143"/>
      <point x="72" y="753" type="curve" smooth="yes"/>
      <point x="72" y="362"/>
      <point x="335" y="146"/>
      <point x="703" y="146" type="curve" smooth="yes"/>
      <point x="1039" y="146"/>
      <point x="1241" y="365"/>
    </contour>
    <contour>
      <point x="713" y="1358" type="curve"/>
      <point x="766" y="1160" type="line"/>
      <point x="899" y="1160"/>
      <point x="976" y="1117"/>
      <point x="1056" y="1006" type="curve"/>
      <point x="1071" y="1112" type="line"/>
      <point x="992" y="1122"/>
      <point x="925" y="1072"/>
      <point x="925" y="974" type="curve" smooth="yes"/>
      <point x="925" y="899"/>
      <point x="987" y="841"/>
      <point x="1083" y="841" type="curve" smooth="yes"/>
      <point x="1172" y="841"/>
      <point x="1240" y="899"/>
      <point x="1240" y="1002" type="curve" smooth="yes"/>
      <point x="1240" y="1184"/>
      <point x="1028" y="1358"/>
    </contour>
    <contour>
      <point x="638" y="1500" type="line"/>
      <point x="638" y="0" type="line"/>
      <point x="850" y="0" type="line"/>
      <point x="850" y="1500" type="line"/>
    </contour>
  </outline>
</glyph>
<glyph name="yen" format="2">
  <advance width="1752"/>
  <unicode hex="00A5"/>
  <outline>
    <contour>
      <point x="176" y="618" type="line"/>
      <point x="176" y="388" type="line"/>
      <point x="1576" y="388" type="line"/>
      <point x="1576" y="618" type="line"/>
    </contour>
    <contour>
      <point x="1146" y="768" type="line"/>
      <point x="1576" y="768" type="line"/>
      <point x="1576" y="998" type="line"/>
      <point x="1303" y="998" type="line"/>
    </contour>
    <contour>
      <point x="452" y="998" type="line"/>
      <point x="176" y="998" type="line"/>
      <point x="176" y="768" type="line"/>
      <point x="608" y="768" type="line"/>
    </contour>
    <component base="Y"/>
  </outline>
</glyph>
<glyph name="brokenbar" format="2">
  <advance width="532"/>
  <unicode hex="00A6"/>
  <outline>
    <contour>
      <point x="136" y="1580" type="line"/>
      <point x="136" y="790" type="line"/>
      <point x="396" y="790" type="line"/>
      <point x="396" y="1580" type="line"/>
    </contour>
    <contour>
      <point x="136" y="350" type="line"/>
      <point x="136" y="-440" type="line"/>
      <point x="396" y="-440" type="line"/>
      <point x="396" y="350" type="line"/>
    </contour>
  </outline>
</glyph>
<glyph name="degree" format="2">
  <advance width="1034"/>
  <unicode hex="00B0"/>
  <outline>
    <contour>
      <point x="517" y="780" type="curve" smooth="yes"/>
      <point x="777" y="780"/>
      <point x="962" y="917"/>
      <point x="962" y="1150" type="curve" smooth="yes"/>
      <point x="962" y="1383"/>
      <point x="777" y="1522"/>
      <point x="517" y="1522" type="curve" smooth="yes"/>
      <point x="257" y="1522"/>
      <point x="72" y="1384"/>
      <point x="72" y="1151" type="curve" smooth="yes"/>
      <point x="72" y="917"/>
      <point x="257" y="780"/>
    </contour>
    <contour>
      <point x="517" y="970" type="curve" smooth="yes"/>
      <point x="431" y="970"/>
      <point x="379" y="1032"/>
      <point x="379" y="1151" type="curve" smooth="yes"/>
      <point x="379" y="1267"/>
      <point x="431" y="1332"/>
      <point x="517" y="1332" type="curve" smooth="yes"/>
      <point x="603" y="1332"/>
      <point x="655" y="1270"/>
      <point x="655" y="1160" type="curve" smooth="yes"/>
      <point x="655" y="1036"/>
      <point x="603" y="970"/>
    </contour>
  </outline>
</glyph>
<glyph name="periodcentered" format="2">
  <advance width="592"/>
  <unicode hex="00B7"/>
  <outline>
    <contour>
      <point x="296" y="411" type="curve" smooth="yes"/>
      <point x="425" y="411"/>
      <point x="512" y="494"/>
      <point x="512" y="625" type="curve" smooth="yes"/>
      <point x="512" y="755"/>
      <point x="425" y="839"/>
      <point x="296" y="839" type="curve" smooth="yes"/>
      <point x="167" y="839"/>
      <point x="80" y="755"/>
      <point x="80" y="625" type="curve" smooth="yes"/>
      <point x="80" y="494"/>
      <point x="167" y="411"/>
    </contour>
  </outline>
</glyph>
<glyph name="guillemetright" format="2">
  <advance width="1074"/>
  <unicode hex="00BB"/>
  <outline>
    <contour>
      <point x="76" y="1025" type="line"/>
      <point x="296" y="1025" type="line"/>
      <point x="558" y="605" type="line"/>
      <point x="296" y="185" type="line"/>
      <point x="76" y="185" type="line"/>
      <point x="217" y="605" type="line"/>
    </contour>
    <contour>
      <point x="492" y="1025" type="line"/>
      <point x="718" y="1025" type="line"/>
      <point x="1036" y="605" type="line"/>
      <point x="718" y="185" type="line"/>
      <point x="492" y="185" type="line"/>
      <point x="695" y="605" type="line"/>
    </contour>
  </outline>
</glyph>
<glyph name="AE" format="2">
  <advance width="2458"/>
  <unicode hex="00C6"/>
  <anchor x="1329" y="1500" name="top"/>
  <outline>
    <contour>
      <point x="63" y="0" type="line"/>
      <point x="369" y="0" type="line"/>
      <point x="1289" y="1500" type="line"/>
      <point x="990" y="1500" type="line"/>
    </contour>
    <contour>
      <point x="1119" y="425" type="line"/>
      <point x="1119" y="649" type="line"/>
      <point x="551" y="649" type="line"/>
      <point x="551" y="425" type="line"/>
    </contour>
    <contour>
      <point x="2363" y="0" type="line"/>
      <point x="2363" y="224" type="line"/>
      <point x="1539" y="224" type="line"/>
      <point x="1539" y="0" type="line"/>
    </contour>
    <contour>
      <point x="2345" y="1276" type="line"/>
      <point x="2345" y="1500" type="line"/>
      <point x="1539" y="1500" type="line"/>
      <point x="1539" y="1276" type="line"/>
    </contour>
    <contour>
      <point x="1539" y="0" type="line"/>
      <point x="1539" y="1500" type="line"/>
      <point x="1119" y="1500" type="line"/>
      <point x="1119" y="0" type="line"/>
    </contour>
    <contour>
      <point x="1944" y="662" type="line"/>
      <point x="1944" y="882" type="line"/>
      <point x="1539" y="882" type="line"/>
      <point x="1539" y="662" type="line"/>
    </contour>
    <contour>
      <point x="1893" y="1276" type="line"/>
      <point x="2053" y="1276"/>
      <point x="2113" y="1206"/>
      <point x="2113" y="1036" type="curve" smooth="yes"/>
      <point x="2113" y="960" type="line"/>
      <point x="2345" y="960" type="line"/>
      <point x="2345" y="1276" type="line"/>
    </contour>
    <contour>
      <point x="1911" y="224" type="curve"/>
      <point x="2363" y="224" type="line"/>
      <point x="2363" y="560" type="line"/>
      <point x="2131" y="560" type="line"/>
      <point x="2131" y="464" type="line" smooth="yes"/>
      <point x="2131" y="294"/>
      <point x="2071" y="224"/>
    </contour>
    <contour>
      <point x="1548" y="882" type="curve"/>
      <point x="1944" y="882" type="line"/>
      <point x="1944" y="1136" type="line"/>
      <point x="1720" y="1136" type="line"/>
      <point x="1720" y="1112" type="line" smooth="yes"/>
      <point x="1720" y="952"/>
      <point x="1666" y="882"/>
    </contour>
    <contour>
      <point x="1548" y="662" type="line"/>
      <point x="1666" y="662"/>
      <point x="1720" y="592"/>
      <point x="1720" y="432" type="curve" smooth="yes"/>
      <point x="1720" y="364" type="line"/>
      <point x="1944" y="364" type="line"/>
      <point x="1944" y="662" type="line"/>
    </contour>
  </outline>
</glyph>
<glyph name="Thorn" format="2">
  <advance width="1585"/>
  <unicode hex="00DE"/>
  <outline>
    <contour>
      <point x="658" y="1501" type="line"/>
      <point x="238" y="1501" type="line"/>
      <point x="238" y="0" type="line"/>
      <point x="658" y="0" type="line"/>
    </contour>
    <contour>
      <point x="658" y="1163" type="line"/>
      <point x="658" y="939" type="line"/>
      <point x="904" y="939" type="line" smooth="yes"/>
      <point x="1040" y="939"/>
      <point x="1123" y="879"/>
      <point x="1123" y="752" type="curve" smooth="yes"/>
      <point x="1123" y="625"/>
      <point x="1040" y="565"/>
      <point x="904" y="565" type="curve" smooth="yes"/>
      <point x="658" y="565" type="line"/>
      <point x="658" y="341" type="line"/>
      <point x="1040" y="341" type="line" smooth="yes"/>
      <point x="1349" y="341"/>
      <point x="1553" y="479"/>
      <point x="1553" y="752" type="curve" smooth="yes"/>
      <point x="1553" y="1025"/>
      <point x="1349" y="1163"/>
      <point x="1040" y="1163" type="curve" smooth="yes"/>
    </contour>
  </outline>
</glyph>
<glyph name="ae" format="2">
  <advance width="1992"/>
  <unicode hex="00E6"/>
  <anchor x="996" y="1160" name="top"/>
  <outline>
    <contour>
      <point x="1906" y="440" type="curve"/>
      <point x="1654" y="440" type="line"/>
      <point x="1625" y="341"/>
      <point x="1560" y="267"/>
      <point x="1431" y="267" type="curve" smooth="yes"/>
      <point x="1274" y="267"/>
      <point x="1176" y="399"/>
      <point x="1176" y="610" type="curve" smooth="yes"/>
      <point x="1176" y="873"/>
      <point x="1245" y="970"/>
      <point x="1367" y="970" type="curve"/>
      <point x="1375" y="1186" type="line"/>
      <point x="1055" y="1186"/>
      <point x="824" y="970"/>
      <point x="824" y="580" type="curve" smooth="yes"/>
      <point x="824" y="189"/>
      <point x="1063" y="-26"/>
      <point x="1401" y="-26" type="curve" smooth="yes"/>
      <point x="1728" y="-26"/>
      <point x="1892" y="205"/>
    </contour>
    <contour>
      <point x="1526" y="758" type="curve"/>
      <point x="1920" y="637" type="line"/>
      <point x="1920" y="964"/>
      <point x="1719" y="1186"/>
      <point x="1375" y="1186" type="curve"/>
      <point x="1367" y="970" type="line"/>
      <point x="1471" y="970"/>
      <point x="1523" y="873"/>
    </contour>
    <contour>
      <point x="964" y="758" type="line"/>
      <point x="964" y="560" type="line"/>
      <point x="1920" y="560" type="line"/>
      <point x="1920" y="637" type="line"/>
      <point x="1526" y="758" type="line"/>
    </contour>
    <contour>
      <point x="624" y="531" type="curve" smooth="yes"/>
      <point x="660" y="546" type="line" smooth="yes"/>
      <point x="723" y="572"/>
      <point x="762" y="606"/>
      <point x="784" y="651" type="curve"/>
      <point x="794" y="651" type="line"/>
      <point x="788" y="854" type="line"/>
      <point x="788" y="760"/>
      <point x="728" y="724"/>
      <point x="615" y="693" type="curve" smooth="yes"/>
      <point x="421" y="640" type="line" smooth="yes"/>
      <point x="214" y="583"/>
      <point x="76" y="495"/>
      <point x="76" y="290" type="curve" smooth="yes"/>
      <point x="76" y="106"/>
      <point x="225" y="-26"/>
      <point x="472" y="-26" type="curve" smooth="yes"/>
      <point x="725" y="-26"/>
      <point x="882" y="109"/>
      <point x="892" y="353" type="curve"/>
      <point x="784" y="463" type="line"/>
      <point x="784" y="309"/>
      <point x="696" y="258"/>
      <point x="614" y="258" type="curve" smooth="yes"/>
      <point x="542" y="258"/>
      <point x="486" y="299"/>
      <point x="486" y="376" type="curve" smooth="yes"/>
      <point x="486" y="453"/>
      <point x="531" y="492"/>
    </contour>
    <contour>
      <point x="788" y="853" type="line"/>
      <point x="788" y="752" type="line"/>
      <point x="774" y="651" type="line"/>
      <point x="784" y="651" type="line"/>
      <point x="784" y="378" type="line"/>
      <point x="849" y="378" type="line"/>
      <point x="1090" y="332" type="line"/>
      <point x="1090" y="759" type="line"/>
    </contour>
    <contour>
      <point x="128" y="914" type="curve" smooth="yes"/>
      <point x="128" y="786"/>
      <point x="238" y="726"/>
      <point x="359" y="726" type="curve" smooth="yes"/>
      <point x="482" y="726"/>
      <point x="553" y="792"/>
      <point x="555" y="884" type="curve" smooth="yes"/>
      <point x="557" y="981"/>
      <point x="478" y="1023"/>
      <point x="349" y="1030" type="curve"/>
      <point x="339" y="847" type="line"/>
      <point x="386" y="939"/>
      <point x="481" y="1006"/>
      <point x="600" y="1006" type="curve" smooth="yes"/>
      <point x="708" y="1006"/>
      <point x="788" y="957"/>
      <point x="788" y="853" type="curve"/>
      <point x="1090" y="759" type="line"/>
      <point x="1093" y="1043"/>
      <point x="932" y="1186"/>
      <point x="623" y="1186" type="curve" smooth="yes"/>
      <point x="369" y="1186"/>
      <point x="128" y="1091"/>
    </contour>
  </outline>
</glyph>
<glyph name="eth" format="2">
  <advance width="1480"/>
  <unicode hex="00F0"/>
  <outline>
    <contour>
      <point x="1034" y="546" type="line"/>
      <point x="1034" y="949"/>
      <point x="855" y="1086"/>
      <point x="582" y="1086" type="curve" smooth="yes"/>
      <point x="301" y="1086"/>
      <point x="72" y="894"/>
      <point x="72" y="548" type="curve" smooth="yes"/>
      <point x="72" y="178"/>
      <point x="356" y="-26"/>
      <point x="735" y="-26" type="curve" smooth="yes"/>
      <point x="1139" y="-26"/>
      <point x="1408" y="210"/>
      <point x="1408" y="640" type="curve" smooth="yes"/>
      <point x="1408" y="1076"/>
      <point x="1100" y="1493"/>
      <point x="664" y="1736" type="curve"/>
      <point x="541" y="1572" type="line"/>
      <point x="816" y="1340"/>
      <point x="993" y="995"/>
      <point x="990" y="546" type="curve"/>
      <point x="972" y="546" type="line"/>
      <point x="972" y="321"/>
      <point x="886" y="194"/>
      <point x="745" y="194" type="curve" smooth="yes"/>
      <point x="603" y="194"/>
      <point x="518" y="314"/>
      <point x="518" y="530" type="curve" smooth="yes"/>
      <point x="518" y="742"/>
      <point x="603" y="866"/>
      <point x="745" y="866" type="curve" smooth="yes"/>
      <point x="887" y="866"/>
      <point x="972" y="761"/>
      <point x="972" y="546" type="curve"/>
    </contour>
    <contour>
      <point x="1380" y="1290" type="line"/>
      <point x="1380" y="1504" type="line"/>
      <point x="462" y="1380" type="line"/>
      <point x="462" y="1166" type="line"/>
    </contour>
  </outline>
</glyph>
<glyph name="thorn" format="2">
  <advance width="1572"/>
  <unicode hex="00FE"/>
  <outline>
    <contour>
      <point x="594" y="-420" type="line"/>
      <point x="594" y="334" type="line"/>
      <point x="539" y="581" type="line"/>
      <point x="594" y="875" type="line"/>
      <point x="594" y="1580" type="line"/>
      <point x="194" y="1580" type="line"/>
      <point x="194" y="-420" type="line"/>
    </contour>
    <contour>
      <point x="965" y="-22" type="curve" smooth="yes"/>
      <point x="1275" y="-22"/>
      <point x="1500" y="204"/>
      <point x="1500" y="580" type="curve" smooth="yes"/>
      <point x="1500" y="956"/>
      <point x="1275" y="1182"/>
      <point x="961" y="1182" type="curve" smooth="yes"/>
      <point x="639" y="1182"/>
      <point x="497" y="956"/>
      <point x="497" y="580" type="curve"/>
      <point x="525" y="580" type="line"/>
      <point x="525" y="194"/>
      <point x="639" y="-22"/>
    </contour>
    <contour>
      <point x="818" y="230" type="curve" smooth="yes"/>
      <point x="664" y="230"/>
      <point x="574" y="350"/>
      <point x="574" y="580" type="curve" smooth="yes"/>
      <point x="574" y="810"/>
      <point x="664" y="930"/>
      <point x="818" y="930" type="curve" smooth="yes"/>
      <point x="970" y="930"/>
      <point x="1060" y="810"/>
      <point x="1060" y="580" type="curve" smooth="yes"/>
      <point x="1060" y="350"/>
      <point x="970" y="230"/>
    </contour>
  </outline>
</glyph>
<glyph name="dcroat" format="2">
  <advance width="1563"/>
  <unicode hex="0111"/>
  <anchor x="833" y="0" name="bottom"/>
  <outline>
    <contour>
      <point x="1378" y="0" type="line"/>
      <point x="1378" y="1580" type="line"/>
      <point x="978" y="1580" type="line"/>
      <point x="978" y="838" type="line"/>
      <point x="1040" y="581" type="line"/>
      <point x="1008" y="280" type="line"/>
      <point x="1008" y="0" type="line"/>
    </contour>
    <contour>
      <point x="607" y="1162" type="curve" smooth="yes"/>
      <point x="297" y="1162"/>
      <point x="72" y="940"/>
      <point x="72" y="570" type="curve" smooth="yes"/>
      <point x="72" y="200"/>
      <point x="297" y="-22"/>
      <point x="611" y="-22" type="curve" smooth="yes"/>
      <point x="933" y="-22"/>
      <point x="1075" y="210"/>
      <point x="1075" y="570" type="curve"/>
      <point x="1047" y="570" type="line"/>
      <point x="1047" y="940"/>
      <point x="933" y="1162"/>
    </contour>
    <contour>
      <point x="754" y="910" type="curve" smooth="yes"/>
      <point x="908" y="910"/>
      <point x="998" y="793"/>
      <point x="998" y="570" type="curve" smooth="yes"/>
      <point x="998" y="347"/>
      <point x="908" y="230"/>
      <point x="754" y="230" type="curve" smooth="yes"/>
      <point x="602" y="230"/>
      <point x="512" y="347"/>
      <point x="512" y="570" type="curve" smooth="yes"/>
      <point x="512" y="793"/>
      <point x="602" y="910"/>
    </contour>
    <contour>
      <point x="709" y="1450" type="line"/>
      <point x="709" y="1272" type="line"/>
      <point x="1519" y="1272" type="line"/>
      <point x="1519" y="1450" type="line"/>
    </contour>
  </outline>
</glyph>
<glyph name="idotless" format="2">
  <advance width="803"/>
  <unicode hex="0131"/>
  <anchor x="411" y="0" name="bottom"/>
  <anchor x="624" y="0" name="ogonek"/>
  <anchor x="410" y="1160" name="top"/>
  <outline>
    <contour>
      <point x="224" y="1160" type="line"/>
      <point x="224" y="0" type="line"/>
      <point x="624" y="0" type="line"/>
      <point x="624" y="1160" type="line"/>
    </contour>
  </outline>
</glyph>
<glyph name="kgreenlandic" format="2">
  <advance width="1534"/>
  <unicode hex="0138"/>
  <outline>
    <contour>
      <point x="225" y="1160" type="line"/>
      <point x="224" y="0" type="line"/>
      <point x="624" y="0" type="line"/>
      <point x="625" y="1160" type="line"/>
    </contour>
    <contour>
      <point x="1545" y="1160" type="line"/>
      <point x="1191" y="1160" type="line"/>
      <point x="446" y="482" type="line"/>
      <point x="604" y="318" type="line"/>
    </contour>
    <contour>
      <point x="1523" y="0" type="line"/>
      <point x="963" y="799" type="line"/>
      <point x="690" y="553" type="line"/>
      <point x="1057" y="0" type="line"/>
    </contour>
  </outline>
</glyph>
<glyph name="Eng" format="2">
  <advance width="1772"/>
  <unicode hex="014A"/>
  <outline>
    <contour>
      <point x="487" y="0" type="line"/>
      <point x="487" y="949" type="line"/>
      <point x="567" y="1500" type="line"/>
      <point x="227" y="1500" type="line"/>
      <point x="227" y="0" type="line"/>
    </contour>
    <contour>
      <point x="1298" y="642" type="line"/>
      <point x="567" y="1500" type="line"/>
      <point x="487" y="949" type="line"/>
      <point x="1319" y="-27" type="line"/>
    </contour>
    <contour>
      <point x="1558" y="-56" type="line"/>
      <point x="1558" y="1500" type="line"/>
      <point x="1298" y="1500" type="line"/>
      <point x="1298" y="642" type="line"/>
      <point x="1298" y="-115" type="line"/>
    </contour>
    <contour>
      <point x="1152" y="-452" type="line"/>
      <point x="1366" y="-452"/>
      <point x="1558" y="-362"/>
      <point x="1558" y="-56" type="curve"/>
      <point x="1298" y="-115" type="line"/>
      <point x="1298" y="-235"/>
      <point x="1240" y="-282"/>
      <point x="1144" y="-282" type="curve"/>
    </contour>
    <contour>
      <point x="1152" y="-452" type="curve"/>
      <point x="1144" y="-282" type="line"/>
      <point x="1092" y="-282"/>
      <point x="1054" y="-253"/>
      <point x="1033" y="-219" type="curve"/>
      <point x="1004" y="-320" type="line"/>
      <point x="1125" y="-320"/>
      <point x="1217" y="-296"/>
      <point x="1217" y="-180" type="curve" smooth="yes"/>
      <point x="1217" y="-86"/>
      <point x="1132" y="-40"/>
      <point x="1032" y="-40" type="curve" smooth="yes"/>
      <point x="894" y="-40"/>
      <point x="820" y="-122"/>
      <point x="820" y="-216" type="curve" smooth="yes"/>
      <point x="820" y="-358"/>
      <point x="957" y="-452"/>
    </contour>
  </outline>
</glyph>
<glyph name="eng" format="2">
  <advance width="1492"/>
  <unicode hex="014B"/>
  <outline>
    <contour>
      <point x="224" y="1161" type="line"/>
      <point x="224" y="0" type="line"/>
      <point x="624" y="0" type="line"/>
      <point x="624" y="783" type="line"/>
      <point x="574" y="775" type="line"/>
      <point x="574" y="1161" type="line"/>
    </contour>
    <contour>
      <point x="557" y="724" type="curve"/>
      <point x="624" y="726" type="line"/>
      <point x="624" y="872"/>
      <point x="704" y="923"/>
      <point x="795" y="923" type="curve" smooth="yes"/>
      <point x="883" y="923"/>
      <point x="942" y="872"/>
      <point x="942" y="772" type="curve" smooth="yes"/>
      <point x="942" y="-115" type="line"/>
      <point x="1342" y="54" type="line"/>
      <point x="1342" y="783" type="line" smooth="yes"/>
      <point x="1342" y="1064"/>
      <point x="1181" y="1187"/>
      <point x="955" y="1187" type="curve" smooth="yes"/>
      <point x="639" y="1187"/>
      <point x="557" y="1005"/>
    </contour>
    <contour>
      <point x="826" y="-452" type="line"/>
      <point x="1100" y="-452"/>
      <point x="1342" y="-295"/>
      <point x="1342" y="54" type="curve"/>
      <point x="942" y="-115" type="line"/>
      <point x="942" y="-235"/>
      <point x="884" y="-282"/>
      <point x="788" y="-282" type="curve"/>
    </contour>
    <contour>
      <point x="826" y="-452" type="curve"/>
      <point x="788" y="-282" type="line"/>
      <point x="736" y="-282"/>
      <point x="698" y="-253"/>
      <point x="677" y="-219" type="curve"/>
      <point x="648" y="-320" type="line"/>
      <point x="769" y="-320"/>
      <point x="861" y="-296"/>
      <point x="861" y="-180" type="curve" smooth="yes"/>
      <point x="861" y="-86"/>
      <point x="776" y="-40"/>
      <point x="676" y="-40" type="curve" smooth="yes"/>
      <point x="538" y="-40"/>
      <point x="464" y="-122"/>
      <point x="464" y="-216" type="curve" smooth="yes"/>
      <point x="464" y="-358"/>
      <point x="613" y="-452"/>
    </contour>
  </outline>
</glyph>
<glyph name="OE" format="2">
  <advance width="2435"/>
  <unicode hex="0152"/>
  <outline>
    <contour>
      <point x="2340" y="0" type="line"/>
      <point x="2340" y="224" type="line"/>
      <point x="1516" y="224" type="line"/>
      <point x="1516" y="0" type="line"/>
    </contour>
    <contour>
      <point x="2322" y="1276" type="line"/>
      <point x="2322" y="1500" type="line"/>
      <point x="1516" y="1500" type="line"/>
      <point x="1516" y="1276" type="line"/>
    </contour>
    <contour>
      <point x="1516" y="0" type="line"/>
      <point x="1516" y="1500" type="line"/>
      <point x="1096" y="1500" type="line"/>
      <point x="1096" y="0" type="line"/>
    </contour>
    <contour>
      <point x="1921" y="662" type="line"/>
      <point x="1921" y="882" type="line"/>
      <point x="1516" y="882" type="line"/>
      <point x="1516" y="662" type="line"/>
    </contour>
    <contour>
      <point x="1870" y="1276" type="line"/>
      <point x="2030" y="1276"/>
      <point x="2090" y="1206"/>
      <point x="2090" y="1036" type="curve" smooth="yes"/>
      <point x="2090" y="960" type="line"/>
      <point x="2322" y="960" type="line"/>
      <point x="2322" y="1276" type="line"/>
    </contour>
    <contour>
      <point x="1888" y="224" type="curve"/>
      <point x="2340" y="224" type="line"/>
      <point x="2340" y="560" type="line"/>
      <point x="2108" y="560" type="line"/>
      <point x="2108" y="464" type="line" smooth="yes"/>
      <point x="2108" y="294"/>
      <point x="2048" y="224"/>
    </contour>
    <contour>
      <point x="1525" y="882" type="curve"/>
      <point x="1921" y="882" type="line"/>
      <point x="1921" y="1136" type="line"/>
      <point x="1697" y="1136" type="line"/>
      <point x="1697" y="1112" type="line" smooth="yes"/>
      <point x="1697" y="952"/>
      <point x="1643" y="882"/>
    </contour>
    <contour>
      <point x="1525" y="662" type="line"/>
      <point x="1643" y="662"/>
      <point x="1697" y="592"/>
      <point x="1697" y="432" type="curve" smooth="yes"/>
      <point x="1697" y="364" type="line"/>
      <point x="1921" y="364" type="line"/>
      <point x="1921" y="662" type="line"/>
    </contour>
    <contour>
      <point x="1096" y="0" type="line"/>
      <point x="1096" y="224" type="line"/>
      <point x="962" y="224" type="line" smooth="yes"/>
      <point x="699" y="224"/>
      <point x="526" y="426"/>
      <point x="526" y="750" type="curve" smooth="yes"/>
      <point x="526" y="1074"/>
      <point x="699" y="1276"/>
      <point x="962" y="1276" type="curve" smooth="yes"/>
      <point x="1096" y="1276" type="line"/>
      <point x="1096" y="1500" type="line"/>
      <point x="900" y="1500" type="line" smooth="yes"/>
      <point x="398" y="1500"/>
      <point x="64" y="1230"/>
      <point x="64" y="750" type="curve" smooth="yes"/>
      <point x="64" y="270"/>
      <point x="398" y="0"/>
      <point x="900" y="0" type="curve" smooth="yes"/>
    </contour>
  </outline>
</glyph>
<glyph name="oe" format="2">
  <advance width="2193"/>
  <unicode hex="0153"/>
  <outline>
    <contour>
      <point x="2107" y="440" type="curve"/>
      <point x="1855" y="440" type="line"/>
      <point x="1826" y="341"/>
      <point x="1761" y="267"/>
      <point x="1632" y="267" type="curve" smooth="yes"/>
      <point x="1475" y="267"/>
      <point x="1377" y="399"/>
      <point x="1377" y="610" type="curve" smooth="yes"/>
      <point x="1377" y="873"/>
      <point x="1446" y="970"/>
      <point x="1568" y="970" type="curve"/>
      <point x="1570" y="1186" type="line"/>
      <point x="1242" y="1186"/>
      <point x="1005" y="970"/>
      <point x="1005" y="580" type="curve" smooth="yes"/>
      <point x="1005" y="189"/>
      <point x="1248" y="-26"/>
      <point x="1592" y="-26" type="curve" smooth="yes"/>
      <point x="1925" y="-26"/>
      <point x="2093" y="205"/>
    </contour>
    <contour>
      <point x="1727" y="758" type="curve"/>
      <point x="2121" y="637" type="line"/>
      <point x="2121" y="964"/>
      <point x="1918" y="1186"/>
      <point x="1570" y="1186" type="curve"/>
      <point x="1568" y="970" type="line"/>
      <point x="1672" y="970"/>
      <point x="1724" y="873"/>
    </contour>
    <contour>
      <point x="1165" y="758" type="line"/>
      <point x="1165" y="560" type="line"/>
      <point x="2121" y="560" type="line"/>
      <point x="2121" y="637" type="line"/>
      <point x="1727" y="758" type="line"/>
    </contour>
    <contour>
      <point x="705" y="-26" type="curve" smooth="yes"/>
      <point x="1060" y="-26"/>
      <point x="1286" y="189"/>
      <point x="1286" y="580" type="curve" smooth="yes"/>
      <point x="1286" y="970"/>
      <point x="1060" y="1186"/>
      <point x="705" y="1186" type="curve" smooth="yes"/>
      <point x="344" y="1186"/>
      <point x="72" y="970"/>
      <point x="72" y="580" type="curve" smooth="yes"/>
      <point x="72" y="189"/>
      <point x="344" y="-26"/>
    </contour>
    <contour>
      <point x="725" y="194" type="curve" smooth="yes"/>
      <point x="596" y="194"/>
      <point x="518" y="332"/>
      <point x="518" y="580" type="curve" smooth="yes"/>
      <point x="518" y="824"/>
      <point x="596" y="966"/>
      <point x="725" y="966" type="curve" smooth="yes"/>
      <point x="853" y="966"/>
      <point x="932" y="830"/>
      <point x="932" y="596" type="curve" smooth="yes"/>
      <point x="932" y="339"/>
      <point x="853" y="194"/>
    </contour>
  </outline>
</glyph>
<glyph name="tbar" format="2">
  <advance width="1322"/>
  <unicode hex="0167"/>
  <outline>
    <contour>
      <point x="474" y="1460" type="line"/>
      <point x="474" y="1452" type="line" smooth="yes"/>
      <point x="474" y="1236"/>
      <point x="388" y="1142"/>
      <point x="100" y="1142" type="curve" smooth="yes"/>
      <point x="80" y="1142" type="line"/>
      <point x="80" y="930" type="line"/>
      <point x="358" y="930" type="line"/>
      <point x="328" y="425" type="line" smooth="yes"/>
      <point x="311" y="146"/>
      <point x="466" y="-24"/>
      <point x="765" y="-24" type="curve" smooth="yes"/>
      <point x="1064" y="-24"/>
      <point x="1202" y="146"/>
      <point x="1202" y="405" type="curve" smooth="yes"/>
      <point x="1202" y="430" type="line"/>
      <point x="952" y="430" type="line"/>
      <point x="952" y="409" type="line" smooth="yes"/>
      <point x="952" y="333"/>
      <point x="916" y="286"/>
      <point x="840" y="286" type="curve" smooth="yes"/>
      <point x="766" y="286"/>
      <point x="728" y="335"/>
      <point x="728" y="409" type="curve" smooth="yes"/>
      <point x="728" y="1460" type="line"/>
    </contour>
    <contour>
      <point x="728" y="1160" type="line"/>
      <point x="728" y="930" type="line"/>
      <point x="1222" y="930" type="line"/>
      <point x="1222" y="1160" type="line"/>
    </contour>
    <contour>
      <point x="80" y="756" type="line"/>
      <point x="80" y="578" type="line"/>
      <point x="1222" y="578" type="line"/>
      <point x="1222" y="756" type="line"/>
    </contour>
  </outline>
</glyph>
<glyph name="florin" format="2">
  <advance width="1166"/>
  <unicode hex="0192"/>
  <outline>
    <contour>
      <point x="46" y="960" type="line"/>
      <point x="46" y="730" type="line"/>
      <point x="1132" y="730" type="line"/>
      <point x="1132" y="960" type="line"/>
    </contour>
    <contour>
      <point x="386" y="1206" type="line"/>
      <point x="386" y="-115" type="line"/>
      <point x="786" y="54" type="line"/>
      <point x="786" y="1265" type="line"/>
    </contour>
    <contour>
      <point x="932" y="1612" type="line"/>
      <point x="641" y="1612"/>
      <point x="386" y="1486"/>
      <point x="386" y="1206" type="curve"/>
      <point x="786" y="1265" type="line"/>
      <point x="786" y="1377"/>
      <point x="846" y="1422"/>
      <point x="950" y="1422" type="curve"/>
    </contour>
    <contour>
      <point x="932" y="1612" type="curve"/>
      <point x="950" y="1422" type="line"/>
      <point x="1016" y="1422"/>
      <point x="1058" y="1389"/>
      <point x="1081" y="1349" type="curve"/>
      <point x="1110" y="1450" type="line"/>
      <point x="1004" y="1450"/>
      <point x="937" y="1431"/>
      <point x="937" y="1337" type="curve" smooth="yes"/>
      <point x="937" y="1245"/>
      <point x="1027" y="1200"/>
      <point x="1132" y="1200" type="curve" smooth="yes"/>
      <point x="1263" y="1200"/>
      <point x="1334" y="1279"/>
      <point x="1334" y="1370" type="curve" smooth="yes"/>
      <point x="1334" y="1516"/>
      <point x="1172" y="1612"/>
    </contour>
    <contour>
      <point x="266" y="-452" type="line"/>
      <point x="540" y="-452"/>
      <point x="786" y="-295"/>
      <point x="786" y="54" type="curve"/>
      <point x="386" y="-115" type="line"/>
      <point x="386" y="-235"/>
      <point x="324" y="-282"/>
      <point x="228" y="-282" type="curve"/>
    </contour>
    <contour>
      <point x="266" y="-452" type="curve"/>
      <point x="228" y="-282" type="line"/>
      <point x="176" y="-282"/>
      <point x="138" y="-253"/>
      <point x="117" y="-219" type="curve"/>
      <point x="88" y="-320" type="line"/>
      <point x="209" y="-320"/>
      <point x="301" y="-296"/>
      <point x="301" y="-180" type="curve" smooth="yes"/>
      <point x="301" y="-86"/>
      <point x="216" y="-40"/>
      <point x="116" y="-40" type="curve" smooth="yes"/>
      <point x="-22" y="-40"/>
      <point x="-96" y="-122"/>
      <point x="-96" y="-216" type="curve" smooth="yes"/>
      <point x="-96" y="-358"/>
      <point x="53" y="-452"/>
    </contour>
  </outline>
</glyph>
<glyph name="jdotless" format="2">
  <advance width="780"/>
  <unicode hex="0237"/>
  <anchor x="390" y="-440" name="bottom"/>
  <anchor x="420" y="1160" name="top"/>
  <outline>
    <contour>
      <point x="226" y="1160" type="line"/>
      <point x="226" y="-115" type="line"/>
      <point x="630" y="54" type="line"/>
      <point x="630" y="1160" type="line"/>
    </contour>
    <contour>
      <point x="110" y="-452" type="line"/>
      <point x="384" y="-452"/>
      <point x="630" y="-295"/>
      <point x="630" y="54" type="curve"/>
      <point x="226" y="-115" type="line"/>
      <point x="226" y="-235"/>
      <point x="168" y="-282"/>
      <point x="72" y="-282" type="curve"/>
    </contour>
    <contour>
      <point x="110" y="-452" type="curve"/>
      <point x="72" y="-282" type="line"/>
      <point x="20" y="-282"/>
      <point x="-18" y="-253"/>
      <point x="-39" y="-219" type="curve"/>
      <point x="-68" y="-320" type="line"/>
      <point x="53" y="-320"/>
      <point x="145" y="-296"/>
      <point x="145" y="-180" type="curve" smooth="yes"/>
      <point x="145" y="-86"/>
      <point x="60" y="-40"/>
      <point x="-40" y="-40" type="curve" smooth="yes"/>
      <point x="-178" y="-40"/>
      <point x="-252" y="-122"/>
      <point x="-252" y="-216" type="curve" smooth="yes"/>
      <point x="-252" y="-358"/>
      <point x="-103" y="-452"/>
    </contour>
  </outline>
</glyph>
<glyph name="acutecomb" format="2">
  <unicode hex="0301"/>
  <anchor x="249" y="1160" name="_top"/>
  <outline>
    <contour>
      <point x="80" y="1290" type="line"/>
      <point x="342" y="1290" type="line"/>
      <point x="620" y="1590" type="line"/>
      <point x="212" y="1590" type="line"/>
    </contour>
  </outline>
</glyph>
<glyph name="circumflexcomb" format="2">
  <unicode hex="0302"/>
  <anchor x="494" y="1160" name="_top"/>
  <anchor x="968" y="1360" name="side"/>
  <anchor x="494" y="1570" name="top"/>
  <outline>
    <contour>
      <point x="908" y="1290" type="line"/>
      <point x="702" y="1590" type="line"/>
      <point x="286" y="1590" type="line"/>
      <point x="80" y="1290" type="line"/>
      <point x="310" y="1290" type="line"/>
      <point x="554" y="1503" type="line"/>
      <point x="384" y="1503" type="line"/>
      <point x="624" y="1290" type="line"/>
    </contour>
  </outline>
</glyph>
<glyph name="tildecomb" format="2">
  <unicode hex="0303"/>
  <anchor x="436" y="1160" name="_top"/>
  <anchor x="436" y="1560" name="top"/>
  <outline>
    <contour>
      <point x="80" y="1290" type="line"/>
      <point x="246" y="1290" type="line"/>
      <point x="246" y="1326" type="line" smooth="yes"/>
      <point x="246" y="1375"/>
      <point x="261" y="1402"/>
      <point x="298" y="1402" type="curve" smooth="yes"/>
      <point x="327" y="1402"/>
      <point x="346" y="1391"/>
      <point x="375" y="1370" type="curve" smooth="yes"/>
      <point x="409" y="1345" type="line"/>
      <point x="497" y="1510" type="line"/>
      <point x="463" y="1535" type="line" smooth="yes"/>
      <point x="405" y="1578"/>
      <point x="351" y="1612"/>
      <point x="272" y="1612" type="curve" smooth="yes"/>
      <point x="148" y="1612"/>
      <point x="80" y="1527"/>
      <point x="80" y="1376" type="curve" smooth="yes"/>
    </contour>
    <contour>
      <point x="792" y="1590" type="line"/>
      <point x="626" y="1590" type="line"/>
      <point x="626" y="1554" type="line" smooth="yes"/>
      <point x="626" y="1505"/>
      <point x="611" y="1478"/>
      <point x="574" y="1478" type="curve" smooth="yes"/>
      <point x="545" y="1478"/>
      <point x="526" y="1489"/>
      <point x="497" y="1510" type="curve" smooth="yes"/>
      <point x="463" y="1535" type="line"/>
      <point x="375" y="1370" type="line"/>
      <point x="409" y="1345" type="line" smooth="yes"/>
      <point x="467" y="1302"/>
      <point x="521" y="1268"/>
      <point x="600" y="1268" type="curve" smooth="yes"/>
      <point x="724" y="1268"/>
      <point x="792" y="1353"/>
      <point x="792" y="1504" type="curve" smooth="yes"/>
    </contour>
  </outline>
</glyph>
<glyph name="macroncomb" format="2">
  <unicode hex="0304"/>
  <anchor x="450" y="1160" name="_top"/>
  <outline>
    <contour>
      <point x="80" y="1510" type="line"/>
      <point x="80" y="1310" type="line"/>
      <point x="820" y="1310" type="line"/>
      <point x="820" y="1510" type="line"/>
    </contour>
  </outline>
</glyph>
<glyph name="brevecomb" format="2">
  <unicode hex="0306"/>
  <anchor x="454" y="1160" name="_top"/>
  <anchor x="454" y="1540" name="side"/>
  <anchor x="454" y="1570" name="top"/>
  <outline>
    <contour>
      <point x="80" y="1590" type="line"/>
      <point x="86" y="1404"/>
      <point x="215" y="1260"/>
      <point x="454" y="1260" type="curve" smooth="yes"/>
      <point x="693" y="1260"/>
      <point x="822" y="1404"/>
      <point x="828" y="1590" type="curve"/>
      <point x="648" y="1590" type="line"/>
      <point x="636" y="1528"/>
      <point x="584" y="1468"/>
      <point x="454" y="1468" type="curve" smooth="yes"/>
      <point x="324" y="1468"/>
      <point x="272" y="1528"/>
      <point x="260" y="1590" type="curve"/>
    </contour>
  </outline>
</glyph>
<glyph name="dotaccentcomb" format="2">
  <unicode hex="0307"/>
  <anchor x="324" y="1160" name="_top"/>
  <anchor x="324" y="1584" name="top"/>
  <outline>
    <contour>
      <point x="324" y="1244" type="curve" smooth="yes"/>
      <point x="468" y="1244"/>
      <point x="568" y="1325"/>
      <point x="568" y="1458" type="curve" smooth="yes"/>
      <point x="568" y="1590"/>
      <point x="468" y="1672"/>
      <point x="324" y="1672" type="curve" smooth="yes"/>
      <point x="180" y="1672"/>
      <point x="80" y="1590"/>
      <point x="80" y="1458" type="curve" smooth="yes"/>
      <point x="80" y="1325"/>
      <point x="180" y="1244"/>
    </contour>
  </outline>
</glyph>
<glyph name="dieresiscomb" format="2">
  <unicode hex="0308"/>
  <anchor x="520" y="1160" name="_top"/>
  <anchor x="520" y="1584" name="top"/>
  <outline>
    <contour>
      <point x="275" y="1252" type="curve" smooth="yes"/>
      <point x="391" y="1252"/>
      <point x="470" y="1328"/>
      <point x="470" y="1452" type="curve" smooth="yes"/>
      <point x="470" y="1575"/>
      <point x="391" y="1651"/>
      <point x="275" y="1651" type="curve" smooth="yes"/>
      <point x="159" y="1651"/>
      <point x="80" y="1575"/>
      <point x="80" y="1452" type="curve" smooth="yes"/>
      <point x="80" y="1328"/>
      <point x="159" y="1252"/>
    </contour>
    <contour>
      <point x="765" y="1252" type="curve" smooth="yes"/>
      <point x="881" y="1252"/>
      <point x="960" y="1328"/>
      <point x="960" y="1452" type="curve" smooth="yes"/>
      <point x="960" y="1575"/>
      <point x="881" y="1651"/>
      <point x="765" y="1651" type="curve" smooth="yes"/>
      <point x="649" y="1651"/>
      <point x="570" y="1575"/>
      <point x="570" y="1452" type="curve" smooth="yes"/>
      <point x="570" y="1328"/>
      <point x="649" y="1252"/>
    </contour>
  </outline>
</glyph>
<glyph name="hookabovecomb" format="2">
  <unicode hex="0309"/>
  <anchor x="361" y="1160" name="_top"/>
  <outline>
    <contour>
      <point x="416" y="1280" type="line"/>
      <point x="416" y="1314"/>
      <point x="428" y="1341"/>
      <point x="472" y="1361" type="curve" smooth="yes"/>
      <point x="565" y="1404"/>
      <point x="666" y="1457"/>
      <point x="666" y="1579" type="curve" smooth="yes"/>
      <point x="666" y="1721"/>
      <point x="533" y="1786"/>
      <point x="374" y="1786" type="curve"/>
      <point x="367" y="1666" type="line"/>
      <point x="416" y="1666"/>
      <point x="449" y="1643"/>
      <point x="449" y="1606" type="curve" smooth="yes"/>
      <point x="449" y="1562"/>
      <point x="413" y="1532"/>
      <point x="362" y="1495" type="curve" smooth="yes"/>
      <point x="290" y="1443"/>
      <point x="245" y="1371"/>
      <point x="280" y="1280" type="curve"/>
    </contour>
    <contour>
      <point x="374" y="1786" type="line"/>
      <point x="207" y="1786"/>
      <point x="80" y="1724"/>
      <point x="80" y="1629" type="curve" smooth="yes"/>
      <point x="80" y="1568"/>
      <point x="136" y="1528"/>
      <point x="221" y="1528" type="curve" smooth="yes"/>
      <point x="293" y="1528"/>
      <point x="341" y="1560"/>
      <point x="341" y="1608" type="curve" smooth="yes"/>
      <point x="341" y="1663"/>
      <point x="288" y="1680"/>
      <point x="208" y="1680" type="curve"/>
      <point x="244" y="1620" type="line"/>
      <point x="275" y="1647"/>
      <point x="315" y="1666"/>
      <point x="367" y="1666" type="curve"/>
    </contour>
  </outline>
</glyph>
<glyph name="ringcomb" format="2">
  <unicode hex="030A"/>
  <anchor x="391" y="1160" name="_top"/>
  <anchor x="391" y="1662" name="top"/>
  <outline>
    <contour>
      <point x="391" y="1254" type="curve" smooth="yes"/>
      <point x="574" y="1254"/>
      <point x="702" y="1343"/>
      <point x="702" y="1488" type="curve" smooth="yes"/>
      <point x="702" y="1632"/>
      <point x="574" y="1721"/>
      <point x="391" y="1721" type="curve" smooth="yes"/>
      <point x="208" y="1721"/>
      <point x="80" y="1632"/>
      <point x="80" y="1488" type="curve" smooth="yes"/>
      <point x="80" y="1343"/>
      <point x="208" y="1254"/>
    </contour>
    <contour>
      <point x="391" y="1372" type="curve" smooth="yes"/>
      <point x="331" y="1372"/>
      <point x="290" y="1416"/>
      <point x="290" y="1488" type="curve" smooth="yes"/>
      <point x="290" y="1559"/>
      <point x="331" y="1603"/>
      <point x="391" y="1603" type="curve" smooth="yes"/>
      <point x="451" y="1603"/>
      <point x="492" y="1559"/>
      <point x="492" y="1488" type="curve" smooth="yes"/>
      <point x="492" y="1416"/>
      <point x="451" y="1372"/>
    </contour>
  </outline>
</glyph>
<glyph name="hungarumlautcomb" format="2">
  <unicode hex="030B"/>
  <anchor x="419" y="1160" name="_top"/>
  <outline>
    <contour>
      <point x="80" y="1290" type="line"/>
      <point x="314" y="1290" type="line"/>
      <point x="530" y="1590" type="line"/>
      <point x="182" y="1590" type="line"/>
    </contour>
    <contour>
      <point x="478" y="1290" type="line"/>
      <point x="724" y="1290" type="line"/>
      <point x="1038" y="1590" type="line"/>
      <point x="650" y="1590" type="line"/>
    </contour>
  </outline>
</glyph>
<glyph name="caroncomb" format="2">
  <unicode hex="030C"/>
  <anchor x="494" y="1160" name="_top"/>
  <outline>
    <contour>
      <point x="80" y="1590" type="line"/>
      <point x="286" y="1290" type="line"/>
      <point x="702" y="1290" type="line"/>
      <point x="908" y="1590" type="line"/>
      <point x="678" y="1590" type="line"/>
      <point x="434" y="1377" type="line"/>
      <point x="604" y="1377" type="line"/>
      <point x="364" y="1590" type="line"/>
    </contour>
  </outline>
</glyph>
<glyph name="dblgravecomb" format="2">
  <unicode hex="030F"/>
  <anchor x="699" y="1160" name="_top"/>
  <outline>
    <contour>
      <point x="1038" y="1290" type="line"/>
      <point x="936" y="1590" type="line"/>
      <point x="588" y="1590" type="line"/>
      <point x="804" y="1290" type="line"/>
    </contour>
    <contour>
      <point x="640" y="1290" type="line"/>
      <point x="468" y="1590" type="line"/>
      <point x="80" y="1590" type="line"/>
      <point x="394" y="1290" type="line"/>
    </contour>
  </outline>
</glyph>
<glyph name="breveinvertedcomb" format="2">
  <unicode hex="0311"/>
  <anchor x="454" y="1160" name="_top"/>
  <outline>
    <contour>
      <point x="80" y="1290" type="curve"/>
      <point x="260" y="1290" type="line"/>
      <point x="272" y="1352"/>
      <point x="324" y="1412"/>
      <point x="454" y="1412" type="curve" smooth="yes"/>
      <point x="584" y="1412"/>
      <point x="636" y="1352"/>
      <point x="648" y="1290" type="curve"/>
      <point x="828" y="1290" type="line"/>
      <point x="822" y="1476"/>
      <point x="693" y="1620"/>
      <point x="454" y="1620" type="curve" smooth="yes"/>
      <point x="215" y="1620"/>
      <point x="86" y="1476"/>
    </contour>
  </outline>
</glyph>
<glyph name="commaturnedabovecomb" format="2">
  <unicode hex="0312"/>
  <anchor x="308" y="1160" name="_top"/>
  <outline>
    <contour>
      <point x="462" y="1845" type="curve"/>
      <point x="311" y="1845" type="line"/>
      <point x="210" y="1779"/>
      <point x="80" y="1648"/>
      <point x="80" y="1463" type="curve" smooth="yes"/>
      <point x="80" y="1309"/>
      <point x="180" y="1234"/>
      <point x="316" y="1234" type="curve" smooth="yes"/>
      <point x="452" y="1234"/>
      <point x="536" y="1308"/>
      <point x="536" y="1414" type="curve" smooth="yes"/>
      <point x="536" y="1537"/>
      <point x="436" y="1607"/>
      <point x="285" y="1591" type="curve"/>
      <point x="301" y="1671"/>
      <point x="368" y="1763"/>
    </contour>
  </outline>
</glyph>
<glyph name="horncomb" format="2">
  <unicode hex="031B"/>
  <anchor x="162" y="1160" name="_topright"/>
  <outline>
    <contour>
      <point x="112" y="1160" type="curve"/>
      <point x="112" y="1012" type="line"/>
      <point x="357" y="1012"/>
      <point x="470" y="1137"/>
      <point x="470" y="1348" type="curve" smooth="yes"/>
      <point x="470" y="1502"/>
      <point x="374" y="1587"/>
      <point x="246" y="1587" type="curve" smooth="yes"/>
      <point x="142" y="1587"/>
      <point x="80" y="1528"/>
      <point x="80" y="1443" type="curve" smooth="yes"/>
      <point x="80" y="1343"/>
      <point x="172" y="1278"/>
      <point x="301" y="1302" type="curve"/>
      <point x="298" y="1209"/>
      <point x="249" y="1160"/>
    </contour>
  </outline>
</glyph>
<glyph name="dotbelowcomb" format="2">
  <unicode hex="0323"/>
  <anchor x="324" y="0" name="_bottom"/>
  <outline>
    <contour>
      <point x="324" y="-512" type="curve" smooth="yes"/>
      <point x="468" y="-512"/>
      <point x="568" y="-431"/>
      <point x="568" y="-298" type="curve" smooth="yes"/>
      <point x="568" y="-166"/>
      <point x="468" y="-84"/>
      <point x="324" y="-84" type="curve" smooth="yes"/>
      <point x="180" y="-84"/>
      <point x="80" y="-166"/>
      <point x="80" y="-298" type="curve" smooth="yes"/>
      <point x="80" y="-431"/>
      <point x="180" y="-512"/>
    </contour>
  </outline>
</glyph>
<glyph name="dieresisbelowcomb" format="2">
  <unicode hex="0324"/>
  <anchor x="520" y="0" name="_bottom"/>
  <outline>
    <contour>
      <point x="275" y="-491" type="curve" smooth="yes"/>
      <point x="391" y="-491"/>
      <point x="470" y="-415"/>
      <point x="470" y="-291" type="curve" smooth="yes"/>
      <point x="470" y="-168"/>
      <point x="391" y="-92"/>
      <point x="275" y="-92" type="curve" smooth="yes"/>
      <point x="159" y="-92"/>
      <point x="80" y="-168"/>
      <point x="80" y="-291" type="curve" smooth="yes"/>
      <point x="80" y="-415"/>
      <point x="159" y="-491"/>
    </contour>
    <contour>
      <point x="765" y="-491" type="curve" smooth="yes"/>
      <point x="881" y="-491"/>
      <point x="960" y="-415"/>
      <point x="960" y="-291" type="curve" smooth="yes"/>
      <point x="960" y="-168"/>
      <point x="881" y="-92"/>
      <point x="765" y="-92" type="curve" smooth="yes"/>
      <point x="649" y="-92"/>
      <point x="570" y="-168"/>
      <point x="570" y="-291" type="curve" smooth="yes"/>
      <point x="570" y="-415"/>
      <point x="649" y="-491"/>
    </contour>
  </outline>
</glyph>
<glyph name="commaaccentcomb" format="2">
  <unicode hex="0326"/>
  <anchor x="308" y="0" name="_bottom"/>
  <outline>
    <contour>
      <point x="154" y="-693" type="curve"/>
      <point x="305" y="-693" type="line"/>
      <point x="406" y="-627"/>
      <point x="536" y="-496"/>
      <point x="536" y="-311" type="curve" smooth="yes"/>
      <point x="536" y="-157"/>
      <point x="436" y="-82"/>
      <point x="300" y="-82" type="curve" smooth="yes"/>
      <point x="164" y="-82"/>
      <point x="80" y="-156"/>
      <point x="80" y="-262" type="curve" smooth="yes"/>
      <point x="80" y="-385"/>
      <point x="180" y="-455"/>
      <point x="331" y="-439" type="curve"/>
      <point x="315" y="-519"/>
      <point x="248" y="-611"/>
    </contour>
  </outline>
</glyph>
<glyph name="cedillacomb" format="2">
  <unicode hex="0327"/>
  <anchor x="317" y="0" name="_bottom"/>
  <outline>
    <contour>
      <point x="241" y="10" type="line"/>
      <point x="216" y="-216" type="line"/>
      <point x="331" y="-216" type="line" smooth="yes"/>
      <point x="359" y="-216"/>
      <point x="380" y="-228"/>
      <point x="380" y="-253" type="curve" smooth="yes"/>
      <point x="380" y="-281"/>
      <point x="360" y="-297"/>
      <point x="311" y="-298" type="curve" smooth="yes"/>
      <point x="249" y="-299"/>
      <point x="189" y="-272"/>
      <point x="138" y="-243" type="curve"/>
      <point x="80" y="-355" type="line"/>
      <point x="142" y="-405"/>
      <point x="239" y="-440"/>
      <point x="339" y="-440" type="curve" smooth="yes"/>
      <point x="479" y="-440"/>
      <point x="582" y="-379"/>
      <point x="582" y="-246" type="curve" smooth="yes"/>
      <point x="582" y="-124"/>
      <point x="477" y="-84"/>
      <point x="392" y="-84" type="curve" smooth="yes"/>
      <point x="386" y="-84" type="line"/>
      <point x="395" y="10" type="line"/>
    </contour>
  </outline>
</glyph>
<glyph name="ogonekcomb" format="2">
  <unicode hex="0328"/>
  <anchor x="510" y="0" name="_ogonek"/>
  <outline>
    <contour>
      <point x="329" y="106" type="line"/>
      <point x="203" y="20"/>
      <point x="80" y="-89"/>
      <point x="80" y="-228" type="curve" smooth="yes"/>
      <point x="80" y="-360"/>
      <point x="192" y="-440"/>
      <point x="335" y="-440" type="curve" smooth="yes"/>
      <point x="421" y="-440"/>
      <point x="489" y="-417"/>
      <point x="531" y="-390" type="curve"/>
      <point x="479" y="-251" type="line"/>
      <point x="458" y="-261"/>
      <point x="441" y="-267"/>
      <point x="414" y="-267" type="curve" smooth="yes"/>
      <point x="361" y="-267"/>
      <point x="322" y="-239"/>
      <point x="322" y="-188" type="curve" smooth="yes"/>
      <point x="322" y="-113"/>
      <point x="373" y="-52"/>
      <point x="430" y="10" type="curve"/>
    </contour>
  </outline>
</glyph>
<glyph name="brevebelowcomb" format="2">
  <unicode hex="032E"/>
  <anchor x="454" y="0" name="_bottom"/>
  <outline>
    <contour>
      <point x="80" y="-130" type="line"/>
      <point x="86" y="-316"/>
      <point x="215" y="-460"/>
      <point x="454" y="-460" type="curve" smooth="yes"/>
      <point x="693" y="-460"/>
      <point x="822" y="-316"/>
      <point x="828" y="-130" type="curve"/>
      <point x="648" y="-130" type="line"/>
      <point x="636" y="-192"/>
      <point x="584" y="-252"/>
      <point x="454" y="-252" type="curve" smooth="yes"/>
      <point x="324" y="-252"/>
      <point x="272" y="-192"/>
      <point x="260" y="-130" type="curve"/>
    </contour>
  </outline>
</glyph>
<glyph name="macronbelowcomb" format="2">
  <unicode hex="0331"/>
  <anchor x="450" y="0" name="_bottom"/>
  <outline>
    <contour>
      <point x="80" y="-350" type="line"/>
      <point x="820" y="-350" type="line"/>
      <point x="820" y="-150" type="line"/>
      <point x="80" y="-150" type="line"/>
    </contour>
  </outline>
</glyph>
<glyph name="strokeshortcomb" format="2">
  <unicode hex="0335"/>
  <anchor x="505" y="750" name="_center"/>
  <anchor x="245" y="750" name="_stroke"/>
  <outline>
    <contour>
      <point x="80" y="840" type="line"/>
      <point x="80" y="662" type="line"/>
      <point x="930" y="662" type="line"/>
      <point x="930" y="840" type="line"/>
    </contour>
  </outline>
</glyph>
<glyph name="strokelongcomb" format="2">
  <unicode hex="0336"/>
  <anchor x="936" y="1500" name="_top"/>
  <outline>
    <contour>
      <point x="80" y="1156" type="line"/>
      <point x="80" y="978" type="line"/>
      <point x="1792" y="978" type="line"/>
      <point x="1792" y="1156" type="line"/>
    </contour>
  </outline>
</glyph>
<glyph name="slashshortcomb" format="2">
  <unicode hex="0337"/>
  <anchor x="552" y="1160" name="_center"/>
  <outline>
    <contour>
      <point x="1038" y="670" type="line"/>
      <point x="1038" y="888" type="line"/>
      <point x="80" y="660" type="line"/>
      <point x="80" y="442" type="line"/>
    </contour>
  </outline>
</glyph>
<glyph name="emdash" format="2">
  <advance width="2042"/>
  <unicode hex="2014"/>
  <outline>
    <contour>
      <point x="139" y="777" type="line"/>
      <point x="139" y="453" type="line"/>
      <point x="1903" y="453" type="line"/>
      <point x="1903" y="777" type="line"/>
    </contour>
  </outline>
</glyph>
<glyph name="quoteleft" format="2">
  <advance width="719"/>
  <unicode hex="2018"/>
  <outline>
    <contour>
      <point x="552" y="1462" type="curve"/>
      <point x="343" y="1462" type="line"/>
      <point x="235" y="1384"/>
      <point x="82" y="1182"/>
      <point x="82" y="984" type="curve" smooth="yes"/>
      <point x="82" y="778"/>
      <point x="211" y="667"/>
      <point x="375" y="667" type="curve" smooth="yes"/>
      <point x="532" y="667"/>
      <point x="637" y="763"/>
      <point x="637" y="901" type="curve" smooth="yes"/>
      <point x="637" y="1053"/>
      <point x="518" y="1144"/>
      <point x="325" y="1144" type="curve"/>
      <point x="354" y="1248"/>
      <point x="437" y="1354"/>
    </contour>
  </outline>
</glyph>
<glyph name="quoteright" format="2">
  <advance width="719"/>
  <unicode hex="2019"/>
  <outline>
    <contour>
      <point x="168" y="727" type="curve"/>
      <point x="377" y="727" type="line"/>
      <point x="485" y="804"/>
      <point x="637" y="1007"/>
      <point x="637" y="1205" type="curve" smooth="yes"/>
      <point x="637" y="1411"/>
      <point x="509" y="1522"/>
      <point x="344" y="1522" type="curve" smooth="yes"/>
      <point x="188" y="1522"/>
      <point x="82" y="1426"/>
      <point x="82" y="1287" type="curve" smooth="yes"/>
      <point x="82" y="1136"/>
      <point x="201" y="1044"/>
      <point x="395" y="1044" type="curve"/>
      <point x="366" y="941"/>
      <point x="283" y="834"/>
    </contour>
  </outline>
</glyph>
<glyph name="bullet" format="2">
  <advance width="918"/>
  <unicode hex="2022"/>
  <outline>
    <contour>
      <point x="459" y="244" type="curve" smooth="yes"/>
      <point x="676" y="244"/>
      <point x="816" y="386"/>
      <point x="816" y="590" type="curve" smooth="yes"/>
      <point x="816" y="794"/>
      <point x="676" y="936"/>
      <point x="459" y="936" type="curve" smooth="yes"/>
      <point x="242" y="936"/>
      <point x="102" y="794"/>
      <point x="102" y="590" type="curve" smooth="yes"/>
      <point x="102" y="386"/>
      <point x="242" y="244"/>
    </contour>
  </outline>
</glyph>
<glyph name="ellipsis" format="2">
  <advance width="1798"/>
  <unicode hex="2026"/>
  <outline>
    <contour>
      <point x="315" y="-22" type="curve" smooth="yes"/>
      <point x="458" y="-22"/>
      <point x="548" y="79"/>
      <point x="548" y="224" type="curve" smooth="yes"/>
      <point x="548" y="369"/>
      <point x="458" y="470"/>
      <point x="315" y="470" type="curve" smooth="yes"/>
      <point x="173" y="470"/>
      <point x="82" y="369"/>
      <point x="82" y="224" type="curve" smooth="yes"/>
      <point x="82" y="79"/>
      <point x="173" y="-22"/>
    </contour>
    <contour>
      <point x="899" y="-22" type="curve" smooth="yes"/>
      <point x="1042" y="-22"/>
      <point x="1132" y="79"/>
      <point x="1132" y="224" type="curve" smooth="yes"/>
      <point x="1132" y="369"/>
      <point x="1042" y="470"/>
      <point x="899" y="470" type="curve" smooth="yes"/>
      <point x="757" y="470"/>
      <point x="666" y="369"/>
      <point x="666" y="224" type="curve" smooth="yes"/>
      <point x="666" y="79"/>
      <point x="757" y="-22"/>
    </contour>
    <contour>
      <point x="1483" y="-22" type="curve" smooth="yes"/>
      <point x="1626" y="-22"/>
      <point x="1716" y="79"/>
      <point x="1716" y="224" type="curve" smooth="yes"/>
      <point x="1716" y="369"/>
      <point x="1626" y="470"/>
      <point x="1483" y="470" type="curve" smooth="yes"/>
      <point x="1341" y="470"/>
      <point x="1250" y="369"/>
      <point x="1250" y="224" type="curve" smooth="yes"/>
      <point x="1250" y="79"/>
      <point x="1341" y="-22"/>
    </contour>
  </outline>
</glyph>
<glyph name="perthousand" format="2">
  <advance width="2787"/>
  <unicode hex="2030"/>
  <outline>
    <contour>
      <point x="1492" y="1500" type="line"/>
      <point x="367" y="0" type="line"/>
      <point x="692" y="0" type="line"/>
      <point x="1817" y="1500" type="line"/>
    </contour>
    <contour>
      <point x="517" y="780" type="curve" smooth="yes"/>
      <point x="777" y="780"/>
      <point x="962" y="917"/>
      <point x="962" y="1150" type="curve" smooth="yes"/>
      <point x="962" y="1383"/>
      <point x="777" y="1522"/>
      <point x="517" y="1522" type="curve" smooth="yes"/>
      <point x="257" y="1522"/>
      <point x="72" y="1384"/>
      <point x="72" y="1151" type="curve" smooth="yes"/>
      <point x="72" y="917"/>
      <point x="257" y="780"/>
    </contour>
    <contour>
      <point x="517" y="970" type="curve" smooth="yes"/>
      <point x="431" y="970"/>
      <point x="379" y="1032"/>
      <point x="379" y="1151" type="curve" smooth="yes"/>
      <point x="379" y="1267"/>
      <point x="431" y="1332"/>
      <point x="517" y="1332" type="curve" smooth="yes"/>
      <point x="603" y="1332"/>
      <point x="655" y="1270"/>
      <point x="655" y="1160" type="curve" smooth="yes"/>
      <point x="655" y="1036"/>
      <point x="603" y="970"/>
    </contour>
    <contour>
      <point x="1651" y="-22" type="curve" smooth="yes"/>
      <point x="1909" y="-22"/>
      <point x="2072" y="115"/>
      <point x="2072" y="348" type="curve" smooth="yes"/>
      <point x="2072" y="581"/>
      <point x="1909" y="720"/>
      <point x="1651" y="720" type="curve" smooth="yes"/>
      <point x="1400" y="720"/>
      <point x="1222" y="582"/>
      <point x="1222" y="349" type="curve" smooth="yes"/>
      <point x="1222" y="115"/>
      <point x="1400" y="-22"/>
    </contour>
    <contour>
      <point x="1667" y="168" type="curve" smooth="yes"/>
      <point x="1581" y="168"/>
      <point x="1529" y="230"/>
      <point x="1529" y="349" type="curve" smooth="yes"/>
      <point x="1529" y="465"/>
      <point x="1581" y="530"/>
      <point x="1667" y="530" type="curve" smooth="yes"/>
      <point x="1753" y="530"/>
      <point x="1805" y="468"/>
      <point x="1805" y="358" type="curve" smooth="yes"/>
      <point x="1805" y="234"/>
      <point x="1753" y="168"/>
    </contour>
    <contour>
      <point x="2286" y="-22" type="curve" smooth="yes"/>
      <point x="2537" y="-22"/>
      <point x="2715" y="115"/>
      <point x="2715" y="348" type="curve" smooth="yes"/>
      <point x="2715" y="581"/>
      <point x="2537" y="720"/>
      <point x="2286" y="720" type="curve" smooth="yes"/>
      <point x="2028" y="720"/>
      <point x="1865" y="582"/>
      <point x="1865" y="349" type="curve" smooth="yes"/>
      <point x="1865" y="115"/>
      <point x="2028" y="-22"/>
    </contour>
    <contour>
      <point x="2270" y="168" type="curve" smooth="yes"/>
      <point x="2184" y="168"/>
      <point x="2132" y="230"/>
      <point x="2132" y="349" type="curve" smooth="yes"/>
      <point x="2132" y="465"/>
      <point x="2184" y="530"/>
      <point x="2270" y="530" type="curve" smooth="yes"/>
      <point x="2356" y="530"/>
      <point x="2408" y="468"/>
      <point x="2408" y="358" type="curve" smooth="yes"/>
      <point x="2408" y="234"/>
      <point x="2356" y="168"/>
    </contour>
  </outline>
</glyph>
<glyph name="minute" format="2">
  <advance width="510"/>
  <unicode hex="2032"/>
  <outline>
    <contour>
      <point x="118" y="930" type="line"/>
      <point x="338" y="930" type="line"/>
      <point x="440" y="1500" type="line"/>
      <point x="132" y="1500" type="line"/>
    </contour>
  </outline>
</glyph>
<glyph name="second" format="2">
  <advance width="900"/>
  <unicode hex="2033"/>
  <outline>
    <contour>
      <point x="118" y="930" type="line"/>
      <point x="318" y="930" type="line"/>
      <point x="420" y="1500" type="line"/>
      <point x="132" y="1500" type="line"/>
    </contour>
    <contour>
      <point x="528" y="930" type="line"/>
      <point x="728" y="930" type="line"/>
      <point x="830" y="1500" type="line"/>
      <point x="542" y="1500" type="line"/>
    </contour>
  </outline>
</glyph>
<glyph name="guilsinglright" format="2">
  <advance width="718"/>
  <unicode hex="203A"/>
  <outline>
    <contour>
      <point x="76" y="1025" type="line"/>
      <point x="338" y="1025" type="line"/>
      <point x="680" y="605" type="line"/>
      <point x="338" y="185" type="line"/>
      <point x="76" y="185" type="line"/>
      <point x="259" y="605" type="line"/>
    </contour>
  </outline>
</glyph>
<glyph name="colonsign" format="2">
  <advance width="1689"/>
  <unicode hex="20A1"/>
  <outline>
    <contour>
      <point x="820" y="1720" type="line"/>
      <point x="580" y="-220" type="line"/>
      <point x="766" y="-220" type="line"/>
      <point x="1006" y="1720" type="line"/>
    </contour>
    <contour>
      <point x="1111" y="1720" type="line"/>
      <point x="871" y="-220" type="line"/>
      <point x="1057" y="-220" type="line"/>
      <point x="1297" y="1720" type="line"/>
    </contour>
    <component base="C"/>
  </outline>
</glyph>
<glyph name="franc" format="2">
  <advance width="1560"/>
  <unicode hex="20A3"/>
  <outline>
    <contour>
      <point x="1494" y="1276" type="line"/>
      <point x="1494" y="1500" type="line"/>
      <point x="632" y="1500" type="line"/>
      <point x="632" y="1276" type="line"/>
    </contour>
    <contour>
      <point x="1117" y="784" type="line"/>
      <point x="1117" y="1004" type="line"/>
      <point x="632" y="1004" type="line"/>
      <point x="632" y="784" type="line"/>
    </contour>
    <contour>
      <point x="1042" y="1276" type="line"/>
      <point x="1202" y="1276"/>
      <point x="1262" y="1206"/>
      <point x="1262" y="1036" type="curve" smooth="yes"/>
      <point x="1262" y="940" type="line"/>
      <point x="1494" y="940" type="line"/>
      <point x="1494" y="1276" type="line"/>
    </contour>
    <contour>
      <point x="661" y="1004" type="curve"/>
      <point x="1117" y="1004" type="line"/>
      <point x="1117" y="1162" type="line"/>
      <point x="893" y="1162" type="line"/>
      <point x="893" y="1154" type="line" smooth="yes"/>
      <point x="893" y="1050"/>
      <point x="833" y="1004"/>
    </contour>
    <contour>
      <point x="212" y="1500" type="line"/>
      <point x="212" y="0" type="line"/>
      <point x="632" y="0" type="line"/>
      <point x="632" y="1500" type="line"/>
    </contour>
    <contour>
      <point x="661" y="784" type="line"/>
      <point x="833" y="784"/>
      <point x="893" y="738"/>
      <point x="893" y="634" type="curve" smooth="yes"/>
      <point x="893" y="626" type="line"/>
      <point x="1117" y="626" type="line"/>
      <point x="1117" y="784" type="line"/>
    </contour>
    <contour>
      <point x="62" y="540" type="line"/>
      <point x="62" y="320" type="line"/>
      <point x="1117" y="320" type="line"/>
      <point x="1117" y="540" type="line"/>
    </contour>
  </outline>
</glyph>
<glyph name="naira" format="2">
  <advance width="1802"/>
  <unicode hex="20A6"/>
  <outline>
    <contour>
      <point x="62" y="686" type="line"/>
      <point x="62" y="456" type="line"/>
      <point x="991" y="456" type="line"/>
      <point x="991" y="686" type="line"/>
    </contour>
    <contour>
      <point x="62" y="1098" type="line"/>
      <point x="62" y="868" type="line"/>
      <point x="341" y="868" type="line"/>
      <point x="341" y="1098" type="line"/>
    </contour>
    <contour>
      <point x="798" y="1098" type="line"/>
      <point x="798" y="868" type="line"/>
      <point x="1720" y="868" type="line"/>
      <point x="1720" y="1098" type="line"/>
    </contour>
    <contour>
      <point x="1378" y="686" type="line"/>
      <point x="1378" y="456" type="line"/>
      <point x="1720" y="456" type="line"/>
      <point x="1720" y="686" type="line"/>
    </contour>
    <component base="N"/>
  </outline>
</glyph>
<glyph name="peseta" format="2">
  <advance width="1756"/>
  <unicode hex="20A7"/>
  <outline>
    <contour>
      <point x="647" y="1500" type="line"/>
      <point x="647" y="1276" type="line"/>
      <point x="833" y="1276" type="line" smooth="yes"/>
      <point x="1025" y="1276"/>
      <point x="1142" y="1187"/>
      <point x="1142" y="999" type="curve" smooth="yes"/>
      <point x="1142" y="811"/>
      <point x="1025" y="722"/>
      <point x="833" y="722" type="curve" smooth="yes"/>
      <point x="647" y="722" type="line"/>
      <point x="647" y="498" type="line"/>
      <point x="969" y="498" type="line" smooth="yes"/>
      <point x="1332" y="498"/>
      <point x="1572" y="665"/>
      <point x="1572" y="999" type="curve" smooth="yes"/>
      <point x="1572" y="1333"/>
      <point x="1332" y="1500"/>
      <point x="969" y="1500" type="curve" smooth="yes"/>
    </contour>
    <contour>
      <point x="227" y="1500" type="line"/>
      <point x="227" y="0" type="line"/>
      <point x="647" y="0" type="line"/>
      <point x="647" y="1500" type="line"/>
    </contour>
    <contour>
      <point x="62" y="1114" type="line"/>
      <point x="62" y="884" type="line"/>
      <point x="1724" y="884" type="line"/>
      <point x="1724" y="1114" type="line"/>
    </contour>
  </outline>
</glyph>
<glyph name="won" format="2">
  <advance width="2598"/>
  <unicode hex="20A9"/>
  <outline>
    <contour>
      <point x="1345" y="868" type="line"/>
      <point x="2536" y="868" type="line"/>
      <point x="2536" y="1098" type="line"/>
      <point x="1345" y="1098" type="line"/>
    </contour>
    <contour>
      <point x="62" y="686" type="line"/>
      <point x="62" y="456" type="line"/>
      <point x="644" y="456" type="line"/>
      <point x="644" y="686" type="line"/>
    </contour>
    <contour>
      <point x="2004" y="686" type="line"/>
      <point x="2004" y="456" type="line"/>
      <point x="2536" y="456" type="line"/>
      <point x="2536" y="686" type="line"/>
    </contour>
    <contour>
      <point x="1345" y="1098" type="line"/>
      <point x="62" y="1098" type="line"/>
      <point x="62" y="868" type="line"/>
      <point x="1345" y="868" type="line"/>
    </contour>
    <component base="W" xOffset="28"/>
  </outline>
</glyph>
<glyph name="euro" format="2">
  <advance width="1977"/>
  <unicode hex="20AC"/>
  <outline>
    <contour>
      <point x="136" y="1001" type="line"/>
      <point x="106" y="819" type="line"/>
      <point x="1333" y="819" type="line"/>
      <point x="1363" y="1001" type="line"/>
    </contour>
    <contour>
      <point x="92" y="713" type="line"/>
      <point x="62" y="531" type="line"/>
      <point x="1289" y="531" type="line"/>
      <point x="1319" y="713" type="line"/>
    </contour>
    <component base="C" xOffset="288"/>
  </outline>
</glyph>
<glyph name="peso" format="2">
  <advance width="1756"/>
  <unicode hex="20B1"/>
  <outline>
    <contour>
      <point x="647" y="1560" type="line"/>
      <point x="647" y="1336" type="line"/>
      <point x="773" y="1336" type="line" smooth="yes"/>
      <point x="1002" y="1336"/>
      <point x="1142" y="1228"/>
      <point x="1142" y="999" type="curve" smooth="yes"/>
      <point x="1142" y="770"/>
      <point x="1002" y="662"/>
      <point x="773" y="662" type="curve" smooth="yes"/>
      <point x="647" y="662" type="line"/>
      <point x="647" y="438" type="line"/>
      <point x="909" y="438" type="line" smooth="yes"/>
      <point x="1308" y="438"/>
      <point x="1572" y="625"/>
      <point x="1572" y="999" type="curve" smooth="yes"/>
      <point x="1572" y="1373"/>
      <point x="1308" y="1560"/>
      <point x="909" y="1560" type="curve" smooth="yes"/>
    </contour>
    <contour>
      <point x="227" y="1560" type="line"/>
      <point x="227" y="0" type="line"/>
      <point x="647" y="0" type="line"/>
      <point x="647" y="1560" type="line"/>
    </contour>
    <contour>
      <point x="62" y="1234" type="line"/>
      <point x="62" y="1052" type="line"/>
      <point x="1724" y="1052" type="line"/>
      <point x="1724" y="1234" type="line"/>
    </contour>
    <contour>
      <point x="62" y="946" type="line"/>
      <point x="62" y="764" type="line"/>
      <point x="1724" y="764" type="line"/>
      <point x="1724" y="946" type="line"/>
    </contour>
  </outline>
</glyph>
<glyph name="rupeeIndian" format="2">
  <advance width="1447"/>
  <unicode hex="20B9"/>
  <outline>
    <contour>
      <point x="68" y="1500" type="line"/>
      <point x="68" y="1276" type="line"/>
      <point x="464" y="1276" type="line" smooth="yes"/>
      <point x="656" y="1276"/>
      <point x="773" y="1193"/>
      <point x="773" y="1019" type="curve" smooth="yes"/>
      <point x="773" y="845"/>
      <point x="656" y="762"/>
      <point x="464" y="762" type="curve" smooth="yes"/>
      <point x="68" y="762" type="line"/>
      <point x="68" y="568" type="line"/>
      <point x="600" y="568" type="line" smooth="yes"/>
      <point x="963" y="568"/>
      <point x="1203" y="718"/>
      <point x="1203" y="1019" type="curve" smooth="yes"/>
      <point x="1203" y="1340"/>
      <point x="963" y="1500"/>
      <point x="600" y="1500" type="curve" smooth="yes"/>
    </contour>
    <contour>
      <point x="68" y="1134" type="line"/>
      <point x="68" y="904" type="line"/>
      <point x="1415" y="904" type="line"/>
      <point x="1415" y="1134" type="line"/>
    </contour>
    <contour>
      <point x="68" y="588" type="line"/>
      <point x="68" y="538" type="line"/>
      <point x="315" y="538" type="line" smooth="yes"/>
      <point x="439" y="538"/>
      <point x="506" y="504"/>
      <point x="506" y="361" type="curve" smooth="yes"/>
      <point x="506" y="346" type="line" smooth="yes"/>
      <point x="506" y="117"/>
      <point x="640" y="-32"/>
      <point x="914" y="-32" type="curve" smooth="yes"/>
      <point x="1183" y="-32"/>
      <point x="1296" y="123"/>
      <point x="1296" y="352" type="curve" smooth="yes"/>
      <point x="1296" y="549" type="line"/>
      <point x="1064" y="549" type="line"/>
      <point x="1064" y="298" type="line" smooth="yes"/>
      <point x="1064" y="248"/>
      <point x="1044" y="214"/>
      <point x="990" y="214" type="curve" smooth="yes"/>
      <point x="936" y="214"/>
      <point x="916" y="248"/>
      <point x="916" y="298" type="curve" smooth="yes"/>
      <point x="916" y="303" type="line" smooth="yes"/>
      <point x="916" y="475"/>
      <point x="840" y="588"/>
      <point x="628" y="588" type="curve" smooth="yes"/>
    </contour>
  </outline>
</glyph>
<glyph name="ruble" format="2">
  <advance width="1594"/>
  <unicode hex="20BD"/>
  <outline>
    <contour>
      <point x="647" y="1500" type="line"/>
      <point x="647" y="1276" type="line"/>
      <point x="913" y="1276" type="line" smooth="yes"/>
      <point x="1049" y="1276"/>
      <point x="1132" y="1216"/>
      <point x="1132" y="1089" type="curve" smooth="yes"/>
      <point x="1132" y="962"/>
      <point x="1049" y="902"/>
      <point x="913" y="902" type="curve" smooth="yes"/>
      <point x="647" y="902" type="line"/>
      <point x="647" y="678" type="line"/>
      <point x="1049" y="678" type="line" smooth="yes"/>
      <point x="1358" y="678"/>
      <point x="1562" y="816"/>
      <point x="1562" y="1089" type="curve" smooth="yes"/>
      <point x="1562" y="1362"/>
      <point x="1358" y="1500"/>
      <point x="1049" y="1500" type="curve" smooth="yes"/>
    </contour>
    <contour>
      <point x="227" y="1500" type="line"/>
      <point x="227" y="0" type="line"/>
      <point x="647" y="0" type="line"/>
      <point x="647" y="1500" type="line"/>
    </contour>
    <contour>
      <point x="62" y="572" type="line"/>
      <point x="62" y="352" type="line"/>
      <point x="1079" y="352" type="line"/>
      <point x="1079" y="572" type="line"/>
    </contour>
  </outline>
</glyph>
<glyph name="numero" format="2">
  <advance width="3158"/>
  <unicode hex="2116"/>
  <outline>
    <contour>
      <point x="487" y="0" type="line"/>
      <point x="487" y="949" type="line"/>
      <point x="567" y="1500" type="line"/>
      <point x="227" y="1500" type="line"/>
      <point x="227" y="0" type="line"/>
    </contour>
    <contour>
      <point x="1298" y="642" type="line"/>
      <point x="567" y="1500" type="line"/>
      <point x="487" y="949" type="line"/>
      <point x="1296" y="0" type="line"/>
    </contour>
    <contour>
      <point x="1558" y="0" type="line"/>
      <point x="1558" y="1500" type="line"/>
      <point x="1298" y="1500" type="line"/>
      <point x="1298" y="642" type="line"/>
      <point x="1288" y="642" type="line"/>
      <point x="1296" y="0" type="line"/>
    </contour>
    <contour>
      <point x="2433" y="412" type="curve" smooth="yes"/>
      <point x="2806" y="412"/>
      <point x="3086" y="610"/>
      <point x="3086" y="968" type="curve" smooth="yes"/>
      <point x="3086" y="1325"/>
      <point x="2806" y="1524"/>
      <point x="2433" y="1524" type="curve" smooth="yes"/>
      <point x="2060" y="1524"/>
      <point x="1780" y="1325"/>
      <point x="1780" y="968" type="curve" smooth="yes"/>
      <point x="1780" y="610"/>
      <point x="2060" y="412"/>
    </contour>
    <contour>
      <point x="2433" y="632" type="curve" smooth="yes"/>
      <point x="2297" y="632"/>
      <point x="2216" y="753"/>
      <point x="2216" y="968" type="curve" smooth="yes"/>
      <point x="2216" y="1180"/>
      <point x="2297" y="1304"/>
      <point x="2433" y="1304" type="curve" smooth="yes"/>
      <point x="2568" y="1304"/>
      <point x="2650" y="1186"/>
      <point x="2650" y="984" type="curve" smooth="yes"/>
      <point x="2650" y="759"/>
      <point x="2568" y="632"/>
    </contour>
    <contour>
      <point x="1816" y="230" type="line"/>
      <point x="1816" y="0" type="line"/>
      <point x="3050" y="0" type="line"/>
      <point x="3050" y="230" type="line"/>
    </contour>
  </outline>
</glyph>
<glyph name="fi" format="2">
  <advance width="1679"/>
  <unicode hex="FB01"/>
  <outline>
    <contour>
      <point x="20" y="1160" type="line"/>
      <point x="20" y="930" type="line"/>
      <point x="1494" y="930" type="line"/>
      <point x="1494" y="1160" type="line"/>
    </contour>
    <contour>
      <point x="248" y="1166" type="line"/>
      <point x="248" y="0" type="line"/>
      <point x="648" y="0" type="line"/>
      <point x="648" y="1205" type="line"/>
    </contour>
    <contour>
      <point x="1090" y="1160" type="line"/>
      <point x="1090" y="0" type="line"/>
      <point x="1494" y="0" type="line"/>
      <point x="1494" y="1160" type="line"/>
    </contour>
    <contour>
      <point x="908" y="1632" type="line"/>
      <point x="557" y="1632"/>
      <point x="248" y="1514"/>
      <point x="248" y="1166" type="curve"/>
      <point x="648" y="1205" type="line"/>
      <point x="648" y="1384"/>
      <point x="751" y="1450"/>
      <point x="946" y="1450" type="curve"/>
    </contour>
    <contour>
      <point x="908" y="1632" type="curve"/>
      <point x="946" y="1450" type="line"/>
      <point x="1070" y="1450"/>
      <point x="1162" y="1415"/>
      <point x="1207" y="1388" type="curve"/>
      <point x="1226" y="1480" type="line"/>
      <point x="1120" y="1480"/>
      <point x="1053" y="1461"/>
      <point x="1053" y="1367" type="curve" smooth="yes"/>
      <point x="1053" y="1281"/>
      <point x="1157" y="1240"/>
      <point x="1278" y="1240" type="curve" smooth="yes"/>
      <point x="1422" y="1240"/>
      <point x="1500" y="1304"/>
      <point x="1500" y="1390" type="curve" smooth="yes"/>
      <point x="1500" y="1525"/>
      <point x="1296" y="1632"/>
    </contour>
  </outline>
</glyph>
<glyph name="fl" format="2">
  <advance width="1679"/>
  <unicode hex="FB02"/>
  <outline>
    <contour>
      <point x="20" y="1160" type="line"/>
      <point x="20" y="930" type="line"/>
      <point x="954" y="930" type="line"/>
      <point x="954" y="1160" type="line"/>
    </contour>
    <contour>
      <point x="248" y="1206" type="line"/>
      <point x="248" y="0" type="line"/>
      <point x="648" y="0" type="line"/>
      <point x="648" y="1285" type="line"/>
    </contour>
    <contour>
      <point x="700" y="1612" type="line"/>
      <point x="459" y="1612"/>
      <point x="248" y="1486"/>
      <point x="248" y="1206" type="curve"/>
      <point x="648" y="1285" type="line"/>
      <point x="648" y="1383"/>
      <point x="683" y="1422"/>
      <point x="744" y="1422" type="curve"/>
    </contour>
    <contour>
      <point x="700" y="1612" type="curve"/>
      <point x="744" y="1422" type="line"/>
      <point x="790" y="1422"/>
      <point x="819" y="1389"/>
      <point x="835" y="1349" type="curve"/>
      <point x="854" y="1440" type="line"/>
      <point x="779" y="1440"/>
      <point x="731" y="1422"/>
      <point x="731" y="1337" type="curve" smooth="yes"/>
      <point x="731" y="1265"/>
      <point x="793" y="1230"/>
      <point x="866" y="1230" type="curve" smooth="yes"/>
      <point x="977" y="1230"/>
      <point x="1028" y="1304"/>
      <point x="1028" y="1390" type="curve" smooth="yes"/>
      <point x="1028" y="1524"/>
      <point x="896" y="1612"/>
    </contour>
    <contour>
      <point x="1090" y="1580" type="line"/>
      <point x="1090" y="0" type="line"/>
      <point x="1494" y="0" type="line"/>
      <point x="1494" y="1580" type="line"/>
    </contour>
  </outline>
</glyph>
<glyph name="_U.horn" format="2">
  <advance width="584"/>
  <anchor x="162" y="1500" name="_topright"/>
  <outline>
    <contour>
      <point x="197" y="1500" type="curve" smooth="yes"/>
      <point x="133" y="1500" type="line"/>
      <point x="133" y="1280" type="line"/>
      <point x="172" y="1280" type="line" smooth="yes"/>
      <point x="360" y="1280"/>
      <point x="504" y="1374"/>
      <point x="504" y="1601" type="curve" smooth="yes"/>
      <point x="504" y="1772"/>
      <point x="392" y="1867"/>
      <point x="245" y="1867" type="curve" smooth="yes"/>
      <point x="146" y="1867"/>
      <point x="80" y="1813"/>
      <point x="80" y="1722" type="curve" smooth="yes"/>
      <point x="80" y="1598"/>
      <point x="228" y="1551"/>
      <point x="341" y="1604" type="curve"/>
      <point x="341" y="1540"/>
      <point x="296" y="1500"/>
    </contour>
  </outline>
</glyph>
<glyph name="acutecomb.alt" format="2">
  <anchor x="203" y="1160" name="_side"/>
  <outline>
    <contour>
      <point x="80" y="1270" type="line"/>
      <point x="318" y="1270" type="line"/>
      <point x="480" y="1560" type="line"/>
      <point x="160" y="1560" type="line"/>
    </contour>
  </outline>
</glyph>
<glyph name="eight.dnom" format="2">
  <advance width="892"/>
  <outline>
    <contour>
      <point x="58" y="580" type="curve" smooth="yes"/>
      <point x="58" y="408"/>
      <point x="254" y="349"/>
      <point x="404" y="306" type="curve" smooth="yes"/>
      <point x="418" y="302" type="line" smooth="yes"/>
      <point x="486" y="283"/>
      <point x="551" y="259"/>
      <point x="551" y="201" type="curve" smooth="yes"/>
      <point x="551" y="152"/>
      <point x="511" y="124"/>
      <point x="444" y="124" type="curve" smooth="yes"/>
      <point x="360" y="124"/>
      <point x="298" y="162"/>
      <point x="298" y="227" type="curve" smooth="yes"/>
      <point x="298" y="297"/>
      <point x="351" y="336"/>
      <point x="403" y="348" type="curve"/>
      <point x="388" y="394" type="line"/>
      <point x="206" y="397"/>
      <point x="48" y="325"/>
      <point x="48" y="198" type="curve" smooth="yes"/>
      <point x="48" y="62"/>
      <point x="225" y="-13"/>
      <point x="431" y="-13" type="curve" smooth="yes"/>
      <point x="678" y="-13"/>
      <point x="841" y="81"/>
      <point x="844" y="260" type="curve" smooth="yes"/>
      <point x="847" y="441"/>
      <point x="637" y="499"/>
      <point x="476" y="545" type="curve" smooth="yes"/>
      <point x="462" y="549" type="line" smooth="yes"/>
      <point x="387" y="570"/>
      <point x="337" y="586"/>
      <point x="337" y="630" type="curve" smooth="yes"/>
      <point x="337" y="669"/>
      <point x="377" y="689"/>
      <point x="438" y="689" type="curve" smooth="yes"/>
      <point x="508" y="689"/>
      <point x="567" y="659"/>
      <point x="567" y="598" type="curve" smooth="yes"/>
      <point x="567" y="546"/>
      <point x="520" y="517"/>
      <point x="454" y="507" type="curve"/>
      <point x="469" y="460" type="line"/>
      <point x="640" y="457"/>
      <point x="797" y="528"/>
      <point x="797" y="640" type="curve" smooth="yes"/>
      <point x="797" y="752"/>
      <point x="653" y="823"/>
      <point x="452" y="823" type="curve" smooth="yes"/>
      <point x="246" y="823"/>
      <point x="58" y="749"/>
    </contour>
  </outline>
</glyph>
<glyph name="f_f" format="2">
  <advance width="1886"/>
  <outline>
    <contour>
      <point x="20" y="1160" type="line"/>
      <point x="20" y="930" type="line"/>
      <point x="1836" y="930" type="line"/>
      <point x="1836" y="1160" type="line"/>
    </contour>
    <contour>
      <point x="248" y="1206" type="line"/>
      <point x="248" y="0" type="line"/>
      <point x="648" y="0" type="line"/>
      <point x="648" y="1265" type="line"/>
    </contour>
    <contour>
      <point x="714" y="1612" type="line"/>
      <point x="466" y="1612"/>
      <point x="248" y="1486"/>
      <point x="248" y="1206" type="curve"/>
      <point x="648" y="1265" type="line"/>
      <point x="648" y="1377"/>
      <point x="686" y="1422"/>
      <point x="752" y="1422" type="curve"/>
    </contour>
    <contour>
      <point x="714" y="1612" type="curve"/>
      <point x="752" y="1422" type="line"/>
      <point x="798" y="1422"/>
      <point x="827" y="1389"/>
      <point x="843" y="1349" type="curve"/>
      <point x="862" y="1440" type="line"/>
      <point x="787" y="1440"/>
      <point x="739" y="1422"/>
      <point x="739" y="1337" type="curve" smooth="yes"/>
      <point x="739" y="1265"/>
      <point x="806" y="1230"/>
      <point x="884" y="1230" type="curve" smooth="yes"/>
      <point x="1002" y="1230"/>
      <point x="1056" y="1304"/>
      <point x="1056" y="1390" type="curve" smooth="yes"/>
      <point x="1056" y="1524"/>
      <point x="918" y="1612"/>
    </contour>
    <contour>
      <point x="1090" y="1236" type="line"/>
      <point x="1090" y="0" type="line"/>
      <point x="1490" y="0" type="line"/>
      <point x="1490" y="1295" type="line"/>
    </contour>
    <contour>
      <point x="1636" y="1642" type="line"/>
      <point x="1345" y="1642"/>
      <point x="1090" y="1516"/>
      <point x="1090" y="1236" type="curve"/>
      <point x="1490" y="1295" type="line"/>
      <point x="1490" y="1407"/>
      <point x="1550" y="1452"/>
      <point x="1654" y="1452" type="curve"/>
    </contour>
    <contour>
      <point x="1636" y="1642" type="curve"/>
      <point x="1654" y="1452" type="line"/>
      <point x="1720" y="1452"/>
      <point x="1762" y="1419"/>
      <point x="1785" y="1379" type="curve"/>
      <point x="1814" y="1480" type="line"/>
      <point x="1708" y="1480"/>
      <point x="1641" y="1461"/>
      <point x="1641" y="1367" type="curve" smooth="yes"/>
      <point x="1641" y="1275"/>
      <point x="1731" y="1230"/>
      <point x="1836" y="1230" type="curve" smooth="yes"/>
      <point x="1967" y="1230"/>
      <point x="2038" y="1309"/>
      <point x="2038" y="1400" type="curve" smooth="yes"/>
      <point x="2038" y="1546"/>
      <point x="1876" y="1642"/>
    </contour>
  </outline>
</glyph>
<glyph name="f_f_i" format="2">
  <advance width="2521"/>
  <outline>
    <contour>
      <point x="248" y="1180" type="line"/>
      <point x="248" y="0" type="line"/>
      <point x="648" y="0" type="line"/>
      <point x="648" y="1239" type="line"/>
    </contour>
    <contour>
      <point x="724" y="1586" type="line"/>
      <point x="471" y="1586"/>
      <point x="248" y="1460"/>
      <point x="248" y="1180" type="curve"/>
      <point x="648" y="1239" type="line"/>
      <point x="648" y="1351"/>
      <point x="690" y="1396"/>
      <point x="762" y="1396" type="curve"/>
    </contour>
    <contour>
      <point x="724" y="1586" type="curve"/>
      <point x="762" y="1396" type="line"/>
      <point x="811" y="1396"/>
      <point x="842" y="1363"/>
      <point x="859" y="1323" type="curve"/>
      <point x="878" y="1414" type="line"/>
      <point x="803" y="1414"/>
      <point x="755" y="1399"/>
      <point x="755" y="1329" type="curve" smooth="yes"/>
      <point x="755" y="1258"/>
      <point x="813" y="1224"/>
      <point x="898" y="1224" type="curve" smooth="yes"/>
      <point x="1000" y="1224"/>
      <point x="1062" y="1293"/>
      <point x="1062" y="1374" type="curve" smooth="yes"/>
      <point x="1062" y="1502"/>
      <point x="926" y="1586"/>
    </contour>
    <contour>
      <point x="1090" y="1166" type="line"/>
      <point x="1090" y="0" type="line"/>
      <point x="1490" y="0" type="line"/>
      <point x="1490" y="1205" type="line"/>
    </contour>
    <contour>
      <point x="1932" y="1160" type="line"/>
      <point x="1932" y="0" type="line"/>
      <point x="2336" y="0" type="line"/>
      <point x="2336" y="1160" type="line"/>
    </contour>
    <contour>
      <point x="20" y="1160" type="line"/>
      <point x="20" y="930" type="line"/>
      <point x="2336" y="930" type="line"/>
      <point x="2336" y="1160" type="line"/>
    </contour>
    <contour>
      <point x="1750" y="1632" type="line"/>
      <point x="1399" y="1622"/>
      <point x="1090" y="1514"/>
      <point x="1090" y="1166" type="curve"/>
      <point x="1490" y="1205" type="line"/>
      <point x="1490" y="1387"/>
      <point x="1593" y="1440"/>
      <point x="1788" y="1450" type="curve"/>
    </contour>
    <contour>
      <point x="1750" y="1632" type="curve"/>
      <point x="1788" y="1450" type="line"/>
      <point x="1912" y="1450"/>
      <point x="2004" y="1415"/>
      <point x="2049" y="1388" type="curve"/>
      <point x="2068" y="1480" type="line"/>
      <point x="1962" y="1480"/>
      <point x="1895" y="1461"/>
      <point x="1895" y="1367" type="curve" smooth="yes"/>
      <point x="1895" y="1281"/>
      <point x="1999" y="1240"/>
      <point x="2120" y="1240" type="curve" smooth="yes"/>
      <point x="2264" y="1240"/>
      <point x="2342" y="1304"/>
      <point x="2342" y="1390" type="curve" smooth="yes"/>
      <point x="2342" y="1525"/>
      <point x="2138" y="1632"/>
    </contour>
  </outline>
</glyph>
<glyph name="f_f_l" format="2">
  <advance width="2521"/>
  <outline>
    <contour>
      <point x="248" y="1206" type="line"/>
      <point x="248" y="0" type="line"/>
      <point x="648" y="0" type="line"/>
      <point x="648" y="1265" type="line"/>
    </contour>
    <contour>
      <point x="714" y="1612" type="line"/>
      <point x="466" y="1612"/>
      <point x="248" y="1486"/>
      <point x="248" y="1206" type="curve"/>
      <point x="648" y="1265" type="line"/>
      <point x="648" y="1377"/>
      <point x="686" y="1422"/>
      <point x="752" y="1422" type="curve"/>
    </contour>
    <contour>
      <point x="714" y="1612" type="curve"/>
      <point x="752" y="1422" type="line"/>
      <point x="798" y="1422"/>
      <point x="827" y="1389"/>
      <point x="843" y="1349" type="curve"/>
      <point x="862" y="1440" type="line"/>
      <point x="787" y="1440"/>
      <point x="739" y="1422"/>
      <point x="739" y="1337" type="curve" smooth="yes"/>
      <point x="739" y="1265"/>
      <point x="806" y="1230"/>
      <point x="884" y="1230" type="curve" smooth="yes"/>
      <point x="1002" y="1230"/>
      <point x="1056" y="1304"/>
      <point x="1056" y="1390" type="curve" smooth="yes"/>
      <point x="1056" y="1524"/>
      <point x="918" y="1612"/>
    </contour>
    <contour>
      <point x="1090" y="1206" type="line"/>
      <point x="1090" y="0" type="line"/>
      <point x="1490" y="0" type="line"/>
      <point x="1490" y="1285" type="line"/>
    </contour>
    <contour>
      <point x="1542" y="1612" type="line"/>
      <point x="1301" y="1612"/>
      <point x="1090" y="1486"/>
      <point x="1090" y="1206" type="curve"/>
      <point x="1490" y="1285" type="line"/>
      <point x="1490" y="1383"/>
      <point x="1525" y="1422"/>
      <point x="1586" y="1422" type="curve"/>
    </contour>
    <contour>
      <point x="1542" y="1612" type="curve"/>
      <point x="1586" y="1422" type="line"/>
      <point x="1632" y="1422"/>
      <point x="1661" y="1389"/>
      <point x="1677" y="1349" type="curve"/>
      <point x="1696" y="1440" type="line"/>
      <point x="1621" y="1440"/>
      <point x="1573" y="1422"/>
      <point x="1573" y="1337" type="curve" smooth="yes"/>
      <point x="1573" y="1265"/>
      <point x="1635" y="1230"/>
      <point x="1708" y="1230" type="curve" smooth="yes"/>
      <point x="1819" y="1230"/>
      <point x="1870" y="1304"/>
      <point x="1870" y="1390" type="curve" smooth="yes"/>
      <point x="1870" y="1524"/>
      <point x="1738" y="1612"/>
    </contour>
    <contour>
      <point x="1932" y="1580" type="line"/>
      <point x="1932" y="0" type="line"/>
      <point x="2336" y="0" type="line"/>
      <point x="2336" y="1580" type="line"/>
    </contour>
    <contour>
      <point x="20" y="1160" type="line"/>
      <point x="20" y="930" type="line"/>
      <point x="1796" y="930" type="line"/>
      <point x="1796" y="1160" type="line"/>
    </contour>
  </outline>
</glyph>
<glyph name="five.dnom" format="2">
  <advance width="844"/>
  <outline>
    <contour>
      <point x="56" y="265" type="line"/>
      <point x="58" y="99"/>
      <point x="189" y="-13"/>
      <point x="418" y="-13" type="curve" smooth="yes"/>
      <point x="647" y="-13"/>
      <point x="782" y="96"/>
      <point x="782" y="265" type="curve" smooth="yes"/>
      <point x="782" y="445"/>
      <point x="622" y="521"/>
      <point x="464" y="521" type="curve" smooth="yes"/>
      <point x="308" y="521"/>
      <point x="214" y="467"/>
      <point x="157" y="379" type="curve"/>
      <point x="220" y="323" type="line"/>
      <point x="242" y="349"/>
      <point x="281" y="373"/>
      <point x="345" y="373" type="curve" smooth="yes"/>
      <point x="431" y="373"/>
      <point x="482" y="331"/>
      <point x="482" y="270" type="curve" smooth="yes"/>
      <point x="482" y="210"/>
      <point x="440" y="165"/>
      <point x="350" y="165" type="curve" smooth="yes"/>
      <point x="258" y="165"/>
      <point x="211" y="211"/>
      <point x="202" y="265" type="curve"/>
    </contour>
    <contour>
      <point x="121" y="810" type="line"/>
      <point x="76" y="323" type="line"/>
      <point x="220" y="323" type="line"/>
      <point x="235" y="361" type="line"/>
      <point x="275" y="810" type="line"/>
    </contour>
    <contour>
      <point x="729" y="810" type="line"/>
      <point x="121" y="810" type="line"/>
      <point x="226" y="610" type="line"/>
      <point x="729" y="610" type="line"/>
    </contour>
    <contour>
      <point x="480" y="610" type="line"/>
      <point x="559" y="610"/>
      <point x="571" y="588"/>
      <point x="571" y="556" type="curve" smooth="yes"/>
      <point x="571" y="554" type="line"/>
      <point x="729" y="554" type="line"/>
      <point x="729" y="610" type="line"/>
    </contour>
  </outline>
</glyph>
<glyph name="four.dnom" format="2">
  <advance width="933"/>
  <outline>
    <contour>
      <point x="891" y="242" type="line"/>
      <point x="891" y="390" type="line"/>
      <point x="95" y="390" type="line"/>
      <point x="44" y="377" type="line"/>
      <point x="44" y="242" type="line"/>
    </contour>
    <contour>
      <point x="453" y="810" type="line"/>
      <point x="440" y="766" type="line"/>
      <point x="440" y="148" type="line"/>
      <point x="300" y="148" type="line"/>
      <point x="300" y="0" type="line"/>
      <point x="834" y="0" type="line"/>
      <point x="834" y="148" type="line"/>
      <point x="734" y="148" type="line"/>
      <point x="734" y="810" type="line"/>
    </contour>
    <contour>
      <point x="450" y="612" type="line"/>
      <point x="453" y="810" type="line"/>
      <point x="44" y="377" type="line"/>
      <point x="228" y="377" type="line"/>
    </contour>
  </outline>
</glyph>
<glyph name="idotless.ss01" format="2">
  <advance width="1066"/>
  <anchor x="612" y="0" name="bottom"/>
  <anchor x="434" y="1160" name="top"/>
  <outline>
    <contour>
      <point x="1046" y="500" type="line"/>
      <point x="796" y="500" type="line"/>
      <point x="796" y="328" type="line" smooth="yes"/>
      <point x="796" y="275"/>
      <point x="768" y="238"/>
      <point x="715" y="238" type="curve" smooth="yes"/>
      <point x="665" y="238"/>
      <point x="636" y="275"/>
      <point x="636" y="328" type="curve" smooth="yes"/>
      <point x="636" y="1160" type="line"/>
      <point x="260" y="1160" type="line"/>
      <point x="232" y="344" type="line" smooth="yes"/>
      <point x="224" y="108"/>
      <point x="375" y="-26"/>
      <point x="654" y="-26" type="curve" smooth="yes"/>
      <point x="918" y="-26"/>
      <point x="1046" y="117"/>
      <point x="1046" y="347" type="curve" smooth="yes"/>
    </contour>
  </outline>
</glyph>
<glyph name="l.ss01" format="2">
  <advance width="1030"/>
  <anchor x="574" y="0" name="bottom"/>
  <anchor x="396" y="790" name="center"/>
  <anchor x="386" y="1580" name="top"/>
  <anchor x="600" y="1580" name="topright"/>
  <outline>
    <contour>
      <point x="1010" y="500" type="line"/>
      <point x="760" y="500" type="line"/>
      <point x="760" y="328" type="line" smooth="yes"/>
      <point x="760" y="275"/>
      <point x="732" y="238"/>
      <point x="679" y="238" type="curve" smooth="yes"/>
      <point x="629" y="238"/>
      <point x="600" y="275"/>
      <point x="600" y="328" type="curve" smooth="yes"/>
      <point x="600" y="1580" type="line"/>
      <point x="226" y="1580" type="line"/>
      <point x="192" y="404" type="line" smooth="yes"/>
      <point x="184" y="112"/>
      <point x="340" y="-26"/>
      <point x="622" y="-26" type="curve" smooth="yes"/>
      <point x="883" y="-26"/>
      <point x="1010" y="117"/>
      <point x="1010" y="347" type="curve" smooth="yes"/>
    </contour>
  </outline>
</glyph>
<glyph name="nine.dnom" format="2">
  <advance width="928"/>
  <outline>
    <contour>
      <point x="444" y="823" type="curve" smooth="yes"/>
      <point x="194" y="823"/>
      <point x="44" y="713"/>
      <point x="44" y="547" type="curve" smooth="yes"/>
      <point x="44" y="383"/>
      <point x="189" y="293"/>
      <point x="366" y="293" type="curve" smooth="yes"/>
      <point x="469" y="293"/>
      <point x="533" y="323"/>
      <point x="572" y="366" type="curve"/>
      <point x="872" y="429" type="line"/>
      <point x="874" y="706"/>
      <point x="689" y="823"/>
    </contour>
    <contour>
      <point x="448" y="673" type="curve" smooth="yes"/>
      <point x="518" y="673"/>
      <point x="558" y="629"/>
      <point x="558" y="560" type="curve" smooth="yes"/>
      <point x="558" y="494"/>
      <point x="518" y="448"/>
      <point x="448" y="448" type="curve" smooth="yes"/>
      <point x="378" y="448"/>
      <point x="338" y="492"/>
      <point x="338" y="560" type="curve" smooth="yes"/>
      <point x="338" y="629"/>
      <point x="379" y="673"/>
    </contour>
    <contour>
      <point x="81" y="154" type="curve" smooth="yes"/>
      <point x="81" y="60"/>
      <point x="223" y="-13"/>
      <point x="408" y="-13" type="curve" smooth="yes"/>
      <point x="706" y="-13"/>
      <point x="875" y="168"/>
      <point x="872" y="429" type="curve"/>
      <point x="572" y="366" type="line"/>
      <point x="584" y="219"/>
      <point x="505" y="125"/>
      <point x="384" y="125" type="curve" smooth="yes"/>
      <point x="307" y="125"/>
      <point x="248" y="150"/>
      <point x="227" y="179" type="curve"/>
      <point x="229" y="99" type="line"/>
      <point x="309" y="100"/>
      <point x="358" y="122"/>
      <point x="358" y="184" type="curve" smooth="yes"/>
      <point x="358" y="231"/>
      <point x="304" y="267"/>
      <point x="222" y="267" type="curve" smooth="yes"/>
      <point x="143" y="267"/>
      <point x="81" y="229"/>
    </contour>
  </outline>
</glyph>
<glyph name="one.dnom" format="2">
  <advance width="659"/>
  <outline>
    <contour>
      <point x="301" y="810" type="line"/>
      <point x="301" y="808" type="line" smooth="yes"/>
      <point x="301" y="707"/>
      <point x="225" y="641"/>
      <point x="56" y="641" type="curve" smooth="yes"/>
      <point x="46" y="641" type="line"/>
      <point x="46" y="501" type="line"/>
      <point x="236" y="501" type="line"/>
      <point x="236" y="148" type="line"/>
      <point x="108" y="148" type="line"/>
      <point x="108" y="0" type="line"/>
      <point x="637" y="0" type="line"/>
      <point x="637" y="148" type="line"/>
      <point x="536" y="148" type="line"/>
      <point x="536" y="810" type="line"/>
    </contour>
  </outline>
</glyph>
<glyph name="seven.dnom" format="2">
  <advance width="855"/>
  <outline>
    <contour>
      <point x="52" y="810" type="line"/>
      <point x="52" y="610" type="line"/>
      <point x="589" y="610" type="line"/>
      <point x="809" y="622" type="line"/>
      <point x="809" y="810" type="line"/>
    </contour>
    <contour>
      <point x="222" y="0" type="curve"/>
      <point x="532" y="0" type="line"/>
      <point x="517" y="257"/>
      <point x="569" y="456"/>
      <point x="809" y="622" type="curve"/>
      <point x="589" y="610" type="line"/>
      <point x="352" y="505"/>
      <point x="221" y="302"/>
    </contour>
    <contour>
      <point x="320" y="610" type="curve"/>
      <point x="52" y="610" type="line"/>
      <point x="52" y="490" type="line"/>
      <point x="210" y="490" type="line"/>
      <point x="210" y="496" type="line" smooth="yes"/>
      <point x="210" y="572"/>
      <point x="228" y="610"/>
    </contour>
  </outline>
</glyph>
